G04 start of page 7 for group -4062 idx -4062 *
G04 Title: (unknown), soldermask *
G04 Creator: pcb 20110918 *
G04 CreationDate: Thu Aug 28 18:43:41 2014 UTC *
G04 For: fosse *
G04 Format: Gerber/RS-274X *
G04 PCB-Dimensions: 348000 372000 *
G04 PCB-Coordinate-Origin: lower left *
%MOIN*%
%FSLAX25Y25*%
%LNBOTTOMMASK*%
%ADD65C,0.0651*%
%ADD64C,0.2760*%
%ADD63C,0.0001*%
%ADD62C,0.0660*%
G54D62*X110500Y241000D03*
G54D63*G36*
X315200Y271300D02*Y264700D01*
X321800D01*
Y271300D01*
X315200D01*
G37*
G54D62*X318500Y278000D03*
G54D63*G36*
X207700Y326300D02*Y319700D01*
X214300D01*
Y326300D01*
X207700D01*
G37*
G54D62*X221000Y323000D03*
X231000D03*
X241000D03*
G54D64*X327000Y349000D03*
G54D62*X251000Y323000D03*
X261000D03*
G54D63*G36*
X287700Y316300D02*Y309700D01*
X294300D01*
Y316300D01*
X287700D01*
G37*
G54D62*X291000Y323000D03*
G54D63*G36*
X280200Y168800D02*Y162200D01*
X286800D01*
Y168800D01*
X280200D01*
G37*
G54D62*X283500Y175500D03*
X110500Y221000D03*
X100500D03*
X110500Y231000D03*
X100500D03*
Y241000D03*
X110500Y251000D03*
Y261000D03*
Y271000D03*
Y281000D03*
Y291000D03*
X100500Y251000D03*
Y261000D03*
Y271000D03*
Y281000D03*
Y291000D03*
G54D63*G36*
X107200Y204300D02*Y197700D01*
X113800D01*
Y204300D01*
X107200D01*
G37*
G54D62*X100500Y201000D03*
X110500Y211000D03*
X100500D03*
G54D63*G36*
X140200Y166300D02*Y159700D01*
X146800D01*
Y166300D01*
X140200D01*
G37*
G54D62*X143500Y173000D03*
G54D63*G36*
X75200Y166300D02*Y159700D01*
X81800D01*
Y166300D01*
X75200D01*
G37*
G54D62*X78500Y173000D03*
X63500Y170500D03*
Y180500D03*
Y190500D03*
Y200500D03*
Y210500D03*
Y220500D03*
G54D65*X47626Y241630D03*
Y249504D03*
X55500Y241630D03*
Y249504D03*
X47626Y257378D03*
X55500D03*
X47626Y265252D03*
Y273126D03*
Y281000D03*
X55500Y265252D03*
Y273126D03*
Y281000D03*
Y288874D03*
G54D63*G36*
X62700Y313800D02*Y307200D01*
X69300D01*
Y313800D01*
X62700D01*
G37*
G54D62*X66000Y320500D03*
G54D65*X47626Y288874D03*
G54D63*G36*
X42700Y313800D02*Y307200D01*
X49300D01*
Y313800D01*
X42700D01*
G37*
G54D62*X46000Y320500D03*
G54D63*G36*
X22700Y313800D02*Y307200D01*
X29300D01*
Y313800D01*
X22700D01*
G37*
G54D62*X26000Y320500D03*
G54D64*X30000Y349000D03*
G54D63*G36*
X76200Y96300D02*Y89700D01*
X82800D01*
Y96300D01*
X76200D01*
G37*
G36*
Y146300D02*Y139700D01*
X82800D01*
Y146300D01*
X76200D01*
G37*
G54D62*X69500Y93000D03*
X59500D03*
X49500D03*
X39500D03*
X29500D03*
X19500D03*
G54D64*X30000Y71000D03*
G54D62*X69500Y143000D03*
X59500D03*
X49500D03*
X39500D03*
X29500D03*
X19500D03*
G54D63*G36*
X96200Y96300D02*Y89700D01*
X102800D01*
Y96300D01*
X96200D01*
G37*
G54D64*X327000Y71000D03*
G54D62*X99500Y103000D03*
Y113000D03*
Y123000D03*
Y133000D03*
Y143000D03*
M02*
