M48
INCH
T52C0.035
T51C0.020
T50C0.035
T49C0.042
T48C0.129
T47C0.038
T46C0.040
%
T51
X022600Y028400
X021950Y027200
X032000Y020950
X031950Y023850
X029100Y026400
X031250Y026000
X029300Y027200
X028650Y025150
T52
X021800Y016300
X026600Y017000
X014550Y025900
X007500Y026600
X016300Y027650
X019100Y017500
X019450Y016300
X014950Y024600
X003250Y021650
X003750Y022600
X008550Y023600
X005900Y010700
X015450Y008250
T50
X004763Y024163
X004763Y024950
X005550Y024163
X005550Y024950
X004763Y025738
X005550Y025738
X004763Y026525
X004763Y027313
X004763Y028100
X005550Y026525
X005550Y027313
X005550Y028100
X005550Y028887
X004763Y028887
T47
X031850Y026800
X031850Y027800
X021100Y032300
X022100Y032300
X023100Y032300
X024100Y032300
X025100Y032300
X026100Y032300
X029100Y031300
X029100Y032300
X028350Y016550
X028350Y017550
X014350Y016300
X014350Y017300
X007850Y016300
X007850Y017300
X006600Y031050
X006600Y032050
X004600Y031050
X004600Y032050
X002600Y031050
X002600Y032050
X007950Y009300
X007950Y014300
X006950Y009300
X005950Y009300
X004950Y009300
X003950Y009300
X002950Y009300
X001950Y009300
X006950Y014300
X005950Y014300
X004950Y014300
X003950Y014300
X002950Y014300
X001950Y014300
X009950Y009300
X009950Y010300
X009950Y011300
X009950Y012300
X009950Y013300
X009950Y014300
T46
X011050Y024100
X011050Y022100
X010050Y022100
X011050Y023100
X010050Y023100
X010050Y024100
X011050Y025100
X011050Y026100
X011050Y027100
X011050Y028100
X011050Y029100
X010050Y025100
X010050Y026100
X010050Y027100
X010050Y028100
X010050Y029100
X011050Y020100
X010050Y020100
X011050Y021100
X010050Y021100
T49
X006350Y017050
X006350Y018050
X006350Y019050
X006350Y020050
X006350Y021050
X006350Y022050
T48
X032700Y034900
X003000Y034900
X003000Y007100
X032700Y007100
M30
