G04 start of page 8 for group -4079 idx -4079 *
G04 Title: (unknown), topsilk *
G04 Creator: pcb 20110918 *
G04 CreationDate: Thu Aug 28 18:43:41 2014 UTC *
G04 For: fosse *
G04 Format: Gerber/RS-274X *
G04 PCB-Dimensions: 348000 372000 *
G04 PCB-Coordinate-Origin: lower left *
%MOIN*%
%FSLAX25Y25*%
%LNTOPSILK*%
%ADD70C,0.0150*%
%ADD69C,0.0400*%
%ADD68C,0.0250*%
%ADD67C,0.0100*%
%ADD66C,0.0001*%
G54D66*G36*
X218500Y152500D02*X332000D01*
X336500Y148000D01*
Y92500D01*
X333000Y89000D01*
X318000D01*
X308000Y79000D01*
Y64500D01*
X304500Y61000D01*
X203000D01*
X200000Y64000D01*
Y145000D01*
X216500D01*
X218500Y147000D01*
Y152500D01*
G37*
G54D67*X114500Y90000D02*Y153500D01*
X191500D01*
X116500Y88000D02*X114500Y90000D01*
X191500Y88000D02*X116500D01*
X194500Y91000D02*X191500Y88000D01*
X194500Y150500D02*Y91000D01*
X191500Y153500D02*X194500Y150500D01*
X198000Y154000D02*Y63000D01*
X202000Y59000D01*
X306000D01*
X310000Y63000D01*
Y77000D01*
X319500Y86500D01*
X334000D01*
X339000Y91500D01*
Y149000D01*
X334000Y154000D01*
X198000D01*
X166500Y245500D02*X280500D01*
X298500Y227500D01*
Y205500D01*
X295500Y202500D01*
X166500Y204000D02*Y245500D01*
X156500Y224000D02*X144000D01*
X295500Y202500D02*X168000D01*
X166500Y204000D01*
X119500Y150500D02*X120000Y150000D01*
X118000Y150500D02*X119500D01*
X117500Y150000D02*X118000Y150500D01*
X117500Y150000D02*Y149000D01*
X118000Y148500D01*
X119500D01*
X120000Y148000D01*
Y147000D01*
X119500Y146500D02*X120000Y147000D01*
X118000Y146500D02*X119500D01*
X117500Y147000D02*X118000Y146500D01*
X121200Y148500D02*Y147000D01*
X121700Y146500D01*
X122700D01*
X123200Y147000D01*
Y148500D02*Y147000D01*
X125900Y148500D02*X126400Y148000D01*
X124900Y148500D02*X125900D01*
X124400Y148000D02*X124900Y148500D01*
X124400Y148000D02*Y147000D01*
X124900Y146500D01*
X125900D01*
X126400Y147000D01*
X124400Y145500D02*X124900Y145000D01*
X125900D01*
X126400Y145500D01*
Y148500D02*Y145500D01*
X129100Y148500D02*X129600Y148000D01*
X128100Y148500D02*X129100D01*
X127600Y148000D02*X128100Y148500D01*
X127600Y148000D02*Y147000D01*
X128100Y146500D01*
X129100D01*
X129600Y147000D01*
X127600Y145500D02*X128100Y145000D01*
X129100D01*
X129600Y145500D01*
Y148500D02*Y145500D01*
X131300Y146500D02*X132800D01*
X130800Y147000D02*X131300Y146500D01*
X130800Y148000D02*Y147000D01*
Y148000D02*X131300Y148500D01*
X132300D01*
X132800Y148000D01*
X130800Y147500D02*X132800D01*
Y148000D02*Y147500D01*
X134500Y146500D02*X136000D01*
X136500Y147000D01*
X136000Y147500D02*X136500Y147000D01*
X134500Y147500D02*X136000D01*
X134000Y148000D02*X134500Y147500D01*
X134000Y148000D02*X134500Y148500D01*
X136000D01*
X136500Y148000D01*
X134000Y147000D02*X134500Y146500D01*
X138200Y150500D02*Y147000D01*
X138700Y146500D01*
X137700Y149000D02*X138700D01*
X140200Y146500D02*X141700D01*
X139700Y147000D02*X140200Y146500D01*
X139700Y148000D02*Y147000D01*
Y148000D02*X140200Y148500D01*
X141200D01*
X141700Y148000D01*
X139700Y147500D02*X141700D01*
Y148000D02*Y147500D01*
X144900Y150500D02*Y146500D01*
X144400D02*X144900Y147000D01*
X143400Y146500D02*X144400D01*
X142900Y147000D02*X143400Y146500D01*
X142900Y148000D02*Y147000D01*
Y148000D02*X143400Y148500D01*
X144400D01*
X144900Y148000D01*
X148600Y150500D02*X149400D01*
Y147000D01*
X148900Y146500D02*X149400Y147000D01*
X148400Y146500D02*X148900D01*
X147900Y147000D02*X148400Y146500D01*
X147900Y147500D02*Y147000D01*
X150600Y148500D02*Y147000D01*
X151100Y146500D01*
X152100D01*
X152600Y147000D01*
Y148500D02*Y147000D01*
X154300Y148000D02*Y146500D01*
Y148000D02*X154800Y148500D01*
X155300D01*
X155800Y148000D01*
Y146500D01*
Y148000D02*X156300Y148500D01*
X156800D01*
X157300Y148000D01*
Y146500D01*
X153800Y148500D02*X154300Y148000D01*
X159000D02*Y145000D01*
X158500Y148500D02*X159000Y148000D01*
X159500Y148500D01*
X160500D01*
X161000Y148000D01*
Y147000D01*
X160500Y146500D02*X161000Y147000D01*
X159500Y146500D02*X160500D01*
X159000Y147000D02*X159500Y146500D01*
X162700D02*X164200D01*
X162200Y147000D02*X162700Y146500D01*
X162200Y148000D02*Y147000D01*
Y148000D02*X162700Y148500D01*
X163700D01*
X164200Y148000D01*
X162200Y147500D02*X164200D01*
Y148000D02*Y147500D01*
X165900Y148000D02*Y146500D01*
Y148000D02*X166400Y148500D01*
X167400D01*
X165400D02*X165900Y148000D01*
X172400Y150500D02*X172900Y150000D01*
X170900Y150500D02*X172400D01*
X170400Y150000D02*X170900Y150500D01*
X170400Y150000D02*Y149000D01*
X170900Y148500D01*
X172400D01*
X172900Y148000D01*
Y147000D01*
X172400Y146500D02*X172900Y147000D01*
X170900Y146500D02*X172400D01*
X170400Y147000D02*X170900Y146500D01*
X174600D02*X176100D01*
X174100Y147000D02*X174600Y146500D01*
X174100Y148000D02*Y147000D01*
Y148000D02*X174600Y148500D01*
X175600D01*
X176100Y148000D01*
X174100Y147500D02*X176100D01*
Y148000D02*Y147500D01*
X177800Y150500D02*Y147000D01*
X178300Y146500D01*
X177300Y149000D02*X178300D01*
X179800Y150500D02*Y147000D01*
X180300Y146500D01*
X179300Y149000D02*X180300D01*
X181300Y149500D02*Y149400D01*
Y148000D02*Y146500D01*
X182800Y148000D02*Y146500D01*
Y148000D02*X183300Y148500D01*
X183800D01*
X184300Y148000D01*
Y146500D01*
X182300Y148500D02*X182800Y148000D01*
X187000Y148500D02*X187500Y148000D01*
X186000Y148500D02*X187000D01*
X185500Y148000D02*X186000Y148500D01*
X185500Y148000D02*Y147000D01*
X186000Y146500D01*
X187000D01*
X187500Y147000D01*
X185500Y145500D02*X186000Y145000D01*
X187000D01*
X187500Y145500D01*
Y148500D02*Y145500D01*
X189200Y146500D02*X190700D01*
X191200Y147000D01*
X190700Y147500D02*X191200Y147000D01*
X189200Y147500D02*X190700D01*
X188700Y148000D02*X189200Y147500D01*
X188700Y148000D02*X189200Y148500D01*
X190700D01*
X191200Y148000D01*
X188700Y147000D02*X189200Y146500D01*
X118200Y101500D02*X119000D01*
Y98000D01*
X118500Y97500D02*X119000Y98000D01*
X118000Y97500D02*X118500D01*
X117500Y98000D02*X118000Y97500D01*
X117500Y98500D02*Y98000D01*
X120700Y97500D02*X122700Y101500D01*
X120200D02*X122700D01*
X125700Y99500D02*X127700D01*
X130700Y101000D02*Y98000D01*
Y101000D02*X131200Y101500D01*
X132200D01*
X132700Y101000D01*
Y98000D01*
X132200Y97500D02*X132700Y98000D01*
X131200Y97500D02*X132200D01*
X130700Y98000D02*X131200Y97500D01*
X134400Y99000D02*Y96000D01*
X133900Y99500D02*X134400Y99000D01*
X134900Y99500D01*
X135900D01*
X136400Y99000D01*
Y98000D01*
X135900Y97500D02*X136400Y98000D01*
X134900Y97500D02*X135900D01*
X134400Y98000D02*X134900Y97500D01*
X138100D02*X139600D01*
X137600Y98000D02*X138100Y97500D01*
X137600Y99000D02*Y98000D01*
Y99000D02*X138100Y99500D01*
X139100D01*
X139600Y99000D01*
X137600Y98500D02*X139600D01*
Y99000D02*Y98500D01*
X141300Y99000D02*Y97500D01*
Y99000D02*X141800Y99500D01*
X142300D01*
X142800Y99000D01*
Y97500D01*
X140800Y99500D02*X141300Y99000D01*
X118200Y94500D02*X119000D01*
Y91000D01*
X118500Y90500D02*X119000Y91000D01*
X118000Y90500D02*X118500D01*
X117500Y91000D02*X118000Y90500D01*
X117500Y91500D02*Y91000D01*
X120200D02*X120700Y90500D01*
X120200Y91800D02*Y91000D01*
Y91800D02*X120900Y92500D01*
X121500D01*
X122200Y91800D01*
Y91000D01*
X121700Y90500D02*X122200Y91000D01*
X120700Y90500D02*X121700D01*
X120200Y93200D02*X120900Y92500D01*
X120200Y94000D02*Y93200D01*
Y94000D02*X120700Y94500D01*
X121700D01*
X122200Y94000D01*
Y93200D01*
X121500Y92500D02*X122200Y93200D01*
X125200Y92500D02*X127200D01*
X130200Y94000D02*Y91000D01*
Y94000D02*X130700Y94500D01*
X131700D01*
X132200Y94000D01*
Y91000D01*
X131700Y90500D02*X132200Y91000D01*
X130700Y90500D02*X131700D01*
X130200Y91000D02*X130700Y90500D01*
X133900Y92000D02*Y89000D01*
X133400Y92500D02*X133900Y92000D01*
X134400Y92500D01*
X135400D01*
X135900Y92000D01*
Y91000D01*
X135400Y90500D02*X135900Y91000D01*
X134400Y90500D02*X135400D01*
X133900Y91000D02*X134400Y90500D01*
X137600D02*X139100D01*
X137100Y91000D02*X137600Y90500D01*
X137100Y92000D02*Y91000D01*
Y92000D02*X137600Y92500D01*
X138600D01*
X139100Y92000D01*
X137100Y91500D02*X139100D01*
Y92000D02*Y91500D01*
X140800Y92000D02*Y90500D01*
Y92000D02*X141300Y92500D01*
X141800D01*
X142300Y92000D01*
Y90500D01*
X140300Y92500D02*X140800Y92000D01*
X118200Y108500D02*X119000D01*
Y105000D01*
X118500Y104500D02*X119000Y105000D01*
X118000Y104500D02*X118500D01*
X117500Y105000D02*X118000Y104500D01*
X117500Y105500D02*Y105000D01*
X121700Y108500D02*X122200Y108000D01*
X120700Y108500D02*X121700D01*
X120200Y108000D02*X120700Y108500D01*
X120200Y108000D02*Y105000D01*
X120700Y104500D01*
X121700Y106700D02*X122200Y106200D01*
X120200Y106700D02*X121700D01*
X120700Y104500D02*X121700D01*
X122200Y105000D01*
Y106200D02*Y105000D01*
X125200Y106500D02*X127200D01*
X130200Y108000D02*Y105000D01*
Y108000D02*X130700Y108500D01*
X131700D01*
X132200Y108000D01*
Y105000D01*
X131700Y104500D02*X132200Y105000D01*
X130700Y104500D02*X131700D01*
X130200Y105000D02*X130700Y104500D01*
X133900Y106000D02*Y103000D01*
X133400Y106500D02*X133900Y106000D01*
X134400Y106500D01*
X135400D01*
X135900Y106000D01*
Y105000D01*
X135400Y104500D02*X135900Y105000D01*
X134400Y104500D02*X135400D01*
X133900Y105000D02*X134400Y104500D01*
X137600D02*X139100D01*
X137100Y105000D02*X137600Y104500D01*
X137100Y106000D02*Y105000D01*
Y106000D02*X137600Y106500D01*
X138600D01*
X139100Y106000D01*
X137100Y105500D02*X139100D01*
Y106000D02*Y105500D01*
X140800Y106000D02*Y104500D01*
Y106000D02*X141300Y106500D01*
X141800D01*
X142300Y106000D01*
Y104500D01*
X140300Y106500D02*X140800Y106000D01*
X118200Y115500D02*X119000D01*
Y112000D01*
X118500Y111500D02*X119000Y112000D01*
X118000Y111500D02*X118500D01*
X117500Y112000D02*X118000Y111500D01*
X117500Y112500D02*Y112000D01*
X120200Y115500D02*X122200D01*
X120200D02*Y113500D01*
X120700Y114000D01*
X121700D01*
X122200Y113500D01*
Y112000D01*
X121700Y111500D02*X122200Y112000D01*
X120700Y111500D02*X121700D01*
X120200Y112000D02*X120700Y111500D01*
X125200Y113500D02*X127200D01*
X130900Y111500D02*X132200D01*
X130200Y112200D02*X130900Y111500D01*
X130200Y114800D02*Y112200D01*
Y114800D02*X130900Y115500D01*
X132200D01*
X133400D02*Y112000D01*
X133900Y111500D01*
X134900Y113000D02*Y112000D01*
Y113000D02*X135400Y113500D01*
X136400D01*
X136900Y113000D01*
Y112000D01*
X136400Y111500D02*X136900Y112000D01*
X135400Y111500D02*X136400D01*
X134900Y112000D02*X135400Y111500D01*
X138600D02*X140100D01*
X140600Y112000D01*
X140100Y112500D02*X140600Y112000D01*
X138600Y112500D02*X140100D01*
X138100Y113000D02*X138600Y112500D01*
X138100Y113000D02*X138600Y113500D01*
X140100D01*
X140600Y113000D01*
X138100Y112000D02*X138600Y111500D01*
X142300D02*X143800D01*
X141800Y112000D02*X142300Y111500D01*
X141800Y113000D02*Y112000D01*
Y113000D02*X142300Y113500D01*
X143300D01*
X143800Y113000D01*
X141800Y112500D02*X143800D01*
Y113000D02*Y112500D01*
X147000Y115500D02*Y111500D01*
X146500D02*X147000Y112000D01*
X145500Y111500D02*X146500D01*
X145000Y112000D02*X145500Y111500D01*
X145000Y113000D02*Y112000D01*
Y113000D02*X145500Y113500D01*
X146500D01*
X147000Y113000D01*
X118200Y122500D02*X119000D01*
Y119000D01*
X118500Y118500D02*X119000Y119000D01*
X118000Y118500D02*X118500D01*
X117500Y119000D02*X118000Y118500D01*
X117500Y119500D02*Y119000D01*
X120200Y120000D02*X122200Y122500D01*
X120200Y120000D02*X122700D01*
X122200Y122500D02*Y118500D01*
X125700Y120500D02*X127700D01*
X130700Y122000D02*Y119000D01*
Y122000D02*X131200Y122500D01*
X132200D01*
X132700Y122000D01*
Y119000D01*
X132200Y118500D02*X132700Y119000D01*
X131200Y118500D02*X132200D01*
X130700Y119000D02*X131200Y118500D01*
X134400Y120000D02*Y117000D01*
X133900Y120500D02*X134400Y120000D01*
X134900Y120500D01*
X135900D01*
X136400Y120000D01*
Y119000D01*
X135900Y118500D02*X136400Y119000D01*
X134900Y118500D02*X135900D01*
X134400Y119000D02*X134900Y118500D01*
X138100D02*X139600D01*
X137600Y119000D02*X138100Y118500D01*
X137600Y120000D02*Y119000D01*
Y120000D02*X138100Y120500D01*
X139100D01*
X139600Y120000D01*
X137600Y119500D02*X139600D01*
Y120000D02*Y119500D01*
X141300Y120000D02*Y118500D01*
Y120000D02*X141800Y120500D01*
X142300D01*
X142800Y120000D01*
Y118500D01*
X140800Y120500D02*X141300Y120000D01*
X118200Y129500D02*X119000D01*
Y126000D01*
X118500Y125500D02*X119000Y126000D01*
X118000Y125500D02*X118500D01*
X117500Y126000D02*X118000Y125500D01*
X117500Y126500D02*Y126000D01*
X120200Y129000D02*X120700Y129500D01*
X121700D01*
X122200Y129000D01*
X121700Y125500D02*X122200Y126000D01*
X120700Y125500D02*X121700D01*
X120200Y126000D02*X120700Y125500D01*
Y127700D02*X121700D01*
X122200Y129000D02*Y128200D01*
Y127200D02*Y126000D01*
Y127200D02*X121700Y127700D01*
X122200Y128200D02*X121700Y127700D01*
X125200Y127500D02*X127200D01*
X130900Y125500D02*X132200D01*
X130200Y126200D02*X130900Y125500D01*
X130200Y128800D02*Y126200D01*
Y128800D02*X130900Y129500D01*
X132200D01*
X133400D02*Y126000D01*
X133900Y125500D01*
X134900Y127000D02*Y126000D01*
Y127000D02*X135400Y127500D01*
X136400D01*
X136900Y127000D01*
Y126000D01*
X136400Y125500D02*X136900Y126000D01*
X135400Y125500D02*X136400D01*
X134900Y126000D02*X135400Y125500D01*
X138600D02*X140100D01*
X140600Y126000D01*
X140100Y126500D02*X140600Y126000D01*
X138600Y126500D02*X140100D01*
X138100Y127000D02*X138600Y126500D01*
X138100Y127000D02*X138600Y127500D01*
X140100D01*
X140600Y127000D01*
X138100Y126000D02*X138600Y125500D01*
X142300D02*X143800D01*
X141800Y126000D02*X142300Y125500D01*
X141800Y127000D02*Y126000D01*
Y127000D02*X142300Y127500D01*
X143300D01*
X143800Y127000D01*
X141800Y126500D02*X143800D01*
Y127000D02*Y126500D01*
X147000Y129500D02*Y125500D01*
X146500D02*X147000Y126000D01*
X145500Y125500D02*X146500D01*
X145000Y126000D02*X145500Y125500D01*
X145000Y127000D02*Y126000D01*
Y127000D02*X145500Y127500D01*
X146500D01*
X147000Y127000D01*
X118200Y136500D02*X119000D01*
Y133000D01*
X118500Y132500D02*X119000Y133000D01*
X118000Y132500D02*X118500D01*
X117500Y133000D02*X118000Y132500D01*
X117500Y133500D02*Y133000D01*
X120200Y136000D02*X120700Y136500D01*
X122200D01*
X122700Y136000D01*
Y135000D01*
X120200Y132500D02*X122700Y135000D01*
X120200Y132500D02*X122700D01*
X125700Y134500D02*X127700D01*
X131400Y132500D02*X132700D01*
X130700Y133200D02*X131400Y132500D01*
X130700Y135800D02*Y133200D01*
Y135800D02*X131400Y136500D01*
X132700D01*
X133900D02*Y133000D01*
X134400Y132500D01*
X135400Y134000D02*Y133000D01*
Y134000D02*X135900Y134500D01*
X136900D01*
X137400Y134000D01*
Y133000D01*
X136900Y132500D02*X137400Y133000D01*
X135900Y132500D02*X136900D01*
X135400Y133000D02*X135900Y132500D01*
X139100D02*X140600D01*
X141100Y133000D01*
X140600Y133500D02*X141100Y133000D01*
X139100Y133500D02*X140600D01*
X138600Y134000D02*X139100Y133500D01*
X138600Y134000D02*X139100Y134500D01*
X140600D01*
X141100Y134000D01*
X138600Y133000D02*X139100Y132500D01*
X142800D02*X144300D01*
X142300Y133000D02*X142800Y132500D01*
X142300Y134000D02*Y133000D01*
Y134000D02*X142800Y134500D01*
X143800D01*
X144300Y134000D01*
X142300Y133500D02*X144300D01*
Y134000D02*Y133500D01*
X147500Y136500D02*Y132500D01*
X147000D02*X147500Y133000D01*
X146000Y132500D02*X147000D01*
X145500Y133000D02*X146000Y132500D01*
X145500Y134000D02*Y133000D01*
Y134000D02*X146000Y134500D01*
X147000D01*
X147500Y134000D01*
X118200Y143500D02*X119000D01*
Y140000D01*
X118500Y139500D02*X119000Y140000D01*
X118000Y139500D02*X118500D01*
X117500Y140000D02*X118000Y139500D01*
X117500Y140500D02*Y140000D01*
X120200Y142700D02*X121000Y143500D01*
Y139500D01*
X120200D02*X121700D01*
X124700Y141500D02*X126700D01*
X130400Y139500D02*X131700D01*
X129700Y140200D02*X130400Y139500D01*
X129700Y142800D02*Y140200D01*
Y142800D02*X130400Y143500D01*
X131700D01*
X132900D02*Y140000D01*
X133400Y139500D01*
X134400Y141000D02*Y140000D01*
Y141000D02*X134900Y141500D01*
X135900D01*
X136400Y141000D01*
Y140000D01*
X135900Y139500D02*X136400Y140000D01*
X134900Y139500D02*X135900D01*
X134400Y140000D02*X134900Y139500D01*
X138100D02*X139600D01*
X140100Y140000D01*
X139600Y140500D02*X140100Y140000D01*
X138100Y140500D02*X139600D01*
X137600Y141000D02*X138100Y140500D01*
X137600Y141000D02*X138100Y141500D01*
X139600D01*
X140100Y141000D01*
X137600Y140000D02*X138100Y139500D01*
X141800D02*X143300D01*
X141300Y140000D02*X141800Y139500D01*
X141300Y141000D02*Y140000D01*
Y141000D02*X141800Y141500D01*
X142800D01*
X143300Y141000D01*
X141300Y140500D02*X143300D01*
Y141000D02*Y140500D01*
X146500Y143500D02*Y139500D01*
X146000D02*X146500Y140000D01*
X145000Y139500D02*X146000D01*
X144500Y140000D02*X145000Y139500D01*
X144500Y141000D02*Y140000D01*
Y141000D02*X145000Y141500D01*
X146000D01*
X146500Y141000D01*
X200500Y150500D02*Y146500D01*
Y150500D02*X203000Y146500D01*
Y150500D02*Y146500D01*
X204200Y148000D02*Y147000D01*
Y148000D02*X204700Y148500D01*
X205700D01*
X206200Y148000D01*
Y147000D01*
X205700Y146500D02*X206200Y147000D01*
X204700Y146500D02*X205700D01*
X204200Y147000D02*X204700Y146500D01*
X207900Y150500D02*Y147000D01*
X208400Y146500D01*
X207400Y149000D02*X208400D01*
X209900Y146500D02*X211400D01*
X209400Y147000D02*X209900Y146500D01*
X209400Y148000D02*Y147000D01*
Y148000D02*X209900Y148500D01*
X210900D01*
X211400Y148000D01*
X209400Y147500D02*X211400D01*
Y148000D02*Y147500D01*
X213100Y146500D02*X214600D01*
X215100Y147000D01*
X214600Y147500D02*X215100Y147000D01*
X213100Y147500D02*X214600D01*
X212600Y148000D02*X213100Y147500D01*
X212600Y148000D02*X213100Y148500D01*
X214600D01*
X215100Y148000D01*
X212600Y147000D02*X213100Y146500D01*
X216300Y149000D02*X216800D01*
X216300Y148000D02*X216800D01*
X169200Y218500D02*X170500D01*
X168500Y219200D02*X169200Y218500D01*
X168500Y221800D02*Y219200D01*
Y221800D02*X169200Y222500D01*
X170500D01*
X171700Y222000D02*Y219000D01*
Y222000D02*X172200Y222500D01*
X173200D01*
X173700Y222000D01*
Y219000D01*
X173200Y218500D02*X173700Y219000D01*
X172200Y218500D02*X173200D01*
X171700Y219000D02*X172200Y218500D01*
X174900Y222500D02*Y218500D01*
Y222500D02*X177400Y218500D01*
Y222500D02*Y218500D01*
X178600Y222500D02*Y218500D01*
Y222500D02*X181100Y218500D01*
Y222500D02*Y218500D01*
X182300Y222000D02*X182800Y222500D01*
X183800D01*
X184300Y222000D01*
X183800Y218500D02*X184300Y219000D01*
X182800Y218500D02*X183800D01*
X182300Y219000D02*X182800Y218500D01*
Y220700D02*X183800D01*
X184300Y222000D02*Y221200D01*
Y220200D02*Y219000D01*
Y220200D02*X183800Y220700D01*
X184300Y221200D02*X183800Y220700D01*
X187300Y220500D02*X189300D01*
X192800Y222500D02*Y218500D01*
X194100Y222500D02*X194800Y221800D01*
Y219200D01*
X194100Y218500D02*X194800Y219200D01*
X192300Y218500D02*X194100D01*
X192300Y222500D02*X194100D01*
X197500Y220500D02*X198000Y220000D01*
X196500Y220500D02*X197500D01*
X196000Y220000D02*X196500Y220500D01*
X196000Y220000D02*Y219000D01*
X196500Y218500D01*
X198000Y220500D02*Y219000D01*
X198500Y218500D01*
X196500D02*X197500D01*
X198000Y219000D01*
X200200Y220000D02*Y218500D01*
Y220000D02*X200700Y220500D01*
X201200D01*
X201700Y220000D01*
Y218500D01*
X199700Y220500D02*X200200Y220000D01*
X204400Y220500D02*X204900Y220000D01*
X203400Y220500D02*X204400D01*
X202900Y220000D02*X203400Y220500D01*
X202900Y220000D02*Y219000D01*
X203400Y218500D01*
X204400D01*
X204900Y219000D01*
X202900Y217500D02*X203400Y217000D01*
X204400D01*
X204900Y217500D01*
Y220500D02*Y217500D01*
X206600Y218500D02*X208100D01*
X206100Y219000D02*X206600Y218500D01*
X206100Y220000D02*Y219000D01*
Y220000D02*X206600Y220500D01*
X207600D01*
X208100Y220000D01*
X206100Y219500D02*X208100D01*
Y220000D02*Y219500D01*
X209800Y220000D02*Y218500D01*
Y220000D02*X210300Y220500D01*
X211300D01*
X209300D02*X209800Y220000D01*
X212500D02*Y219000D01*
Y220000D02*X213000Y220500D01*
X214000D01*
X214500Y220000D01*
Y219000D01*
X214000Y218500D02*X214500Y219000D01*
X213000Y218500D02*X214000D01*
X212500Y219000D02*X213000Y218500D01*
X215700Y220500D02*Y219000D01*
X216200Y218500D01*
X217200D01*
X217700Y219000D01*
Y220500D02*Y219000D01*
X219400Y218500D02*X220900D01*
X221400Y219000D01*
X220900Y219500D02*X221400Y219000D01*
X219400Y219500D02*X220900D01*
X218900Y220000D02*X219400Y219500D01*
X218900Y220000D02*X219400Y220500D01*
X220900D01*
X221400Y220000D01*
X218900Y219000D02*X219400Y218500D01*
X224900Y222500D02*Y218500D01*
X224400Y222500D02*X226400D01*
X226900Y222000D01*
Y221000D01*
X226400Y220500D02*X226900Y221000D01*
X224900Y220500D02*X226400D01*
X228600Y220000D02*Y218500D01*
Y220000D02*X229100Y220500D01*
X230100D01*
X228100D02*X228600Y220000D01*
X231300D02*Y219000D01*
Y220000D02*X231800Y220500D01*
X232800D01*
X233300Y220000D01*
Y219000D01*
X232800Y218500D02*X233300Y219000D01*
X231800Y218500D02*X232800D01*
X231300Y219000D02*X231800Y218500D01*
X235000Y222500D02*Y219000D01*
X235500Y218500D01*
X234500Y221000D02*X235500D01*
X236500Y220000D02*Y219000D01*
Y220000D02*X237000Y220500D01*
X238000D01*
X238500Y220000D01*
Y219000D01*
X238000Y218500D02*X238500Y219000D01*
X237000Y218500D02*X238000D01*
X236500Y219000D02*X237000Y218500D01*
X240200Y222500D02*Y219000D01*
X240700Y218500D01*
X239700Y221000D02*X240700D01*
X241700Y220500D02*Y219000D01*
X242200Y218500D01*
X243700Y220500D02*Y217500D01*
X243200Y217000D02*X243700Y217500D01*
X242200Y217000D02*X243200D01*
X241700Y217500D02*X242200Y217000D01*
Y218500D02*X243200D01*
X243700Y219000D01*
X245400Y220000D02*Y217000D01*
X244900Y220500D02*X245400Y220000D01*
X245900Y220500D01*
X246900D01*
X247400Y220000D01*
Y219000D01*
X246900Y218500D02*X247400Y219000D01*
X245900Y218500D02*X246900D01*
X245400Y219000D02*X245900Y218500D01*
X249100D02*X250600D01*
X248600Y219000D02*X249100Y218500D01*
X248600Y220000D02*Y219000D01*
Y220000D02*X249100Y220500D01*
X250100D01*
X250600Y220000D01*
X248600Y219500D02*X250600D01*
Y220000D02*Y219500D01*
X252300Y218500D02*X253800D01*
X254300Y219000D01*
X253800Y219500D02*X254300Y219000D01*
X252300Y219500D02*X253800D01*
X251800Y220000D02*X252300Y219500D01*
X251800Y220000D02*X252300Y220500D01*
X253800D01*
X254300Y220000D01*
X251800Y219000D02*X252300Y218500D01*
X257300D02*X259300D01*
X259800Y219000D01*
Y220200D02*Y219000D01*
X259300Y220700D02*X259800Y220200D01*
X257800Y220700D02*X259300D01*
X257800Y222500D02*Y218500D01*
X257300Y222500D02*X259300D01*
X259800Y222000D01*
Y221200D01*
X259300Y220700D02*X259800Y221200D01*
X261000Y220500D02*Y219000D01*
X261500Y218500D01*
X262500D01*
X263000Y219000D01*
Y220500D02*Y219000D01*
X264700Y218500D02*X266200D01*
X266700Y219000D01*
X266200Y219500D02*X266700Y219000D01*
X264700Y219500D02*X266200D01*
X264200Y220000D02*X264700Y219500D01*
X264200Y220000D02*X264700Y220500D01*
X266200D01*
X266700Y220000D01*
X264200Y219000D02*X264700Y218500D01*
X267900D02*X269900D01*
X270400Y219000D01*
Y220200D02*Y219000D01*
X269900Y220700D02*X270400Y220200D01*
X268400Y220700D02*X269900D01*
X268400Y222500D02*Y218500D01*
X267900Y222500D02*X269900D01*
X270400Y222000D01*
Y221200D01*
X269900Y220700D02*X270400Y221200D01*
X271600Y222500D02*Y219000D01*
X272100Y218500D01*
X274600Y220500D02*X275100Y220000D01*
X273600Y220500D02*X274600D01*
X273100Y220000D02*X273600Y220500D01*
X273100Y220000D02*Y219000D01*
X273600Y218500D01*
X275100Y220500D02*Y219000D01*
X275600Y218500D01*
X273600D02*X274600D01*
X275100Y219000D01*
X277300Y218500D02*X278800D01*
X279300Y219000D01*
X278800Y219500D02*X279300Y219000D01*
X277300Y219500D02*X278800D01*
X276800Y220000D02*X277300Y219500D01*
X276800Y220000D02*X277300Y220500D01*
X278800D01*
X279300Y220000D01*
X276800Y219000D02*X277300Y218500D01*
X281000Y222500D02*Y219000D01*
X281500Y218500D01*
X280500Y221000D02*X281500D01*
X283000Y218500D02*X284500D01*
X282500Y219000D02*X283000Y218500D01*
X282500Y220000D02*Y219000D01*
Y220000D02*X283000Y220500D01*
X284000D01*
X284500Y220000D01*
X282500Y219500D02*X284500D01*
Y220000D02*Y219500D01*
X286200Y220000D02*Y218500D01*
Y220000D02*X286700Y220500D01*
X287700D01*
X285700D02*X286200Y220000D01*
X290700Y222500D02*X291700Y218500D01*
X292700Y222500D01*
X293900Y220000D02*X295900Y222500D01*
X293900Y220000D02*X296400D01*
X295900Y222500D02*Y218500D01*
X169200Y232500D02*X170500D01*
X168500Y233200D02*X169200Y232500D01*
X168500Y235800D02*Y233200D01*
Y235800D02*X169200Y236500D01*
X170500D01*
X171700Y236000D02*Y233000D01*
Y236000D02*X172200Y236500D01*
X173200D01*
X173700Y236000D01*
Y233000D01*
X173200Y232500D02*X173700Y233000D01*
X172200Y232500D02*X173200D01*
X171700Y233000D02*X172200Y232500D01*
X174900Y236500D02*Y232500D01*
Y236500D02*X177400Y232500D01*
Y236500D02*Y232500D01*
X178600Y236500D02*Y232500D01*
Y236500D02*X181100Y232500D01*
Y236500D02*Y232500D01*
X182300Y235700D02*X183100Y236500D01*
Y232500D01*
X182300D02*X183800D01*
X186800Y234500D02*X188800D01*
X192300Y236500D02*Y232500D01*
X193600Y236500D02*X194300Y235800D01*
Y233200D01*
X193600Y232500D02*X194300Y233200D01*
X191800Y232500D02*X193600D01*
X191800Y236500D02*X193600D01*
X195500Y235500D02*Y235400D01*
Y234000D02*Y232500D01*
X198000Y234500D02*X198500Y234000D01*
X197000Y234500D02*X198000D01*
X196500Y234000D02*X197000Y234500D01*
X196500Y234000D02*Y233000D01*
X197000Y232500D01*
X198000D01*
X198500Y233000D01*
X196500Y231500D02*X197000Y231000D01*
X198000D01*
X198500Y231500D01*
Y234500D02*Y231500D01*
X199700Y235500D02*Y235400D01*
Y234000D02*Y232500D01*
X200700Y236500D02*Y233000D01*
X201200Y232500D01*
X202700D02*X204200D01*
X202200Y233000D02*X202700Y232500D01*
X202200Y234000D02*Y233000D01*
Y234000D02*X202700Y234500D01*
X203700D01*
X204200Y234000D01*
X202200Y233500D02*X204200D01*
Y234000D02*Y233500D01*
X205900Y234000D02*Y232500D01*
Y234000D02*X206400Y234500D01*
X206900D01*
X207400Y234000D01*
Y232500D01*
X205400Y234500D02*X205900Y234000D01*
X209100Y236500D02*Y233000D01*
X209600Y232500D01*
X208600Y235000D02*X209600D01*
X212900Y236500D02*Y232500D01*
X212400Y236500D02*X214400D01*
X214900Y236000D01*
Y235000D01*
X214400Y234500D02*X214900Y235000D01*
X212900Y234500D02*X214400D01*
X217600D02*X218100Y234000D01*
X216600Y234500D02*X217600D01*
X216100Y234000D02*X216600Y234500D01*
X216100Y234000D02*Y233000D01*
X216600Y232500D01*
X218100Y234500D02*Y233000D01*
X218600Y232500D01*
X216600D02*X217600D01*
X218100Y233000D01*
X220300Y234000D02*Y232500D01*
Y234000D02*X220800Y234500D01*
X221800D01*
X219800D02*X220300Y234000D01*
X224500Y234500D02*X225000Y234000D01*
X223500Y234500D02*X224500D01*
X223000Y234000D02*X223500Y234500D01*
X223000Y234000D02*Y233000D01*
X223500Y232500D01*
X225000Y234500D02*Y233000D01*
X225500Y232500D01*
X223500D02*X224500D01*
X225000Y233000D01*
X226700Y236500D02*Y233000D01*
X227200Y232500D01*
X228200Y236500D02*Y233000D01*
X228700Y232500D01*
X230200D02*X231700D01*
X229700Y233000D02*X230200Y232500D01*
X229700Y234000D02*Y233000D01*
Y234000D02*X230200Y234500D01*
X231200D01*
X231700Y234000D01*
X229700Y233500D02*X231700D01*
Y234000D02*Y233500D01*
X232900Y236500D02*Y233000D01*
X233400Y232500D01*
X236700Y236500D02*Y232500D01*
X238000Y236500D02*X238700Y235800D01*
Y233200D01*
X238000Y232500D02*X238700Y233200D01*
X236200Y232500D02*X238000D01*
X236200Y236500D02*X238000D01*
X239900Y234000D02*Y233000D01*
Y234000D02*X240400Y234500D01*
X241400D01*
X241900Y234000D01*
Y233000D01*
X241400Y232500D02*X241900Y233000D01*
X240400Y232500D02*X241400D01*
X239900Y233000D02*X240400Y232500D01*
X243600Y234000D02*Y232500D01*
Y234000D02*X244100Y234500D01*
X244600D01*
X245100Y234000D01*
Y232500D01*
X243100Y234500D02*X243600Y234000D01*
X247800Y234500D02*X248300Y234000D01*
X246800Y234500D02*X247800D01*
X246300Y234000D02*X246800Y234500D01*
X246300Y234000D02*Y233000D01*
X246800Y232500D01*
X247800D01*
X248300Y233000D01*
X246300Y231500D02*X246800Y231000D01*
X247800D01*
X248300Y231500D01*
Y234500D02*Y231500D01*
X249500Y236500D02*Y233000D01*
X250000Y232500D01*
X251500D02*X253000D01*
X251000Y233000D02*X251500Y232500D01*
X251000Y234000D02*Y233000D01*
Y234000D02*X251500Y234500D01*
X252500D01*
X253000Y234000D01*
X251000Y233500D02*X253000D01*
Y234000D02*Y233500D01*
X169200Y225500D02*X170500D01*
X168500Y226200D02*X169200Y225500D01*
X168500Y228800D02*Y226200D01*
Y228800D02*X169200Y229500D01*
X170500D01*
X171700Y229000D02*Y226000D01*
Y229000D02*X172200Y229500D01*
X173200D01*
X173700Y229000D01*
Y226000D01*
X173200Y225500D02*X173700Y226000D01*
X172200Y225500D02*X173200D01*
X171700Y226000D02*X172200Y225500D01*
X174900Y229500D02*Y225500D01*
Y229500D02*X177400Y225500D01*
Y229500D02*Y225500D01*
X178600Y229500D02*Y225500D01*
Y229500D02*X181100Y225500D01*
Y229500D02*Y225500D01*
X182300Y229000D02*X182800Y229500D01*
X184300D01*
X184800Y229000D01*
Y228000D01*
X182300Y225500D02*X184800Y228000D01*
X182300Y225500D02*X184800D01*
X187800Y227500D02*X189800D01*
X192800Y225500D02*X195300Y229500D01*
X192800D02*X195300Y225500D01*
X196500Y228500D02*Y228400D01*
Y227000D02*Y225500D01*
X197500Y229500D02*Y226000D01*
X198000Y225500D01*
X199000Y228500D02*Y228400D01*
Y227000D02*Y225500D01*
X200500Y227000D02*Y225500D01*
Y227000D02*X201000Y227500D01*
X201500D01*
X202000Y227000D01*
Y225500D01*
X200000Y227500D02*X200500Y227000D01*
X203200Y227500D02*X205200Y225500D01*
X203200D02*X205200Y227500D01*
X208900Y229500D02*X209700D01*
Y226000D01*
X209200Y225500D02*X209700Y226000D01*
X208700Y225500D02*X209200D01*
X208200Y226000D02*X208700Y225500D01*
X208200Y226500D02*Y226000D01*
X210900Y229500D02*X212900D01*
X211900D02*Y225500D01*
X214100Y228500D02*Y225500D01*
Y228500D02*X214800Y229500D01*
X215900D01*
X216600Y228500D01*
Y225500D01*
X214100Y227500D02*X216600D01*
X219800Y229500D02*X220300Y229000D01*
X218300Y229500D02*X219800D01*
X217800Y229000D02*X218300Y229500D01*
X217800Y229000D02*Y226000D01*
X218300Y225500D01*
X219800D01*
X220300Y226000D01*
Y227000D02*Y226000D01*
X219800Y227500D02*X220300Y227000D01*
X218800Y227500D02*X219800D01*
X223300Y229500D02*Y226000D01*
X223800Y225500D01*
X224800D01*
X225300Y226000D01*
Y229500D02*Y226000D01*
X228500Y229500D02*X229000Y229000D01*
X227000Y229500D02*X228500D01*
X226500Y229000D02*X227000Y229500D01*
X226500Y229000D02*Y228000D01*
X227000Y227500D01*
X228500D01*
X229000Y227000D01*
Y226000D01*
X228500Y225500D02*X229000Y226000D01*
X227000Y225500D02*X228500D01*
X226500Y226000D02*X227000Y225500D01*
X230200D02*X232200D01*
X232700Y226000D01*
Y227200D02*Y226000D01*
X232200Y227700D02*X232700Y227200D01*
X230700Y227700D02*X232200D01*
X230700Y229500D02*Y225500D01*
X230200Y229500D02*X232200D01*
X232700Y229000D01*
Y228200D01*
X232200Y227700D02*X232700Y228200D01*
X236200Y229500D02*Y225500D01*
X237500Y229500D02*X238200Y228800D01*
Y226200D01*
X237500Y225500D02*X238200Y226200D01*
X235700Y225500D02*X237500D01*
X235700Y229500D02*X237500D01*
X239400Y227000D02*Y226000D01*
Y227000D02*X239900Y227500D01*
X240900D01*
X241400Y227000D01*
Y226000D01*
X240900Y225500D02*X241400Y226000D01*
X239900Y225500D02*X240900D01*
X239400Y226000D02*X239900Y225500D01*
X243100Y227000D02*Y225500D01*
Y227000D02*X243600Y227500D01*
X244100D01*
X244600Y227000D01*
Y225500D01*
X242600Y227500D02*X243100Y227000D01*
X247300Y227500D02*X247800Y227000D01*
X246300Y227500D02*X247300D01*
X245800Y227000D02*X246300Y227500D01*
X245800Y227000D02*Y226000D01*
X246300Y225500D01*
X247300D01*
X247800Y226000D01*
X245800Y224500D02*X246300Y224000D01*
X247300D01*
X247800Y224500D01*
Y227500D02*Y224500D01*
X249000Y229500D02*Y226000D01*
X249500Y225500D01*
X251000D02*X252500D01*
X250500Y226000D02*X251000Y225500D01*
X250500Y227000D02*Y226000D01*
Y227000D02*X251000Y227500D01*
X252000D01*
X252500Y227000D01*
X250500Y226500D02*X252500D01*
Y227000D02*Y226500D01*
X137480Y360520D02*X138480D01*
X137980D02*Y356520D01*
X137480D02*X138480D01*
X140180Y358020D02*Y356520D01*
Y358020D02*X140680Y358520D01*
X141180D01*
X141680Y358020D01*
Y356520D01*
Y358020D02*X142180Y358520D01*
X142680D01*
X143180Y358020D01*
Y356520D01*
X139680Y358520D02*X140180Y358020D01*
X144880D02*Y355020D01*
X144380Y358520D02*X144880Y358020D01*
X145380Y358520D01*
X146380D01*
X146880Y358020D01*
Y357020D01*
X146380Y356520D02*X146880Y357020D01*
X145380Y356520D02*X146380D01*
X144880Y357020D02*X145380Y356520D01*
X148080Y360520D02*Y357020D01*
X148580Y356520D01*
X151080Y358520D02*X151580Y358020D01*
X150080Y358520D02*X151080D01*
X149580Y358020D02*X150080Y358520D01*
X149580Y358020D02*Y357020D01*
X150080Y356520D01*
X151580Y358520D02*Y357020D01*
X152080Y356520D01*
X150080D02*X151080D01*
X151580Y357020D01*
X153780Y358020D02*Y356520D01*
Y358020D02*X154280Y358520D01*
X154780D01*
X155280Y358020D01*
Y356520D01*
X153280Y358520D02*X153780Y358020D01*
X156980Y360520D02*Y357020D01*
X157480Y356520D01*
X156480Y359020D02*X157480D01*
X160780Y360520D02*Y356520D01*
X160280Y360520D02*X162280D01*
X162780Y360020D01*
Y359020D01*
X162280Y358520D02*X162780Y359020D01*
X160780Y358520D02*X162280D01*
X164480Y358020D02*Y356520D01*
Y358020D02*X164980Y358520D01*
X165980D01*
X163980D02*X164480Y358020D01*
X167180D02*Y357020D01*
Y358020D02*X167680Y358520D01*
X168680D01*
X169180Y358020D01*
Y357020D01*
X168680Y356520D02*X169180Y357020D01*
X167680Y356520D02*X168680D01*
X167180Y357020D02*X167680Y356520D01*
X170880Y358520D02*X172380D01*
X170380Y358020D02*X170880Y358520D01*
X170380Y358020D02*Y357020D01*
X170880Y356520D01*
X172380D01*
X174080D02*X175580D01*
X173580Y357020D02*X174080Y356520D01*
X173580Y358020D02*Y357020D01*
Y358020D02*X174080Y358520D01*
X175080D01*
X175580Y358020D01*
X173580Y357520D02*X175580D01*
Y358020D02*Y357520D01*
X177280Y356520D02*X178780D01*
X179280Y357020D01*
X178780Y357520D02*X179280Y357020D01*
X177280Y357520D02*X178780D01*
X176780Y358020D02*X177280Y357520D01*
X176780Y358020D02*X177280Y358520D01*
X178780D01*
X179280Y358020D01*
X176780Y357020D02*X177280Y356520D01*
X180980D02*X182480D01*
X182980Y357020D01*
X182480Y357520D02*X182980Y357020D01*
X180980Y357520D02*X182480D01*
X180480Y358020D02*X180980Y357520D01*
X180480Y358020D02*X180980Y358520D01*
X182480D01*
X182980Y358020D01*
X180480Y357020D02*X180980Y356520D01*
X184180Y358020D02*Y357020D01*
Y358020D02*X184680Y358520D01*
X185680D01*
X186180Y358020D01*
Y357020D01*
X185680Y356520D02*X186180Y357020D01*
X184680Y356520D02*X185680D01*
X184180Y357020D02*X184680Y356520D01*
X187880Y358020D02*Y356520D01*
Y358020D02*X188380Y358520D01*
X189380D01*
X187380D02*X187880Y358020D01*
X192880Y360520D02*Y356520D01*
X194180Y360520D02*X194880Y359820D01*
Y357220D01*
X194180Y356520D02*X194880Y357220D01*
X192380Y356520D02*X194180D01*
X192380Y360520D02*X194180D01*
X198080D02*X198580Y360020D01*
X196580Y360520D02*X198080D01*
X196080Y360020D02*X196580Y360520D01*
X196080Y360020D02*Y359020D01*
X196580Y358520D01*
X198080D01*
X198580Y358020D01*
Y357020D01*
X198080Y356520D02*X198580Y357020D01*
X196580Y356520D02*X198080D01*
X196080Y357020D02*X196580Y356520D01*
X200280Y360520D02*Y356520D01*
X199780Y360520D02*X201780D01*
X202280Y360020D01*
Y359020D01*
X201780Y358520D02*X202280Y359020D01*
X200280Y358520D02*X201780D01*
X205780Y360520D02*Y356520D01*
X207080Y360520D02*X207780Y359820D01*
Y357220D01*
X207080Y356520D02*X207780Y357220D01*
X205280Y356520D02*X207080D01*
X205280Y360520D02*X207080D01*
X209480Y356520D02*X210980D01*
X208980Y357020D02*X209480Y356520D01*
X208980Y358020D02*Y357020D01*
Y358020D02*X209480Y358520D01*
X210480D01*
X210980Y358020D01*
X208980Y357520D02*X210980D01*
Y358020D02*Y357520D01*
X212180Y360520D02*Y356520D01*
Y357020D02*X212680Y356520D01*
X213680D01*
X214180Y357020D01*
Y358020D02*Y357020D01*
X213680Y358520D02*X214180Y358020D01*
X212680Y358520D02*X213680D01*
X212180Y358020D02*X212680Y358520D01*
X215380D02*Y357020D01*
X215880Y356520D01*
X216880D01*
X217380Y357020D01*
Y358520D02*Y357020D01*
X220080Y358520D02*X220580Y358020D01*
X219080Y358520D02*X220080D01*
X218580Y358020D02*X219080Y358520D01*
X218580Y358020D02*Y357020D01*
X219080Y356520D01*
X220080D01*
X220580Y357020D01*
X218580Y355520D02*X219080Y355020D01*
X220080D01*
X220580Y355520D01*
Y358520D02*Y355520D01*
X223580Y359520D02*Y356520D01*
Y359520D02*X224280Y360520D01*
X225380D01*
X226080Y359520D01*
Y356520D01*
X223580Y358520D02*X226080D01*
X229280Y360520D02*Y356520D01*
X228780D02*X229280Y357020D01*
X227780Y356520D02*X228780D01*
X227280Y357020D02*X227780Y356520D01*
X227280Y358020D02*Y357020D01*
Y358020D02*X227780Y358520D01*
X228780D01*
X229280Y358020D01*
X231980Y358520D02*X232480Y358020D01*
X230980Y358520D02*X231980D01*
X230480Y358020D02*X230980Y358520D01*
X230480Y358020D02*Y357020D01*
X230980Y356520D01*
X232480Y358520D02*Y357020D01*
X232980Y356520D01*
X230980D02*X231980D01*
X232480Y357020D01*
X234680Y358020D02*Y355020D01*
X234180Y358520D02*X234680Y358020D01*
X235180Y358520D01*
X236180D01*
X236680Y358020D01*
Y357020D01*
X236180Y356520D02*X236680Y357020D01*
X235180Y356520D02*X236180D01*
X234680Y357020D02*X235180Y356520D01*
X238380Y360520D02*Y357020D01*
X238880Y356520D01*
X237880Y359020D02*X238880D01*
X240380Y356520D02*X241880D01*
X239880Y357020D02*X240380Y356520D01*
X239880Y358020D02*Y357020D01*
Y358020D02*X240380Y358520D01*
X241380D01*
X241880Y358020D01*
X239880Y357520D02*X241880D01*
Y358020D02*Y357520D01*
X243580Y358020D02*Y356520D01*
Y358020D02*X244080Y358520D01*
X245080D01*
X243080D02*X243580Y358020D01*
X137480Y344720D02*X138980D01*
X137480Y342520D02*X139480D01*
X137480Y346520D02*Y342520D01*
Y346520D02*X139480D01*
X142180Y344520D02*X142680Y344020D01*
X141180Y344520D02*X142180D01*
X140680Y344020D02*X141180Y344520D01*
X140680Y344020D02*Y343020D01*
X141180Y342520D01*
X142680Y344520D02*Y343020D01*
X143180Y342520D01*
X141180D02*X142180D01*
X142680Y343020D01*
X144880Y346520D02*Y343020D01*
X145380Y342520D01*
X144380Y345020D02*X145380D01*
X146380Y344020D02*Y343020D01*
Y344020D02*X146880Y344520D01*
X147880D01*
X148380Y344020D01*
Y343020D01*
X147880Y342520D02*X148380Y343020D01*
X146880Y342520D02*X147880D01*
X146380Y343020D02*X146880Y342520D01*
X150080Y344020D02*Y342520D01*
Y344020D02*X150580Y344520D01*
X151080D01*
X151580Y344020D01*
Y342520D01*
X149580Y344520D02*X150080Y344020D01*
X155080Y346520D02*Y342520D01*
X154580Y346520D02*X156580D01*
X157080Y346020D01*
Y345020D01*
X156580Y344520D02*X157080Y345020D01*
X155080Y344520D02*X156580D01*
X158780Y342520D02*X160280D01*
X158280Y343020D02*X158780Y342520D01*
X158280Y344020D02*Y343020D01*
Y344020D02*X158780Y344520D01*
X159780D01*
X160280Y344020D01*
X158280Y343520D02*X160280D01*
Y344020D02*Y343520D01*
X162980Y344520D02*X163480Y344020D01*
X161980Y344520D02*X162980D01*
X161480Y344020D02*X161980Y344520D01*
X161480Y344020D02*Y343020D01*
X161980Y342520D01*
X163480Y344520D02*Y343020D01*
X163980Y342520D01*
X161980D02*X162980D01*
X163480Y343020D01*
X165180Y346520D02*Y342520D01*
Y343020D02*X165680Y342520D01*
X166680D01*
X167180Y343020D01*
Y344020D02*Y343020D01*
X166680Y344520D02*X167180Y344020D01*
X165680Y344520D02*X166680D01*
X165180Y344020D02*X165680Y344520D01*
X168380Y344020D02*Y343020D01*
Y344020D02*X168880Y344520D01*
X169880D01*
X170380Y344020D01*
Y343020D01*
X169880Y342520D02*X170380Y343020D01*
X168880Y342520D02*X169880D01*
X168380Y343020D02*X168880Y342520D01*
X173580Y346520D02*Y342520D01*
X173080D02*X173580Y343020D01*
X172080Y342520D02*X173080D01*
X171580Y343020D02*X172080Y342520D01*
X171580Y344020D02*Y343020D01*
Y344020D02*X172080Y344520D01*
X173080D01*
X173580Y344020D01*
X174780Y344520D02*Y343020D01*
X175280Y342520D01*
X176780Y344520D02*Y341520D01*
X176280Y341020D02*X176780Y341520D01*
X175280Y341020D02*X176280D01*
X174780Y341520D02*X175280Y341020D01*
Y342520D02*X176280D01*
X176780Y343020D01*
X179780Y346520D02*Y342520D01*
X181780D01*
X184480Y344520D02*X184980Y344020D01*
X183480Y344520D02*X184480D01*
X182980Y344020D02*X183480Y344520D01*
X182980Y344020D02*Y343020D01*
X183480Y342520D01*
X184980Y344520D02*Y343020D01*
X185480Y342520D01*
X183480D02*X184480D01*
X184980Y343020D01*
X186680Y346520D02*Y342520D01*
Y343020D02*X187180Y342520D01*
X188180D01*
X188680Y343020D01*
Y344020D02*Y343020D01*
X188180Y344520D02*X188680Y344020D01*
X187180Y344520D02*X188180D01*
X186680Y344020D02*X187180Y344520D01*
X137480Y351720D02*X138980D01*
X137480Y349520D02*X139480D01*
X137480Y353520D02*Y349520D01*
Y353520D02*X139480D01*
X140680Y351520D02*X141680Y349520D01*
X142680Y351520D02*X141680Y349520D01*
X145380Y351520D02*X145880Y351020D01*
X144380Y351520D02*X145380D01*
X143880Y351020D02*X144380Y351520D01*
X143880Y351020D02*Y350020D01*
X144380Y349520D01*
X145880Y351520D02*Y350020D01*
X146380Y349520D01*
X144380D02*X145380D01*
X145880Y350020D01*
X148080Y351020D02*Y349520D01*
Y351020D02*X148580Y351520D01*
X149080D01*
X149580Y351020D01*
Y349520D01*
X147580Y351520D02*X148080Y351020D01*
X152580Y353520D02*Y349520D01*
Y353520D02*X154580D01*
X152580Y351720D02*X154080D01*
X155780Y351020D02*Y350020D01*
Y351020D02*X156280Y351520D01*
X157280D01*
X157780Y351020D01*
Y350020D01*
X157280Y349520D02*X157780Y350020D01*
X156280Y349520D02*X157280D01*
X155780Y350020D02*X156280Y349520D01*
X159480D02*X160980D01*
X161480Y350020D01*
X160980Y350520D02*X161480Y350020D01*
X159480Y350520D02*X160980D01*
X158980Y351020D02*X159480Y350520D01*
X158980Y351020D02*X159480Y351520D01*
X160980D01*
X161480Y351020D01*
X158980Y350020D02*X159480Y349520D01*
X163180D02*X164680D01*
X165180Y350020D01*
X164680Y350520D02*X165180Y350020D01*
X163180Y350520D02*X164680D01*
X162680Y351020D02*X163180Y350520D01*
X162680Y351020D02*X163180Y351520D01*
X164680D01*
X165180Y351020D01*
X162680Y350020D02*X163180Y349520D01*
X137480Y339020D02*X137980Y339520D01*
X139480D01*
X139980Y339020D01*
Y338020D01*
X137480Y335520D02*X139980Y338020D01*
X137480Y335520D02*X139980D01*
X141180Y336020D02*X141680Y335520D01*
X141180Y339020D02*Y336020D01*
Y339020D02*X141680Y339520D01*
X142680D01*
X143180Y339020D01*
Y336020D01*
X142680Y335520D02*X143180Y336020D01*
X141680Y335520D02*X142680D01*
X141180Y336520D02*X143180Y338520D01*
X144380Y338720D02*X145180Y339520D01*
Y335520D01*
X144380D02*X145880D01*
X147080Y337020D02*X149080Y339520D01*
X147080Y337020D02*X149580D01*
X149080Y339520D02*Y335520D01*
X150780D02*X151280D01*
X152480Y336020D02*X152980Y335520D01*
X152480Y339020D02*Y336020D01*
Y339020D02*X152980Y339520D01*
X153980D01*
X154480Y339020D01*
Y336020D01*
X153980Y335520D02*X154480Y336020D01*
X152980Y335520D02*X153980D01*
X152480Y336520D02*X154480Y338520D01*
X155680Y336020D02*X156180Y335520D01*
X155680Y336820D02*Y336020D01*
Y336820D02*X156380Y337520D01*
X156980D01*
X157680Y336820D01*
Y336020D01*
X157180Y335520D02*X157680Y336020D01*
X156180Y335520D02*X157180D01*
X155680Y338220D02*X156380Y337520D01*
X155680Y339020D02*Y338220D01*
Y339020D02*X156180Y339520D01*
X157180D01*
X157680Y339020D01*
Y338220D01*
X156980Y337520D02*X157680Y338220D01*
X158880Y335520D02*X159380D01*
X160580Y339020D02*X161080Y339520D01*
X162580D01*
X163080Y339020D01*
Y338020D01*
X160580Y335520D02*X163080Y338020D01*
X160580Y335520D02*X163080D01*
X164280Y339520D02*X166280D01*
X164280D02*Y337520D01*
X164780Y338020D01*
X165780D01*
X166280Y337520D01*
Y336020D01*
X165780Y335520D02*X166280Y336020D01*
X164780Y335520D02*X165780D01*
X164280Y336020D02*X164780Y335520D01*
X169200Y211500D02*X170500D01*
X168500Y212200D02*X169200Y211500D01*
X168500Y214800D02*Y212200D01*
Y214800D02*X169200Y215500D01*
X170500D01*
X171700Y215000D02*Y212000D01*
Y215000D02*X172200Y215500D01*
X173200D01*
X173700Y215000D01*
Y212000D01*
X173200Y211500D02*X173700Y212000D01*
X172200Y211500D02*X173200D01*
X171700Y212000D02*X172200Y211500D01*
X174900Y215500D02*Y211500D01*
Y215500D02*X177400Y211500D01*
Y215500D02*Y211500D01*
X178600Y215500D02*Y211500D01*
Y215500D02*X181100Y211500D01*
Y215500D02*Y211500D01*
X182300Y213000D02*X184300Y215500D01*
X182300Y213000D02*X184800D01*
X184300Y215500D02*Y211500D01*
X187800Y213500D02*X189800D01*
X192800Y215500D02*X194800D01*
X193800D02*Y211500D01*
X196000Y213000D02*Y212000D01*
Y213000D02*X196500Y213500D01*
X197500D01*
X198000Y213000D01*
Y212000D01*
X197500Y211500D02*X198000Y212000D01*
X196500Y211500D02*X197500D01*
X196000Y212000D02*X196500Y211500D01*
X201000Y215500D02*X202000D01*
X201500D02*Y211500D01*
X201000D02*X202000D01*
X203700Y213000D02*Y211500D01*
Y213000D02*X204200Y213500D01*
X204700D01*
X205200Y213000D01*
Y211500D01*
Y213000D02*X205700Y213500D01*
X206200D01*
X206700Y213000D01*
Y211500D01*
X203200Y213500D02*X203700Y213000D01*
X208400D02*Y210000D01*
X207900Y213500D02*X208400Y213000D01*
X208900Y213500D01*
X209900D01*
X210400Y213000D01*
Y212000D01*
X209900Y211500D02*X210400Y212000D01*
X208900Y211500D02*X209900D01*
X208400Y212000D02*X208900Y211500D01*
X211600Y215500D02*Y212000D01*
X212100Y211500D01*
X214600Y213500D02*X215100Y213000D01*
X213600Y213500D02*X214600D01*
X213100Y213000D02*X213600Y213500D01*
X213100Y213000D02*Y212000D01*
X213600Y211500D01*
X215100Y213500D02*Y212000D01*
X215600Y211500D01*
X213600D02*X214600D01*
X215100Y212000D01*
X217300Y213000D02*Y211500D01*
Y213000D02*X217800Y213500D01*
X218300D01*
X218800Y213000D01*
Y211500D01*
X216800Y213500D02*X217300Y213000D01*
X220500Y215500D02*Y212000D01*
X221000Y211500D01*
X220000Y214000D02*X221000D01*
X224300Y215500D02*Y211500D01*
X223800Y215500D02*X225800D01*
X226300Y215000D01*
Y214000D01*
X225800Y213500D02*X226300Y214000D01*
X224300Y213500D02*X225800D01*
X228000Y213000D02*Y211500D01*
Y213000D02*X228500Y213500D01*
X229500D01*
X227500D02*X228000Y213000D01*
X230700D02*Y212000D01*
Y213000D02*X231200Y213500D01*
X232200D01*
X232700Y213000D01*
Y212000D01*
X232200Y211500D02*X232700Y212000D01*
X231200Y211500D02*X232200D01*
X230700Y212000D02*X231200Y211500D01*
X234400Y213500D02*X235900D01*
X233900Y213000D02*X234400Y213500D01*
X233900Y213000D02*Y212000D01*
X234400Y211500D01*
X235900D01*
X237600D02*X239100D01*
X237100Y212000D02*X237600Y211500D01*
X237100Y213000D02*Y212000D01*
Y213000D02*X237600Y213500D01*
X238600D01*
X239100Y213000D01*
X237100Y212500D02*X239100D01*
Y213000D02*Y212500D01*
X240800Y211500D02*X242300D01*
X242800Y212000D01*
X242300Y212500D02*X242800Y212000D01*
X240800Y212500D02*X242300D01*
X240300Y213000D02*X240800Y212500D01*
X240300Y213000D02*X240800Y213500D01*
X242300D01*
X242800Y213000D01*
X240300Y212000D02*X240800Y211500D01*
X244500D02*X246000D01*
X246500Y212000D01*
X246000Y212500D02*X246500Y212000D01*
X244500Y212500D02*X246000D01*
X244000Y213000D02*X244500Y212500D01*
X244000Y213000D02*X244500Y213500D01*
X246000D01*
X246500Y213000D01*
X244000Y212000D02*X244500Y211500D01*
X247700Y213000D02*Y212000D01*
Y213000D02*X248200Y213500D01*
X249200D01*
X249700Y213000D01*
Y212000D01*
X249200Y211500D02*X249700Y212000D01*
X248200Y211500D02*X249200D01*
X247700Y212000D02*X248200Y211500D01*
X251400Y213000D02*Y211500D01*
Y213000D02*X251900Y213500D01*
X252900D01*
X250900D02*X251400Y213000D01*
X256400Y215500D02*Y211500D01*
X257700Y215500D02*X258400Y214800D01*
Y212200D01*
X257700Y211500D02*X258400Y212200D01*
X255900Y211500D02*X257700D01*
X255900Y215500D02*X257700D01*
X261600D02*X262100Y215000D01*
X260100Y215500D02*X261600D01*
X259600Y215000D02*X260100Y215500D01*
X259600Y215000D02*Y214000D01*
X260100Y213500D01*
X261600D01*
X262100Y213000D01*
Y212000D01*
X261600Y211500D02*X262100Y212000D01*
X260100Y211500D02*X261600D01*
X259600Y212000D02*X260100Y211500D01*
X263800Y215500D02*Y211500D01*
X263300Y215500D02*X265300D01*
X265800Y215000D01*
Y214000D01*
X265300Y213500D02*X265800Y214000D01*
X263800Y213500D02*X265300D01*
X169200Y204500D02*X170500D01*
X168500Y205200D02*X169200Y204500D01*
X168500Y207800D02*Y205200D01*
Y207800D02*X169200Y208500D01*
X170500D01*
X171700Y208000D02*Y205000D01*
Y208000D02*X172200Y208500D01*
X173200D01*
X173700Y208000D01*
Y205000D01*
X173200Y204500D02*X173700Y205000D01*
X172200Y204500D02*X173200D01*
X171700Y205000D02*X172200Y204500D01*
X174900Y208500D02*Y204500D01*
Y208500D02*X177400Y204500D01*
Y208500D02*Y204500D01*
X178600Y208500D02*Y204500D01*
Y208500D02*X181100Y204500D01*
Y208500D02*Y204500D01*
X182300Y208500D02*X184300D01*
X182300D02*Y206500D01*
X182800Y207000D01*
X183800D01*
X184300Y206500D01*
Y205000D01*
X183800Y204500D02*X184300Y205000D01*
X182800Y204500D02*X183800D01*
X182300Y205000D02*X182800Y204500D01*
X187300Y206500D02*X189300D01*
X192300Y207500D02*Y204500D01*
Y207500D02*X193000Y208500D01*
X194100D01*
X194800Y207500D01*
Y204500D01*
X192300Y206500D02*X194800D01*
X196000Y208500D02*X198000D01*
X198500Y208000D01*
Y207000D01*
X198000Y206500D02*X198500Y207000D01*
X196500Y206500D02*X198000D01*
X196500Y208500D02*Y204500D01*
X197300Y206500D02*X198500Y204500D01*
X199700Y208500D02*Y204500D01*
Y208500D02*X201200Y206500D01*
X202700Y208500D01*
Y204500D01*
X205700Y208500D02*X207700D01*
X206700D02*Y204500D01*
X208900Y208500D02*X210900D01*
X211400Y208000D01*
Y207000D01*
X210900Y206500D02*X211400Y207000D01*
X209400Y206500D02*X210900D01*
X209400Y208500D02*Y204500D01*
X210200Y206500D02*X211400Y204500D01*
X212600Y207500D02*Y204500D01*
Y207500D02*X213300Y208500D01*
X214400D01*
X215100Y207500D01*
Y204500D01*
X212600Y206500D02*X215100D01*
X217000Y204500D02*X218300D01*
X216300Y205200D02*X217000Y204500D01*
X216300Y207800D02*Y205200D01*
Y207800D02*X217000Y208500D01*
X218300D01*
X219500Y206700D02*X221000D01*
X219500Y204500D02*X221500D01*
X219500Y208500D02*Y204500D01*
Y208500D02*X221500D01*
X225000D02*Y204500D01*
X224500Y208500D02*X226500D01*
X227000Y208000D01*
Y207000D01*
X226500Y206500D02*X227000Y207000D01*
X225000Y206500D02*X226500D01*
X228200Y206000D02*Y205000D01*
Y206000D02*X228700Y206500D01*
X229700D01*
X230200Y206000D01*
Y205000D01*
X229700Y204500D02*X230200Y205000D01*
X228700Y204500D02*X229700D01*
X228200Y205000D02*X228700Y204500D01*
X231900Y206000D02*Y204500D01*
Y206000D02*X232400Y206500D01*
X233400D01*
X231400D02*X231900Y206000D01*
X235100Y208500D02*Y205000D01*
X235600Y204500D01*
X234600Y207000D02*X235600D01*
X169200Y239500D02*X170500D01*
X168500Y240200D02*X169200Y239500D01*
X168500Y242800D02*Y240200D01*
Y242800D02*X169200Y243500D01*
X170500D01*
X171700Y241000D02*Y240000D01*
Y241000D02*X172200Y241500D01*
X173200D01*
X173700Y241000D01*
Y240000D01*
X173200Y239500D02*X173700Y240000D01*
X172200Y239500D02*X173200D01*
X171700Y240000D02*X172200Y239500D01*
X175400Y241000D02*Y239500D01*
Y241000D02*X175900Y241500D01*
X176400D01*
X176900Y241000D01*
Y239500D01*
X174900Y241500D02*X175400Y241000D01*
X178600D02*Y239500D01*
Y241000D02*X179100Y241500D01*
X179600D01*
X180100Y241000D01*
Y239500D01*
X178100Y241500D02*X178600Y241000D01*
X181800Y239500D02*X183300D01*
X181300Y240000D02*X181800Y239500D01*
X181300Y241000D02*Y240000D01*
Y241000D02*X181800Y241500D01*
X182800D01*
X183300Y241000D01*
X181300Y240500D02*X183300D01*
Y241000D02*Y240500D01*
X185000Y241500D02*X186500D01*
X184500Y241000D02*X185000Y241500D01*
X184500Y241000D02*Y240000D01*
X185000Y239500D01*
X186500D01*
X188200Y243500D02*Y240000D01*
X188700Y239500D01*
X187700Y242000D02*X188700D01*
X189700Y241000D02*Y240000D01*
Y241000D02*X190200Y241500D01*
X191200D01*
X191700Y241000D01*
Y240000D01*
X191200Y239500D02*X191700Y240000D01*
X190200Y239500D02*X191200D01*
X189700Y240000D02*X190200Y239500D01*
X193400Y241000D02*Y239500D01*
Y241000D02*X193900Y241500D01*
X194900D01*
X192900D02*X193400Y241000D01*
X198400Y243500D02*Y239500D01*
X199700Y243500D02*X200400Y242800D01*
Y240200D01*
X199700Y239500D02*X200400Y240200D01*
X197900Y239500D02*X199700D01*
X197900Y243500D02*X199700D01*
X202100Y239500D02*X203600D01*
X201600Y240000D02*X202100Y239500D01*
X201600Y241000D02*Y240000D01*
Y241000D02*X202100Y241500D01*
X203100D01*
X203600Y241000D01*
X201600Y240500D02*X203600D01*
Y241000D02*Y240500D01*
X205300Y239500D02*X206800D01*
X207300Y240000D01*
X206800Y240500D02*X207300Y240000D01*
X205300Y240500D02*X206800D01*
X204800Y241000D02*X205300Y240500D01*
X204800Y241000D02*X205300Y241500D01*
X206800D01*
X207300Y241000D01*
X204800Y240000D02*X205300Y239500D01*
X209000Y241500D02*X210500D01*
X208500Y241000D02*X209000Y241500D01*
X208500Y241000D02*Y240000D01*
X209000Y239500D01*
X210500D01*
X212200Y241000D02*Y239500D01*
Y241000D02*X212700Y241500D01*
X213700D01*
X211700D02*X212200Y241000D01*
X214900Y242500D02*Y242400D01*
Y241000D02*Y239500D01*
X216400Y241000D02*Y238000D01*
X215900Y241500D02*X216400Y241000D01*
X216900Y241500D01*
X217900D01*
X218400Y241000D01*
Y240000D01*
X217900Y239500D02*X218400Y240000D01*
X216900Y239500D02*X217900D01*
X216400Y240000D02*X216900Y239500D01*
X220100Y243500D02*Y240000D01*
X220600Y239500D01*
X219600Y242000D02*X220600D01*
X221600Y242500D02*Y242400D01*
Y241000D02*Y239500D01*
X222600Y241000D02*Y240000D01*
Y241000D02*X223100Y241500D01*
X224100D01*
X224600Y241000D01*
Y240000D01*
X224100Y239500D02*X224600Y240000D01*
X223100Y239500D02*X224100D01*
X222600Y240000D02*X223100Y239500D01*
X226300Y241000D02*Y239500D01*
Y241000D02*X226800Y241500D01*
X227300D01*
X227800Y241000D01*
Y239500D01*
X225800Y241500D02*X226300Y241000D01*
X229500Y239500D02*X231000D01*
X231500Y240000D01*
X231000Y240500D02*X231500Y240000D01*
X229500Y240500D02*X231000D01*
X229000Y241000D02*X229500Y240500D01*
X229000Y241000D02*X229500Y241500D01*
X231000D01*
X231500Y241000D01*
X229000Y240000D02*X229500Y239500D01*
G54D68*X89500Y158000D02*X121500D01*
X89500Y334000D02*Y158000D01*
Y334000D02*X121500D01*
Y158000D01*
G54D67*X91500Y186000D02*X119500D01*
X91500Y306000D02*Y186000D01*
Y306000D02*X119500D01*
Y253500D01*
X121500D01*
X119500Y238500D02*X121500D01*
X119500D02*Y186000D01*
Y190000D02*X115500Y186000D01*
X110500D02*Y158000D01*
X100500Y186000D02*Y158000D01*
X110500Y334000D02*Y306000D01*
X100500Y334000D02*Y306000D01*
X138500Y158000D02*X148500D01*
Y178000D02*Y158000D01*
X138500Y178000D02*X148500D01*
X138500D02*Y158000D01*
X148500Y168000D02*Y158000D01*
X138500Y168000D02*X148500D01*
X139543Y241307D02*X157456D01*
Y229693D01*
X139543D01*
Y241307D01*
X139563Y276287D02*X157476D01*
Y264673D01*
X139563D01*
Y276287D01*
X152043Y193807D02*X169956D01*
Y182193D01*
X152043D01*
Y193807D01*
X134543Y216307D02*X152456D01*
Y204693D01*
X134543D01*
Y216307D01*
X73500Y158000D02*X83500D01*
Y178000D02*Y158000D01*
X73500Y178000D02*X83500D01*
X73500D02*Y158000D01*
X83500Y168000D02*Y158000D01*
X73500Y168000D02*X83500D01*
X20800Y220500D02*Y187000D01*
Y220500D02*X40500D01*
X20800Y170500D02*X40500D01*
Y165500D02*X53000D01*
X40500Y225500D02*X53000D01*
Y165500D01*
X40500Y225500D02*Y220500D01*
Y170500D02*Y165500D01*
Y217000D02*Y214000D01*
Y207000D02*Y204000D01*
Y197000D02*Y194000D01*
Y177000D02*Y174000D01*
G54D69*X27100Y180500D02*X29300D01*
X27100Y190500D02*X29300D01*
X27100Y200500D02*X29300D01*
X27100Y210500D02*X29300D01*
X27100Y220500D02*X29300D01*
X27100Y170500D02*X29300D01*
X36100Y180500D02*X38300D01*
X36100Y190500D02*X38300D01*
X36100Y220500D02*X38300D01*
X36100Y170500D02*X38300D01*
X45100Y190500D02*X47300D01*
X45100Y200500D02*X47300D01*
X45100Y220500D02*X47300D01*
X45100Y170500D02*X47300D01*
X45100Y180500D02*X47300D01*
X45100Y210500D02*X47300D01*
X36100D02*X38300D01*
X36100Y200500D02*X38300D01*
X55000Y170500D02*X63500D01*
X55000Y180500D02*X63500D01*
X55000Y190500D02*X63500D01*
X55000Y200500D02*X63500D01*
X55000Y210500D02*X63500D01*
X55000Y220500D02*X63500D01*
G54D67*X20800Y184000D02*X40500D01*
X20800Y187000D02*X40500D01*
Y184000D01*
X20800D02*Y170500D01*
G54D69*X16100Y180500D02*X19300D01*
X16100Y170500D02*X19300D01*
X16100Y190500D02*X19300D01*
X16100Y200500D02*X19300D01*
X16100Y210500D02*X19300D01*
X16100Y220500D02*X19300D01*
G54D70*X19100Y169250D02*X40200D01*
X18800Y221750D02*X40200D01*
G54D67*X14500Y98000D02*X84500D01*
Y88000D01*
X74500Y98000D02*Y88000D01*
X84500D01*
X14500Y148000D02*X104500D01*
X14500Y138000D02*X84500D01*
Y148000D02*Y138000D01*
X74500Y148000D02*Y138000D01*
X84500D01*
X104500Y148000D02*Y88000D01*
X94500Y148000D02*Y88000D01*
Y98000D02*X104500D01*
X14500Y88000D02*X104500D01*
X26500Y133000D02*Y103000D01*
X4500Y133000D02*Y103000D01*
X26500D01*
X4500Y133000D02*X26500D01*
X14500Y148000D02*Y133000D01*
Y103000D02*Y88000D01*
X15737Y288874D02*Y241630D01*
Y232457D02*X40933D01*
X15737Y298047D02*Y232457D01*
Y298047D02*X40933D01*
Y232457D01*
X15737Y241630D02*X19674D01*
X15737Y237693D01*
X19674Y241630D02*X15737Y245567D01*
X16721Y244583D02*Y238677D01*
X17705Y243598D02*Y239661D01*
X18296Y243008D02*Y240252D01*
X61000Y305500D02*X71000D01*
Y325500D02*Y305500D01*
X61000Y325500D02*X71000D01*
X61000D02*Y305500D01*
X71000Y315500D02*Y305500D01*
X61000Y315500D02*X71000D01*
X41000Y305500D02*X51000D01*
Y325500D02*Y305500D01*
X41000Y325500D02*X51000D01*
X41000D02*Y305500D01*
X51000Y315500D02*Y305500D01*
X41000Y315500D02*X51000D01*
X21000Y305500D02*X31000D01*
Y325500D02*Y305500D01*
X21000Y325500D02*X31000D01*
X21000D02*Y305500D01*
X31000Y315500D02*Y305500D01*
X21000Y315500D02*X31000D01*
X309543Y303807D02*X327456D01*
Y292193D01*
X309543D01*
Y303807D01*
X335445Y257465D02*X338594D01*
X335445Y192308D02*X338594D01*
X335445Y257465D02*Y192308D01*
X338594Y257465D02*Y192308D01*
X325130Y195851D02*X335445D01*
X316468Y243961D02*Y204040D01*
X325130Y252150D02*X335445D01*
X332492D02*Y195851D01*
X313500Y263000D02*X323500D01*
Y283000D02*Y263000D01*
X313500Y283000D02*X323500D01*
X313500D02*Y263000D01*
X323500Y273000D02*Y263000D01*
X313500Y273000D02*X323500D01*
X292043Y193807D02*X309956D01*
Y182193D01*
X292043D01*
Y193807D01*
X206000Y318000D02*X266000D01*
Y328000D02*Y318000D01*
X206000Y328000D02*X266000D01*
X206000D02*Y318000D01*
X216000Y328000D02*Y318000D01*
X206000Y328000D02*X216000D01*
X277043Y288807D02*X294956D01*
Y277193D01*
X277043D01*
Y288807D01*
X257024Y308827D02*X274937D01*
Y297213D01*
X257024D01*
Y308827D01*
X237024Y288827D02*X254937D01*
Y277213D01*
X237024D01*
Y288827D01*
X217024Y308827D02*X234937D01*
Y297213D01*
X217024D01*
Y308827D01*
X199543Y288807D02*X217456D01*
Y277193D01*
X199543D01*
Y288807D01*
X162043Y258807D02*X179956D01*
Y247193D01*
X162043D01*
Y258807D01*
Y293807D02*X179956D01*
Y282193D01*
X162043D01*
Y293807D01*
X187024Y308827D02*X204937D01*
Y297213D01*
X187024D01*
Y308827D01*
X182043Y193807D02*X199956D01*
Y182193D01*
X182043D01*
Y193807D01*
X207043D02*X224956D01*
Y182193D01*
X207043D01*
Y193807D01*
X232043D02*X249956D01*
Y182193D01*
X232043D01*
Y193807D01*
X257043D02*X274956D01*
Y182193D01*
X257043D01*
Y193807D01*
X286000Y308000D02*X296000D01*
Y328000D02*Y308000D01*
X286000Y328000D02*X296000D01*
X286000D02*Y308000D01*
X296000Y318000D02*Y308000D01*
X286000Y318000D02*X296000D01*
X278500Y160500D02*X288500D01*
Y180500D02*Y160500D01*
X278500Y180500D02*X288500D01*
X278500D02*Y160500D01*
X288500Y170500D02*Y160500D01*
X278500Y170500D02*X288500D01*
X306256Y310012D02*X308256D01*
X307256D02*Y306012D01*
X309956Y310012D02*Y306012D01*
X309456Y310012D02*X311456D01*
X311956Y309512D01*
Y308512D01*
X311456Y308012D02*X311956Y308512D01*
X309956Y308012D02*X311456D01*
X313156Y309212D02*X313956Y310012D01*
Y306012D01*
X313156D02*X314656D01*
X317356Y310012D02*X317856Y309512D01*
X316356Y310012D02*X317356D01*
X315856Y309512D02*X316356Y310012D01*
X315856Y309512D02*Y306512D01*
X316356Y306012D01*
X317356Y308212D02*X317856Y307712D01*
X315856Y308212D02*X317356D01*
X316356Y306012D02*X317356D01*
X317856Y306512D01*
Y307712D02*Y306512D01*
X319056Y310012D02*X320056Y306012D01*
X321056Y310012D01*
X322756D02*Y306012D01*
X324056Y310012D02*X324756Y309312D01*
Y306712D01*
X324056Y306012D02*X324756Y306712D01*
X322256Y306012D02*X324056D01*
X322256Y310012D02*X324056D01*
X326456D02*Y306012D01*
X327756Y310012D02*X328456Y309312D01*
Y306712D01*
X327756Y306012D02*X328456Y306712D01*
X325956Y306012D02*X327756D01*
X325956Y310012D02*X327756D01*
X310799Y217811D02*Y216511D01*
X310099Y215811D02*X310799Y216511D01*
X307499Y215811D02*X310099D01*
X307499D02*X306799Y216511D01*
Y217811D02*Y216511D01*
X307299Y219011D02*X310299D01*
X307299D02*X306799Y219511D01*
Y220511D02*Y219511D01*
Y220511D02*X307299Y221011D01*
X310299D01*
X310799Y220511D02*X310299Y221011D01*
X310799Y220511D02*Y219511D01*
X310299Y219011D02*X310799Y219511D01*
X306799Y222211D02*X310799D01*
X306799D02*X310799Y224711D01*
X306799D02*X310799D01*
X306799Y225911D02*X310799D01*
X306799D02*X310799Y228411D01*
X306799D02*X310799D01*
X309299Y229611D02*X306799Y231611D01*
X309299Y232111D02*Y229611D01*
X306799Y231611D02*X310799D01*
X316700Y289500D02*X317500D01*
Y286000D01*
X317000Y285500D02*X317500Y286000D01*
X316500Y285500D02*X317000D01*
X316000Y286000D02*X316500Y285500D01*
X316000Y286500D02*Y286000D01*
X318700Y289500D02*X320700D01*
X318700D02*Y287500D01*
X319200Y288000D01*
X320200D01*
X320700Y287500D01*
Y286000D01*
X320200Y285500D02*X320700Y286000D01*
X319200Y285500D02*X320200D01*
X318700Y286000D02*X319200Y285500D01*
X268256Y294512D02*X270256D01*
X269256D02*Y290512D01*
X271956Y294512D02*Y290512D01*
X271456Y294512D02*X273456D01*
X273956Y294012D01*
Y293012D01*
X273456Y292512D02*X273956Y293012D01*
X271956Y292512D02*X273456D01*
X275156Y293712D02*X275956Y294512D01*
Y290512D01*
X275156D02*X276656D01*
X277856Y292012D02*X279856Y294512D01*
X277856Y292012D02*X280356D01*
X279856Y294512D02*Y290512D01*
X281556Y294512D02*X283556D01*
X282556D02*Y290512D01*
X284756Y294512D02*X286756D01*
X287256Y294012D01*
Y293012D01*
X286756Y292512D02*X287256Y293012D01*
X285256Y292512D02*X286756D01*
X285256Y294512D02*Y290512D01*
X286056Y292512D02*X287256Y290512D01*
X288456Y293512D02*Y290512D01*
Y293512D02*X289156Y294512D01*
X290256D01*
X290956Y293512D01*
Y290512D01*
X288456Y292512D02*X290956D01*
X292856Y290512D02*X294156D01*
X292156Y291212D02*X292856Y290512D01*
X292156Y293812D02*Y291212D01*
Y293812D02*X292856Y294512D01*
X294156D01*
X295356Y292712D02*X296856D01*
X295356Y290512D02*X297356D01*
X295356Y294512D02*Y290512D01*
Y294512D02*X297356D01*
X299256Y290512D02*X300556D01*
X298556Y291212D02*X299256Y290512D01*
X298556Y293812D02*Y291212D01*
Y293812D02*X299256Y294512D01*
X300556D01*
X301756D02*Y290512D01*
X303756D01*
X304956Y294512D02*Y290512D01*
Y292512D02*X306956Y294512D01*
X304956Y292512D02*X306956Y290512D01*
X288756Y200012D02*X290756D01*
X289756D02*Y196012D01*
X292456Y200012D02*Y196012D01*
X291956Y200012D02*X293956D01*
X294456Y199512D01*
Y198512D01*
X293956Y198012D02*X294456Y198512D01*
X292456Y198012D02*X293956D01*
X295656Y199212D02*X296456Y200012D01*
Y196012D01*
X295656D02*X297156D01*
X298856D02*X300856Y200012D01*
X298356D02*X300856D01*
X302056D02*X303056Y196012D01*
X304056Y200012D01*
X305256Y199512D02*X305756Y200012D01*
X306756D01*
X307256Y199512D01*
X306756Y196012D02*X307256Y196512D01*
X305756Y196012D02*X306756D01*
X305256Y196512D02*X305756Y196012D01*
Y198212D02*X306756D01*
X307256Y199512D02*Y198712D01*
Y197712D02*Y196512D01*
Y197712D02*X306756Y198212D01*
X307256Y198712D02*X306756Y198212D01*
X308456Y196012D02*X310456D01*
X311656Y199512D02*X312156Y200012D01*
X313156D01*
X313656Y199512D01*
X313156Y196012D02*X313656Y196512D01*
X312156Y196012D02*X313156D01*
X311656Y196512D02*X312156Y196012D01*
Y198212D02*X313156D01*
X313656Y199512D02*Y198712D01*
Y197712D02*Y196512D01*
Y197712D02*X313156Y198212D01*
X313656Y198712D02*X313156Y198212D01*
X281700Y187000D02*X282500D01*
Y183500D01*
X282000Y183000D02*X282500Y183500D01*
X281500Y183000D02*X282000D01*
X281000Y183500D02*X281500Y183000D01*
X281000Y184000D02*Y183500D01*
X284200Y183000D02*X286200Y187000D01*
X283700D02*X286200D01*
X206700Y330500D02*X208000D01*
X206000Y331200D02*X206700Y330500D01*
X206000Y333800D02*Y331200D01*
Y333800D02*X206700Y334500D01*
X208000D01*
X209200Y334000D02*Y331000D01*
Y334000D02*X209700Y334500D01*
X210700D01*
X211200Y334000D01*
Y331000D01*
X210700Y330500D02*X211200Y331000D01*
X209700Y330500D02*X210700D01*
X209200Y331000D02*X209700Y330500D01*
X212400Y334500D02*Y330500D01*
Y334500D02*X214900Y330500D01*
Y334500D02*Y330500D01*
X216100Y334500D02*Y330500D01*
Y334500D02*X218600Y330500D01*
Y334500D02*Y330500D01*
X219800Y334500D02*X221800D01*
X219800D02*Y332500D01*
X220300Y333000D01*
X221300D01*
X221800Y332500D01*
Y331000D01*
X221300Y330500D02*X221800Y331000D01*
X220300Y330500D02*X221300D01*
X219800Y331000D02*X220300Y330500D01*
X250737Y314532D02*X252737D01*
X251737D02*Y310532D01*
X254437Y314532D02*Y310532D01*
X253937Y314532D02*X255937D01*
X256437Y314032D01*
Y313032D01*
X255937Y312532D02*X256437Y313032D01*
X254437Y312532D02*X255937D01*
X257637Y313732D02*X258437Y314532D01*
Y310532D01*
X257637D02*X259137D01*
X260337Y314032D02*X260837Y314532D01*
X261837D01*
X262337Y314032D01*
X261837Y310532D02*X262337Y311032D01*
X260837Y310532D02*X261837D01*
X260337Y311032D02*X260837Y310532D01*
Y312732D02*X261837D01*
X262337Y314032D02*Y313232D01*
Y312232D02*Y311032D01*
Y312232D02*X261837Y312732D01*
X262337Y313232D02*X261837Y312732D01*
X263537Y314532D02*X265537D01*
X264537D02*Y310532D01*
X266737Y314532D02*X268737D01*
X269237Y314032D01*
Y313032D01*
X268737Y312532D02*X269237Y313032D01*
X267237Y312532D02*X268737D01*
X267237Y314532D02*Y310532D01*
X268037Y312532D02*X269237Y310532D01*
X270437Y313532D02*Y310532D01*
Y313532D02*X271137Y314532D01*
X272237D01*
X272937Y313532D01*
Y310532D01*
X270437Y312532D02*X272937D01*
X274837Y310532D02*X276137D01*
X274137Y311232D02*X274837Y310532D01*
X274137Y313832D02*Y311232D01*
Y313832D02*X274837Y314532D01*
X276137D01*
X277337Y312732D02*X278837D01*
X277337Y310532D02*X279337D01*
X277337Y314532D02*Y310532D01*
Y314532D02*X279337D01*
X280537Y314032D02*X281037Y314532D01*
X282037D01*
X282537Y314032D01*
X282037Y310532D02*X282537Y311032D01*
X281037Y310532D02*X282037D01*
X280537Y311032D02*X281037Y310532D01*
Y312732D02*X282037D01*
X282537Y314032D02*Y313232D01*
Y312232D02*Y311032D01*
Y312232D02*X282037Y312732D01*
X282537Y313232D02*X282037Y312732D01*
X229237Y294532D02*X231237D01*
X230237D02*Y290532D01*
X232937Y294532D02*Y290532D01*
X232437Y294532D02*X234437D01*
X234937Y294032D01*
Y293032D01*
X234437Y292532D02*X234937Y293032D01*
X232937Y292532D02*X234437D01*
X236137Y293732D02*X236937Y294532D01*
Y290532D01*
X236137D02*X237637D01*
X238837Y294032D02*X239337Y294532D01*
X240837D01*
X241337Y294032D01*
Y293032D01*
X238837Y290532D02*X241337Y293032D01*
X238837Y290532D02*X241337D01*
X242537Y294532D02*X244537D01*
X243537D02*Y290532D01*
X245737Y294532D02*X247737D01*
X248237Y294032D01*
Y293032D01*
X247737Y292532D02*X248237Y293032D01*
X246237Y292532D02*X247737D01*
X246237Y294532D02*Y290532D01*
X247037Y292532D02*X248237Y290532D01*
X249437Y293532D02*Y290532D01*
Y293532D02*X250137Y294532D01*
X251237D01*
X251937Y293532D01*
Y290532D01*
X249437Y292532D02*X251937D01*
X253837Y290532D02*X255137D01*
X253137Y291232D02*X253837Y290532D01*
X253137Y293832D02*Y291232D01*
Y293832D02*X253837Y294532D01*
X255137D01*
X256337Y292732D02*X257837D01*
X256337Y290532D02*X258337D01*
X256337Y294532D02*Y290532D01*
Y294532D02*X258337D01*
X259537Y294032D02*X260037Y294532D01*
X261537D01*
X262037Y294032D01*
Y293032D01*
X259537Y290532D02*X262037Y293032D01*
X259537Y290532D02*X262037D01*
X213737Y315032D02*X215737D01*
X214737D02*Y311032D01*
X217437Y315032D02*Y311032D01*
X216937Y315032D02*X218937D01*
X219437Y314532D01*
Y313532D01*
X218937Y313032D02*X219437Y313532D01*
X217437Y313032D02*X218937D01*
X220637Y314232D02*X221437Y315032D01*
Y311032D01*
X220637D02*X222137D01*
X223337Y314232D02*X224137Y315032D01*
Y311032D01*
X223337D02*X224837D01*
X226037Y315032D02*X228037D01*
X227037D02*Y311032D01*
X229237Y315032D02*X231237D01*
X231737Y314532D01*
Y313532D01*
X231237Y313032D02*X231737Y313532D01*
X229737Y313032D02*X231237D01*
X229737Y315032D02*Y311032D01*
X230537Y313032D02*X231737Y311032D01*
X232937Y314032D02*Y311032D01*
Y314032D02*X233637Y315032D01*
X234737D01*
X235437Y314032D01*
Y311032D01*
X232937Y313032D02*X235437D01*
X237337Y311032D02*X238637D01*
X236637Y311732D02*X237337Y311032D01*
X236637Y314332D02*Y311732D01*
Y314332D02*X237337Y315032D01*
X238637D01*
X239837Y313232D02*X241337D01*
X239837Y311032D02*X241837D01*
X239837Y315032D02*Y311032D01*
Y315032D02*X241837D01*
X243037Y314232D02*X243837Y315032D01*
Y311032D01*
X243037D02*X244537D01*
X193256Y294512D02*X195256D01*
X194256D02*Y290512D01*
X196956Y294512D02*Y290512D01*
X196456Y294512D02*X198456D01*
X198956Y294012D01*
Y293012D01*
X198456Y292512D02*X198956Y293012D01*
X196956Y292512D02*X198456D01*
X200156Y293712D02*X200956Y294512D01*
Y290512D01*
X200156D02*X201656D01*
X202856Y291012D02*X203356Y290512D01*
X202856Y294012D02*Y291012D01*
Y294012D02*X203356Y294512D01*
X204356D01*
X204856Y294012D01*
Y291012D01*
X204356Y290512D02*X204856Y291012D01*
X203356Y290512D02*X204356D01*
X202856Y291512D02*X204856Y293512D01*
X206056Y294512D02*X208056D01*
X207056D02*Y290512D01*
X209256Y294512D02*X211256D01*
X211756Y294012D01*
Y293012D01*
X211256Y292512D02*X211756Y293012D01*
X209756Y292512D02*X211256D01*
X209756Y294512D02*Y290512D01*
X210556Y292512D02*X211756Y290512D01*
X212956Y293512D02*Y290512D01*
Y293512D02*X213656Y294512D01*
X214756D01*
X215456Y293512D01*
Y290512D01*
X212956Y292512D02*X215456D01*
X217356Y290512D02*X218656D01*
X216656Y291212D02*X217356Y290512D01*
X216656Y293812D02*Y291212D01*
Y293812D02*X217356Y294512D01*
X218656D01*
X219856Y292712D02*X221356D01*
X219856Y290512D02*X221856D01*
X219856Y294512D02*Y290512D01*
Y294512D02*X221856D01*
X223056Y291012D02*X223556Y290512D01*
X223056Y294012D02*Y291012D01*
Y294012D02*X223556Y294512D01*
X224556D01*
X225056Y294012D01*
Y291012D01*
X224556Y290512D02*X225056Y291012D01*
X223556Y290512D02*X224556D01*
X223056Y291512D02*X225056Y293512D01*
X138756Y247512D02*X140756D01*
X139756D02*Y243512D01*
X142456Y247512D02*Y243512D01*
X141956Y247512D02*X143956D01*
X144456Y247012D01*
Y246012D01*
X143956Y245512D02*X144456Y246012D01*
X142456Y245512D02*X143956D01*
X145656Y244012D02*X146156Y243512D01*
X145656Y244812D02*Y244012D01*
Y244812D02*X146356Y245512D01*
X146956D01*
X147656Y244812D01*
Y244012D01*
X147156Y243512D02*X147656Y244012D01*
X146156Y243512D02*X147156D01*
X145656Y246212D02*X146356Y245512D01*
X145656Y247012D02*Y246212D01*
Y247012D02*X146156Y247512D01*
X147156D01*
X147656Y247012D01*
Y246212D01*
X146956Y245512D02*X147656Y246212D01*
X148856Y247512D02*X150856D01*
X149856D02*Y243512D01*
X152556Y247512D02*Y243512D01*
X153856Y247512D02*X154556Y246812D01*
Y244212D01*
X153856Y243512D02*X154556Y244212D01*
X152056Y243512D02*X153856D01*
X152056Y247512D02*X153856D01*
X155756Y247012D02*Y244012D01*
Y247012D02*X156256Y247512D01*
X157256D01*
X157756Y247012D01*
Y244012D01*
X157256Y243512D02*X157756Y244012D01*
X156256Y243512D02*X157256D01*
X155756Y244012D02*X156256Y243512D01*
X161256Y265012D02*X163256D01*
X162256D02*Y261012D01*
X164956Y265012D02*Y261012D01*
X164456Y265012D02*X166456D01*
X166956Y264512D01*
Y263512D01*
X166456Y263012D02*X166956Y263512D01*
X164956Y263012D02*X166456D01*
X168656Y261012D02*X170656Y265012D01*
X168156D02*X170656D01*
X171856D02*X173856D01*
X172856D02*Y261012D01*
X175556Y265012D02*Y261012D01*
X176856Y265012D02*X177556Y264312D01*
Y261712D01*
X176856Y261012D02*X177556Y261712D01*
X175056Y261012D02*X176856D01*
X175056Y265012D02*X176856D01*
X178756D02*X179756D01*
X179256D02*Y261012D01*
X178756D02*X179756D01*
X138776Y282492D02*X140776D01*
X139776D02*Y278492D01*
X142476Y282492D02*Y278492D01*
X141976Y282492D02*X143976D01*
X144476Y281992D01*
Y280992D01*
X143976Y280492D02*X144476Y280992D01*
X142476Y280492D02*X143976D01*
X147176Y282492D02*X147676Y281992D01*
X146176Y282492D02*X147176D01*
X145676Y281992D02*X146176Y282492D01*
X145676Y281992D02*Y278992D01*
X146176Y278492D01*
X147176Y280692D02*X147676Y280192D01*
X145676Y280692D02*X147176D01*
X146176Y278492D02*X147176D01*
X147676Y278992D01*
Y280192D02*Y278992D01*
X148876Y282492D02*X150876D01*
X149876D02*Y278492D01*
X152776D02*X154076D01*
X152076Y279192D02*X152776Y278492D01*
X152076Y281792D02*Y279192D01*
Y281792D02*X152776Y282492D01*
X154076D01*
X155276D02*Y278492D01*
Y280492D02*X157276Y282492D01*
X155276Y280492D02*X157276Y278492D01*
X161256Y300012D02*X163256D01*
X162256D02*Y296012D01*
X164956Y300012D02*Y296012D01*
X164456Y300012D02*X166456D01*
X166956Y299512D01*
Y298512D01*
X166456Y298012D02*X166956Y298512D01*
X164956Y298012D02*X166456D01*
X168156Y300012D02*X170156D01*
X168156D02*Y298012D01*
X168656Y298512D01*
X169656D01*
X170156Y298012D01*
Y296512D01*
X169656Y296012D02*X170156Y296512D01*
X168656Y296012D02*X169656D01*
X168156Y296512D02*X168656Y296012D01*
X171356Y300012D02*X173356D01*
X172356D02*Y296012D01*
X174556Y300012D02*Y296012D01*
Y300012D02*X176056Y298012D01*
X177556Y300012D01*
Y296012D01*
X180756Y300012D02*X181256Y299512D01*
X179256Y300012D02*X180756D01*
X178756Y299512D02*X179256Y300012D01*
X178756Y299512D02*Y298512D01*
X179256Y298012D01*
X180756D01*
X181256Y297512D01*
Y296512D01*
X180756Y296012D02*X181256Y296512D01*
X179256Y296012D02*X180756D01*
X178756Y296512D02*X179256Y296012D01*
X130756Y222012D02*X132756D01*
X131756D02*Y218012D01*
X134456Y222012D02*Y218012D01*
X133956Y222012D02*X135956D01*
X136456Y221512D01*
Y220512D01*
X135956Y220012D02*X136456Y220512D01*
X134456Y220012D02*X135956D01*
X138156Y218012D02*X139656Y220012D01*
Y221512D02*Y220012D01*
X139156Y222012D02*X139656Y221512D01*
X138156Y222012D02*X139156D01*
X137656Y221512D02*X138156Y222012D01*
X137656Y221512D02*Y220512D01*
X138156Y220012D01*
X139656D01*
X140856Y218012D02*X142856D01*
X144056Y222012D02*X146056D01*
X145056D02*Y218012D01*
X147256Y222012D02*X149256D01*
X149756Y221512D01*
Y220512D01*
X149256Y220012D02*X149756Y220512D01*
X147756Y220012D02*X149256D01*
X147756Y222012D02*Y218012D01*
X148556Y220012D02*X149756Y218012D01*
X152956Y222012D02*X153456Y221512D01*
X151456Y222012D02*X152956D01*
X150956Y221512D02*X151456Y222012D01*
X150956Y221512D02*Y220512D01*
X151456Y220012D01*
X152956D01*
X153456Y219512D01*
Y218512D01*
X152956Y218012D02*X153456Y218512D01*
X151456Y218012D02*X152956D01*
X150956Y218512D02*X151456Y218012D01*
X154656Y222012D02*X156656D01*
X155656D02*Y218012D01*
X184237Y315032D02*X186237D01*
X185237D02*Y311032D01*
X187937Y315032D02*Y311032D01*
X187437Y315032D02*X189437D01*
X189937Y314532D01*
Y313532D01*
X189437Y313032D02*X189937Y313532D01*
X187937Y313032D02*X189437D01*
X191137Y314232D02*X191937Y315032D01*
Y311032D01*
X191137D02*X192637D01*
X193837Y315032D02*X195837D01*
X193837D02*Y313032D01*
X194337Y313532D01*
X195337D01*
X195837Y313032D01*
Y311532D01*
X195337Y311032D02*X195837Y311532D01*
X194337Y311032D02*X195337D01*
X193837Y311532D02*X194337Y311032D01*
X199037Y315032D02*X199537Y314532D01*
X197537Y315032D02*X199037D01*
X197037Y314532D02*X197537Y315032D01*
X197037Y314532D02*Y311532D01*
X197537Y311032D01*
X199037D01*
X199537Y311532D01*
Y312532D02*Y311532D01*
X199037Y313032D02*X199537Y312532D01*
X198037Y313032D02*X199037D01*
X200737Y315032D02*Y311032D01*
Y315032D02*X203237Y311032D01*
Y315032D02*Y311032D01*
X204937Y315032D02*Y311032D01*
X206237Y315032D02*X206937Y314332D01*
Y311732D01*
X206237Y311032D02*X206937Y311732D01*
X204437Y311032D02*X206237D01*
X204437Y315032D02*X206237D01*
X289200Y334500D02*X290000D01*
Y331000D01*
X289500Y330500D02*X290000Y331000D01*
X289000Y330500D02*X289500D01*
X288500Y331000D02*X289000Y330500D01*
X288500Y331500D02*Y331000D01*
X292700Y334500D02*X293200Y334000D01*
X291700Y334500D02*X292700D01*
X291200Y334000D02*X291700Y334500D01*
X291200Y334000D02*Y331000D01*
X291700Y330500D01*
X292700Y332700D02*X293200Y332200D01*
X291200Y332700D02*X292700D01*
X291700Y330500D02*X292700D01*
X293200Y331000D01*
Y332200D02*Y331000D01*
X64200Y332000D02*X65000D01*
Y328500D01*
X64500Y328000D02*X65000Y328500D01*
X64000Y328000D02*X64500D01*
X63500Y328500D02*X64000Y328000D01*
X63500Y329000D02*Y328500D01*
X66200Y331200D02*X67000Y332000D01*
Y328000D01*
X66200D02*X67700D01*
X44200Y332000D02*X45000D01*
Y328500D01*
X44500Y328000D02*X45000Y328500D01*
X44000Y328000D02*X44500D01*
X43500Y328500D02*X44000Y328000D01*
X43500Y329000D02*Y328500D01*
X46200Y331500D02*X46700Y332000D01*
X48200D01*
X48700Y331500D01*
Y330500D01*
X46200Y328000D02*X48700Y330500D01*
X46200Y328000D02*X48700D01*
X24200Y332000D02*X25000D01*
Y328500D01*
X24500Y328000D02*X25000Y328500D01*
X24000Y328000D02*X24500D01*
X23500Y328500D02*X24000Y328000D01*
X23500Y329000D02*Y328500D01*
X26200Y331500D02*X26700Y332000D01*
X27700D01*
X28200Y331500D01*
X27700Y328000D02*X28200Y328500D01*
X26700Y328000D02*X27700D01*
X26200Y328500D02*X26700Y328000D01*
Y330200D02*X27700D01*
X28200Y331500D02*Y330700D01*
Y329700D02*Y328500D01*
Y329700D02*X27700Y330200D01*
X28200Y330700D02*X27700Y330200D01*
X20500Y350500D02*Y346500D01*
Y348000D02*X21000Y348500D01*
X22000D01*
X22500Y348000D01*
Y346500D01*
X23700Y348000D02*Y347000D01*
Y348000D02*X24200Y348500D01*
X25200D01*
X25700Y348000D01*
Y347000D01*
X25200Y346500D02*X25700Y347000D01*
X24200Y346500D02*X25200D01*
X23700Y347000D02*X24200Y346500D01*
X26900Y350500D02*Y347000D01*
X27400Y346500D01*
X28900D02*X30400D01*
X28400Y347000D02*X28900Y346500D01*
X28400Y348000D02*Y347000D01*
Y348000D02*X28900Y348500D01*
X29900D01*
X30400Y348000D01*
X28400Y347500D02*X30400D01*
Y348000D02*Y347500D01*
X31600Y350000D02*X32100Y350500D01*
X33600D01*
X34100Y350000D01*
Y349000D01*
X31600Y346500D02*X34100Y349000D01*
X31600Y346500D02*X34100D01*
X325480Y351620D02*Y348020D01*
Y349370D02*X325930Y349820D01*
X326830D01*
X327280Y349370D01*
Y348020D01*
X328360Y349370D02*Y348470D01*
Y349370D02*X328810Y349820D01*
X329710D01*
X330160Y349370D01*
Y348470D01*
X329710Y348020D02*X330160Y348470D01*
X328810Y348020D02*X329710D01*
X328360Y348470D02*X328810Y348020D01*
X331240Y351620D02*Y348470D01*
X331690Y348020D01*
X333040D02*X334390D01*
X332590Y348470D02*X333040Y348020D01*
X332590Y349370D02*Y348470D01*
Y349370D02*X333040Y349820D01*
X333940D01*
X334390Y349370D01*
X332590Y348920D02*X334390D01*
Y349370D02*Y348920D01*
X335470Y350900D02*X336190Y351620D01*
Y348020D01*
X335470D02*X336820D01*
X258756Y200012D02*X260756D01*
X259756D02*Y196012D01*
X262456Y200012D02*Y196012D01*
X261956Y200012D02*X263956D01*
X264456Y199512D01*
Y198512D01*
X263956Y198012D02*X264456Y198512D01*
X262456Y198012D02*X263956D01*
X265656Y196512D02*X266156Y196012D01*
X265656Y199512D02*Y196512D01*
Y199512D02*X266156Y200012D01*
X267156D01*
X267656Y199512D01*
Y196512D01*
X267156Y196012D02*X267656Y196512D01*
X266156Y196012D02*X267156D01*
X265656Y197012D02*X267656Y199012D01*
X268856Y200012D02*X270856D01*
X269856D02*Y196012D01*
X272056D02*X274556Y200012D01*
X272056D02*X274556Y196012D01*
X132000Y163000D02*Y160400D01*
X130600Y159000D02*X132000Y160400D01*
X125400Y159000D02*X130600D01*
X125400D02*X124000Y160400D01*
Y163000D02*Y160400D01*
X125000Y165400D02*X131000D01*
X125000D02*X124000Y166400D01*
Y168400D02*Y166400D01*
Y168400D02*X125000Y169400D01*
X131000D01*
X132000Y168400D02*X131000Y169400D01*
X132000Y168400D02*Y166400D01*
X131000Y165400D02*X132000Y166400D01*
X124000Y171800D02*X132000D01*
X124000D02*X132000Y176800D01*
X124000D02*X132000D01*
X124000Y179200D02*X132000D01*
X124000D02*X132000Y184200D01*
X124000D02*X132000D01*
X125000Y186600D02*X124000Y187600D01*
Y189600D02*Y187600D01*
Y189600D02*X125000Y190600D01*
X132000Y189600D02*X131000Y190600D01*
X132000Y189600D02*Y187600D01*
X131000Y186600D02*X132000Y187600D01*
X127600Y189600D02*Y187600D01*
X125000Y190600D02*X126600D01*
X128600D02*X131000D01*
X128600D02*X127600Y189600D01*
X126600Y190600D02*X127600Y189600D01*
X141700Y184500D02*X142500D01*
Y181000D01*
X142000Y180500D02*X142500Y181000D01*
X141500Y180500D02*X142000D01*
X141000Y181000D02*X141500Y180500D01*
X141000Y181500D02*Y181000D01*
X143700Y182000D02*X145700Y184500D01*
X143700Y182000D02*X146200D01*
X145700Y184500D02*Y180500D01*
X76700Y184500D02*X77500D01*
Y181000D01*
X77000Y180500D02*X77500Y181000D01*
X76500Y180500D02*X77000D01*
X76000Y181000D02*X76500Y180500D01*
X76000Y181500D02*Y181000D01*
X78700D02*X79200Y180500D01*
X78700Y181800D02*Y181000D01*
Y181800D02*X79400Y182500D01*
X80000D01*
X80700Y181800D01*
Y181000D01*
X80200Y180500D02*X80700Y181000D01*
X79200Y180500D02*X80200D01*
X78700Y183200D02*X79400Y182500D01*
X78700Y184000D02*Y183200D01*
Y184000D02*X79200Y184500D01*
X80200D01*
X80700Y184000D01*
Y183200D01*
X80000Y182500D02*X80700Y183200D01*
X146256Y200012D02*X148256D01*
X147256D02*Y196012D01*
X149956Y200012D02*Y196012D01*
X149456Y200012D02*X151456D01*
X151956Y199512D01*
Y198512D01*
X151456Y198012D02*X151956Y198512D01*
X149956Y198012D02*X151456D01*
X153156Y199212D02*X153956Y200012D01*
Y196012D01*
X153156D02*X154656D01*
X156356D02*X158356Y200012D01*
X155856D02*X158356D01*
X159556D02*Y196512D01*
X160056Y196012D01*
X161056D01*
X161556Y196512D01*
Y200012D02*Y196512D01*
X164756Y200012D02*X165256Y199512D01*
X163256Y200012D02*X164756D01*
X162756Y199512D02*X163256Y200012D01*
X162756Y199512D02*Y198512D01*
X163256Y198012D01*
X164756D01*
X165256Y197512D01*
Y196512D01*
X164756Y196012D02*X165256Y196512D01*
X163256Y196012D02*X164756D01*
X162756Y196512D02*X163256Y196012D01*
X166456D02*X168456D01*
X168956Y196512D01*
Y197712D02*Y196512D01*
X168456Y198212D02*X168956Y197712D01*
X166956Y198212D02*X168456D01*
X166956Y200012D02*Y196012D01*
X166456Y200012D02*X168456D01*
X168956Y199512D01*
Y198712D01*
X168456Y198212D02*X168956Y198712D01*
X170156Y200012D02*X172156D01*
X170156D02*Y198012D01*
X170656Y198512D01*
X171656D01*
X172156Y198012D01*
Y196512D01*
X171656Y196012D02*X172156Y196512D01*
X170656Y196012D02*X171656D01*
X170156Y196512D02*X170656Y196012D01*
X173356Y200012D02*X174356Y196012D01*
X175356Y200012D01*
X181256D02*X183256D01*
X182256D02*Y196012D01*
X184956Y200012D02*Y196012D01*
X184456Y200012D02*X186456D01*
X186956Y199512D01*
Y198512D01*
X186456Y198012D02*X186956Y198512D01*
X184956Y198012D02*X186456D01*
X188156Y197512D02*X190156Y200012D01*
X188156Y197512D02*X190656D01*
X190156Y200012D02*Y196012D01*
X191856Y200012D02*X193856D01*
X194356Y199512D01*
Y198512D01*
X193856Y198012D02*X194356Y198512D01*
X192356Y198012D02*X193856D01*
X192356Y200012D02*Y196012D01*
X193156Y198012D02*X194356Y196012D01*
X195556Y200012D02*X197556D01*
X196556D02*Y196012D01*
X200756Y200012D02*X201256Y199512D01*
X199256Y200012D02*X200756D01*
X198756Y199512D02*X199256Y200012D01*
X198756Y199512D02*Y198512D01*
X199256Y198012D01*
X200756D01*
X201256Y197512D01*
Y196512D01*
X200756Y196012D02*X201256Y196512D01*
X199256Y196012D02*X200756D01*
X198756Y196512D02*X199256Y196012D01*
X206256Y200012D02*X208256D01*
X207256D02*Y196012D01*
X209956Y200012D02*Y196012D01*
X209456Y200012D02*X211456D01*
X211956Y199512D01*
Y198512D01*
X211456Y198012D02*X211956Y198512D01*
X209956Y198012D02*X211456D01*
X213156Y199512D02*X213656Y200012D01*
X214656D01*
X215156Y199512D01*
X214656Y196012D02*X215156Y196512D01*
X213656Y196012D02*X214656D01*
X213156Y196512D02*X213656Y196012D01*
Y198212D02*X214656D01*
X215156Y199512D02*Y198712D01*
Y197712D02*Y196512D01*
Y197712D02*X214656Y198212D01*
X215156Y198712D02*X214656Y198212D01*
X217056Y196012D02*X218356D01*
X216356Y196712D02*X217056Y196012D01*
X216356Y199312D02*Y196712D01*
Y199312D02*X217056Y200012D01*
X218356D01*
X219556D02*X221556D01*
X220556D02*Y196012D01*
X224756Y200012D02*X225256Y199512D01*
X223256Y200012D02*X224756D01*
X222756Y199512D02*X223256Y200012D01*
X222756Y199512D02*Y198512D01*
X223256Y198012D01*
X224756D01*
X225256Y197512D01*
Y196512D01*
X224756Y196012D02*X225256Y196512D01*
X223256Y196012D02*X224756D01*
X222756Y196512D02*X223256Y196012D01*
X233756Y200012D02*X235756D01*
X234756D02*Y196012D01*
X237456Y200012D02*Y196012D01*
X236956Y200012D02*X238956D01*
X239456Y199512D01*
Y198512D01*
X238956Y198012D02*X239456Y198512D01*
X237456Y198012D02*X238956D01*
X240656Y199212D02*X241456Y200012D01*
Y196012D01*
X240656D02*X242156D01*
X243356Y200012D02*X245356D01*
X245856Y199512D01*
Y198512D01*
X245356Y198012D02*X245856Y198512D01*
X243856Y198012D02*X245356D01*
X243856Y200012D02*Y196012D01*
X244656Y198012D02*X245856Y196012D01*
X247056D02*X249556Y200012D01*
X247056D02*X249556Y196012D01*
X72300Y210200D02*Y208900D01*
X71600Y208200D02*X72300Y208900D01*
X69000Y208200D02*X71600D01*
X69000D02*X68300Y208900D01*
Y210200D02*Y208900D01*
X68800Y211400D02*X71800D01*
X68800D02*X68300Y211900D01*
Y212900D02*Y211900D01*
Y212900D02*X68800Y213400D01*
X71800D01*
X72300Y212900D02*X71800Y213400D01*
X72300Y212900D02*Y211900D01*
X71800Y211400D02*X72300Y211900D01*
X68300Y214600D02*X72300D01*
X68300D02*X72300Y217100D01*
X68300D02*X72300D01*
X68300Y218300D02*X72300D01*
X68300D02*X72300Y220800D01*
X68300D02*X72300D01*
X69100Y222000D02*X68300Y222800D01*
X72300D01*
Y223500D02*Y222000D01*
X64618Y241575D02*Y240275D01*
X63918Y239575D02*X64618Y240275D01*
X61318Y239575D02*X63918D01*
X61318D02*X60618Y240275D01*
Y241575D02*Y240275D01*
X61118Y242775D02*X64118D01*
X61118D02*X60618Y243275D01*
Y244275D02*Y243275D01*
Y244275D02*X61118Y244775D01*
X64118D01*
X64618Y244275D02*X64118Y244775D01*
X64618Y244275D02*Y243275D01*
X64118Y242775D02*X64618Y243275D01*
X60618Y245975D02*X64618D01*
X60618D02*X64618Y248475D01*
X60618D02*X64618D01*
X60618Y249675D02*X64618D01*
X60618D02*X64618Y252175D01*
X60618D02*X64618D01*
X61118Y253375D02*X60618Y253875D01*
Y255375D02*Y253875D01*
Y255375D02*X61118Y255875D01*
X62118D01*
X64618Y253375D02*X62118Y255875D01*
X64618D02*Y253375D01*
X106480Y110980D02*X110480D01*
X106480D02*X108480Y112480D01*
X106480Y113980D01*
X110480D01*
X106980Y115180D02*X109980D01*
X106980D02*X106480Y115680D01*
Y116680D02*Y115680D01*
Y116680D02*X106980Y117180D01*
X109980D01*
X110480Y116680D02*X109980Y117180D01*
X110480Y116680D02*Y115680D01*
X109980Y115180D02*X110480Y115680D01*
X106480Y118880D02*X110480D01*
X106480Y120180D02*X107180Y120880D01*
X109780D01*
X110480Y120180D02*X109780Y120880D01*
X110480Y120180D02*Y118380D01*
X106480Y120180D02*Y118380D01*
X107280Y122080D02*X106480Y122880D01*
X110480D01*
Y123580D02*Y122080D01*
X321500Y73200D02*Y70000D01*
Y71200D02*X321900Y71600D01*
X322700D01*
X323100Y71200D01*
Y70000D01*
X324060Y71200D02*Y70400D01*
Y71200D02*X324460Y71600D01*
X325260D01*
X325660Y71200D01*
Y70400D01*
X325260Y70000D02*X325660Y70400D01*
X324460Y70000D02*X325260D01*
X324060Y70400D02*X324460Y70000D01*
X326620Y73200D02*Y70400D01*
X327020Y70000D01*
X328220D02*X329420D01*
X327820Y70400D02*X328220Y70000D01*
X327820Y71200D02*Y70400D01*
Y71200D02*X328220Y71600D01*
X329020D01*
X329420Y71200D01*
X327820Y70800D02*X329420D01*
Y71200D02*Y70800D01*
X330380Y71200D02*X331980Y73200D01*
X330380Y71200D02*X332380D01*
X331980Y73200D02*Y70000D01*
X28500Y71750D02*Y68750D01*
Y69875D02*X28875Y70250D01*
X29625D01*
X30000Y69875D01*
Y68750D01*
X30900Y69875D02*Y69125D01*
Y69875D02*X31275Y70250D01*
X32025D01*
X32400Y69875D01*
Y69125D01*
X32025Y68750D02*X32400Y69125D01*
X31275Y68750D02*X32025D01*
X30900Y69125D02*X31275Y68750D01*
X33300Y71750D02*Y69125D01*
X33675Y68750D01*
X34800D02*X35925D01*
X34425Y69125D02*X34800Y68750D01*
X34425Y69875D02*Y69125D01*
Y69875D02*X34800Y70250D01*
X35550D01*
X35925Y69875D01*
X34425Y69500D02*X35925D01*
Y69875D02*Y69500D01*
X36825Y71375D02*X37200Y71750D01*
X37950D01*
X38325Y71375D01*
X37950Y68750D02*X38325Y69125D01*
X37200Y68750D02*X37950D01*
X36825Y69125D02*X37200Y68750D01*
Y70400D02*X37950D01*
X38325Y71375D02*Y70775D01*
Y70025D02*Y69125D01*
Y70025D02*X37950Y70400D01*
X38325Y70775D02*X37950Y70400D01*
M02*
