G04 start of page 6 for group -4063 idx -4063 *
G04 Title: (unknown), componentmask *
G04 Creator: pcb 20110918 *
G04 CreationDate: Thu Aug 28 18:43:41 2014 UTC *
G04 For: fosse *
G04 Format: Gerber/RS-274X *
G04 PCB-Dimensions: 348000 372000 *
G04 PCB-Coordinate-Origin: lower left *
%MOIN*%
%FSLAX25Y25*%
%LNTOPMASK*%
%ADD61R,0.0336X0.0336*%
%ADD60R,0.0218X0.0218*%
%ADD59R,0.0907X0.0907*%
%ADD58R,0.0966X0.0966*%
%ADD57R,0.0435X0.0435*%
%ADD56C,0.0651*%
%ADD55C,0.2760*%
%ADD54C,0.0001*%
%ADD53C,0.0660*%
G54D53*X110500Y241000D03*
G54D54*G36*
X315200Y271300D02*Y264700D01*
X321800D01*
Y271300D01*
X315200D01*
G37*
G54D53*X318500Y278000D03*
G54D54*G36*
X207700Y326300D02*Y319700D01*
X214300D01*
Y326300D01*
X207700D01*
G37*
G54D53*X221000Y323000D03*
X231000D03*
X241000D03*
G54D55*X327000Y349000D03*
G54D53*X251000Y323000D03*
X261000D03*
G54D54*G36*
X287700Y316300D02*Y309700D01*
X294300D01*
Y316300D01*
X287700D01*
G37*
G54D53*X291000Y323000D03*
G54D54*G36*
X280200Y168800D02*Y162200D01*
X286800D01*
Y168800D01*
X280200D01*
G37*
G54D53*X283500Y175500D03*
X110500Y221000D03*
X100500D03*
X110500Y231000D03*
X100500D03*
Y241000D03*
X110500Y251000D03*
Y261000D03*
Y271000D03*
Y281000D03*
Y291000D03*
X100500Y251000D03*
Y261000D03*
Y271000D03*
Y281000D03*
Y291000D03*
G54D54*G36*
X107200Y204300D02*Y197700D01*
X113800D01*
Y204300D01*
X107200D01*
G37*
G54D53*X100500Y201000D03*
X110500Y211000D03*
X100500D03*
G54D54*G36*
X140200Y166300D02*Y159700D01*
X146800D01*
Y166300D01*
X140200D01*
G37*
G54D53*X143500Y173000D03*
G54D54*G36*
X75200Y166300D02*Y159700D01*
X81800D01*
Y166300D01*
X75200D01*
G37*
G54D53*X78500Y173000D03*
X63500Y170500D03*
Y180500D03*
Y190500D03*
Y200500D03*
Y210500D03*
Y220500D03*
G54D56*X47626Y241630D03*
Y249504D03*
X55500Y241630D03*
Y249504D03*
X47626Y257378D03*
X55500D03*
X47626Y265252D03*
Y273126D03*
Y281000D03*
X55500Y265252D03*
Y273126D03*
Y281000D03*
Y288874D03*
G54D54*G36*
X62700Y313800D02*Y307200D01*
X69300D01*
Y313800D01*
X62700D01*
G37*
G54D53*X66000Y320500D03*
G54D56*X47626Y288874D03*
G54D54*G36*
X42700Y313800D02*Y307200D01*
X49300D01*
Y313800D01*
X42700D01*
G37*
G54D53*X46000Y320500D03*
G54D54*G36*
X22700Y313800D02*Y307200D01*
X29300D01*
Y313800D01*
X22700D01*
G37*
G54D53*X26000Y320500D03*
G54D55*X30000Y349000D03*
G54D54*G36*
X76200Y96300D02*Y89700D01*
X82800D01*
Y96300D01*
X76200D01*
G37*
G36*
Y146300D02*Y139700D01*
X82800D01*
Y146300D01*
X76200D01*
G37*
G54D53*X69500Y93000D03*
X59500D03*
X49500D03*
X39500D03*
X29500D03*
X19500D03*
G54D55*X30000Y71000D03*
G54D53*X69500Y143000D03*
X59500D03*
X49500D03*
X39500D03*
X29500D03*
X19500D03*
G54D54*G36*
X96200Y96300D02*Y89700D01*
X102800D01*
Y96300D01*
X96200D01*
G37*
G54D55*X327000Y71000D03*
G54D53*X99500Y103000D03*
Y113000D03*
Y123000D03*
Y133000D03*
Y143000D03*
G54D57*X326291Y247918D02*Y246146D01*
G54D58*X320287Y252740D02*Y248803D01*
G54D59*X167850Y253000D02*X174149D01*
X145370Y270480D02*X151669D01*
G54D60*X313397Y226953D02*X315365D01*
X313397Y228922D02*X315365D01*
X313397Y230890D02*X315365D01*
X313397Y232859D02*X315365D01*
X313397Y234827D02*X315365D01*
G54D61*X322413Y243292D02*Y242504D01*
G54D60*X313397Y236796D02*X315365D01*
X313397Y238764D02*X315365D01*
G54D59*X145350Y235500D02*X151649D01*
G54D60*X313397Y242701D02*X315365D01*
X313397Y240733D02*X315365D01*
G54D59*X315350Y298000D02*X321649D01*
X282850Y283000D02*X289149D01*
X262831Y303020D02*X269130D01*
X242831Y283020D02*X249130D01*
X222831Y303020D02*X229130D01*
X192831D02*X199130D01*
X205350Y283000D02*X211649D01*
X167850Y288000D02*X174149D01*
G54D60*X313397Y205300D02*X315365D01*
X313397Y207268D02*X315365D01*
X313397Y209237D02*X315365D01*
X313397Y217111D02*X315365D01*
X313397Y219079D02*X315365D01*
X313397Y221048D02*X315365D01*
X313397Y223016D02*X315365D01*
X313397Y224985D02*X315365D01*
X313397Y211205D02*X315365D01*
X313397Y213174D02*X315365D01*
X313397Y215142D02*X315365D01*
G54D61*X322413Y205497D02*Y204709D01*
G54D57*X326291Y201855D02*Y200083D01*
G54D58*X320288Y199197D02*Y195260D01*
G54D59*X297850Y188000D02*X304149D01*
X157850D02*X164149D01*
X187850D02*X194149D01*
X212850D02*X219149D01*
X237850D02*X244149D01*
X262850D02*X269149D01*
X140350Y210500D02*X146649D01*
M02*
