M48
INCH
T170C0.035
T169C0.020
T168C0.035
T167C0.116
T166C0.038
T165C0.028
%
T169
X013944Y024178
X012044Y025578
X012344Y024078
X011944Y023578
X013044Y028378
X011744Y028178
X008944Y027978
X009644Y027978
X010344Y027978
X013644Y027878
X010644Y026478
X010044Y026478
X009444Y026478
X008744Y026478
X006544Y024578
X004944Y024578
X005744Y024578
X007344Y024578
X007344Y026878
X010644Y023578
X009044Y023578
X008244Y023578
X009944Y023578
X019444Y020478
X020044Y018478
X019644Y024378
T165
X008244Y020278
X008244Y019278
X008244Y018278
X008244Y017278
X008244Y016278
X008244Y015278
X008244Y014278
X008244Y013278
X011244Y013278
X011244Y014278
X011244Y015278
X011244Y016278
X011244Y017278
X011244Y018278
X011244Y019278
X011244Y020278
T170
X023944Y014878
X021044Y021478
T168
X008242Y026780
X013557Y026780
T166
X022944Y018478
X022944Y017478
X021944Y017478
X021944Y018478
X022944Y020478
X022944Y019478
X021944Y019478
X021944Y020478
T167
X010900Y030300
M30
