G04 start of page 12 for group -3984 idx -3984 *
G04 Title: (unknown), fab *
G04 Creator: pcb 20110918 *
G04 CreationDate: Mon Sep 15 22:10:26 2014 UTC *
G04 For: fosse *
G04 Format: Gerber/RS-274X *
G04 PCB-Dimensions: 375000 325000 *
G04 PCB-Coordinate-Origin: lower left *
%MOIN*%
%FSLAX25Y25*%
%LNFAB*%
%ADD193C,0.0100*%
%ADD192C,0.0075*%
%ADD191C,0.0060*%
%ADD190R,0.0080X0.0080*%
G54D190*X107400Y304600D02*X110600D01*
X107400D02*Y301400D01*
X110600D01*
Y304600D02*Y301400D01*
X13400Y337850D02*X16600D01*
X13400D02*Y334650D01*
X16600D01*
Y337850D02*Y334650D01*
G54D191*X135000Y338500D02*X136500Y335500D01*
X138000Y338500D01*
X136500Y335500D02*Y332500D01*
X139800Y335800D02*X142050D01*
X139800Y332500D02*X142800D01*
X139800Y338500D02*Y332500D01*
Y338500D02*X142800D01*
X147600D02*X148350Y337750D01*
X145350Y338500D02*X147600D01*
X144600Y337750D02*X145350Y338500D01*
X144600Y337750D02*Y336250D01*
X145350Y335500D01*
X147600D01*
X148350Y334750D01*
Y333250D01*
X147600Y332500D02*X148350Y333250D01*
X145350Y332500D02*X147600D01*
X144600Y333250D02*X145350Y332500D01*
X98000Y337300D02*X99200Y338500D01*
Y332500D01*
X98000D02*X100250D01*
X45000Y333250D02*X45750Y332500D01*
X45000Y337750D02*Y333250D01*
Y337750D02*X45750Y338500D01*
X47250D01*
X48000Y337750D01*
Y333250D01*
X47250Y332500D02*X48000Y333250D01*
X45750Y332500D02*X47250D01*
X45000Y334000D02*X48000Y337000D01*
X49800Y332500D02*X50550D01*
X52350Y337300D02*X53550Y338500D01*
Y332500D01*
X52350D02*X54600D01*
X56400Y337300D02*X57600Y338500D01*
Y332500D01*
X56400D02*X58650D01*
X62700Y338500D02*X63450Y337750D01*
X61200Y338500D02*X62700D01*
X60450Y337750D02*X61200Y338500D01*
X60450Y337750D02*Y333250D01*
X61200Y332500D01*
X62700Y335800D02*X63450Y335050D01*
X60450Y335800D02*X62700D01*
X61200Y332500D02*X62700D01*
X63450Y333250D01*
Y335050D02*Y333250D01*
X228644Y204775D02*G75*G03X230244Y204775I800J0D01*G01*
G75*G03X228644Y204775I-800J0D01*G01*
Y194775D02*G75*G03X230244Y194775I800J0D01*G01*
G75*G03X228644Y194775I-800J0D01*G01*
Y184775D02*G75*G03X230244Y184775I800J0D01*G01*
G75*G03X228644Y184775I-800J0D01*G01*
Y174775D02*G75*G03X230244Y174775I800J0D01*G01*
G75*G03X228644Y174775I-800J0D01*G01*
X218644D02*G75*G03X220244Y174775I800J0D01*G01*
G75*G03X218644Y174775I-800J0D01*G01*
Y184775D02*G75*G03X220244Y184775I800J0D01*G01*
G75*G03X218644Y184775I-800J0D01*G01*
Y194775D02*G75*G03X220244Y194775I800J0D01*G01*
G75*G03X218644Y194775I-800J0D01*G01*
Y204775D02*G75*G03X220244Y204775I800J0D01*G01*
G75*G03X218644Y204775I-800J0D01*G01*
X14200Y351250D02*G75*G03X15800Y351250I800J0D01*G01*
G75*G03X14200Y351250I-800J0D01*G01*
X135000Y353500D02*X136500Y350500D01*
X138000Y353500D01*
X136500Y350500D02*Y347500D01*
X139800Y350800D02*X142050D01*
X139800Y347500D02*X142800D01*
X139800Y353500D02*Y347500D01*
Y353500D02*X142800D01*
X147600D02*X148350Y352750D01*
X145350Y353500D02*X147600D01*
X144600Y352750D02*X145350Y353500D01*
X144600Y352750D02*Y351250D01*
X145350Y350500D01*
X147600D01*
X148350Y349750D01*
Y348250D01*
X147600Y347500D02*X148350Y348250D01*
X145350Y347500D02*X147600D01*
X144600Y348250D02*X145350Y347500D01*
X98000Y348250D02*X98750Y347500D01*
X98000Y349450D02*Y348250D01*
Y349450D02*X99050Y350500D01*
X99950D01*
X101000Y349450D01*
Y348250D01*
X100250Y347500D02*X101000Y348250D01*
X98750Y347500D02*X100250D01*
X98000Y351550D02*X99050Y350500D01*
X98000Y352750D02*Y351550D01*
Y352750D02*X98750Y353500D01*
X100250D01*
X101000Y352750D01*
Y351550D01*
X99950Y350500D02*X101000Y351550D01*
X45000Y348250D02*X45750Y347500D01*
X45000Y352750D02*Y348250D01*
Y352750D02*X45750Y353500D01*
X47250D01*
X48000Y352750D01*
Y348250D01*
X47250Y347500D02*X48000Y348250D01*
X45750Y347500D02*X47250D01*
X45000Y349000D02*X48000Y352000D01*
X49800Y347500D02*X50550D01*
X52350Y348250D02*X53100Y347500D01*
X52350Y352750D02*Y348250D01*
Y352750D02*X53100Y353500D01*
X54600D01*
X55350Y352750D01*
Y348250D01*
X54600Y347500D02*X55350Y348250D01*
X53100Y347500D02*X54600D01*
X52350Y349000D02*X55350Y352000D01*
X57150Y352750D02*X57900Y353500D01*
X59400D01*
X60150Y352750D01*
X59400Y347500D02*X60150Y348250D01*
X57900Y347500D02*X59400D01*
X57150Y348250D02*X57900Y347500D01*
Y350800D02*X59400D01*
X60150Y352750D02*Y351550D01*
Y350050D02*Y348250D01*
Y350050D02*X59400Y350800D01*
X60150Y351550D02*X59400Y350800D01*
X61950Y348250D02*X62700Y347500D01*
X61950Y349450D02*Y348250D01*
Y349450D02*X63000Y350500D01*
X63900D01*
X64950Y349450D01*
Y348250D01*
X64200Y347500D02*X64950Y348250D01*
X62700Y347500D02*X64200D01*
X61950Y351550D02*X63000Y350500D01*
X61950Y352750D02*Y351550D01*
Y352750D02*X62700Y353500D01*
X64200D01*
X64950Y352750D01*
Y351550D01*
X63900Y350500D02*X64950Y351550D01*
X238244Y149975D02*X240644Y147575D01*
X238244D02*X240644Y149975D01*
X209244Y215975D02*X211644Y213575D01*
X209244D02*X211644Y215975D01*
X81224Y268995D02*X83624Y266595D01*
X81224D02*X83624Y268995D01*
X134374D02*X136774Y266595D01*
X134374D02*X136774Y268995D01*
X13800Y367450D02*X16200Y365050D01*
X13800D02*X16200Y367450D01*
X135000Y368500D02*X136500Y365500D01*
X138000Y368500D01*
X136500Y365500D02*Y362500D01*
X139800Y365800D02*X142050D01*
X139800Y362500D02*X142800D01*
X139800Y368500D02*Y362500D01*
Y368500D02*X142800D01*
X147600D02*X148350Y367750D01*
X145350Y368500D02*X147600D01*
X144600Y367750D02*X145350Y368500D01*
X144600Y367750D02*Y366250D01*
X145350Y365500D01*
X147600D01*
X148350Y364750D01*
Y363250D01*
X147600Y362500D02*X148350Y363250D01*
X145350Y362500D02*X147600D01*
X144600Y363250D02*X145350Y362500D01*
X98000Y364750D02*X101000Y368500D01*
X98000Y364750D02*X101750D01*
X101000Y368500D02*Y362500D01*
X45000Y363250D02*X45750Y362500D01*
X45000Y367750D02*Y363250D01*
Y367750D02*X45750Y368500D01*
X47250D01*
X48000Y367750D01*
Y363250D01*
X47250Y362500D02*X48000Y363250D01*
X45750Y362500D02*X47250D01*
X45000Y364000D02*X48000Y367000D01*
X49800Y362500D02*X50550D01*
X52350Y363250D02*X53100Y362500D01*
X52350Y367750D02*Y363250D01*
Y367750D02*X53100Y368500D01*
X54600D01*
X55350Y367750D01*
Y363250D01*
X54600Y362500D02*X55350Y363250D01*
X53100Y362500D02*X54600D01*
X52350Y364000D02*X55350Y367000D01*
X57150Y367750D02*X57900Y368500D01*
X59400D01*
X60150Y367750D01*
X59400Y362500D02*X60150Y363250D01*
X57900Y362500D02*X59400D01*
X57150Y363250D02*X57900Y362500D01*
Y365800D02*X59400D01*
X60150Y367750D02*Y366550D01*
Y365050D02*Y363250D01*
Y365050D02*X59400Y365800D01*
X60150Y366550D02*X59400Y365800D01*
X61950Y368500D02*X64950D01*
X61950D02*Y365500D01*
X62700Y366250D01*
X64200D01*
X64950Y365500D01*
Y363250D01*
X64200Y362500D02*X64950Y363250D01*
X62700Y362500D02*X64200D01*
X61950Y363250D02*X62700Y362500D01*
X82444Y204375D02*Y201175D01*
X80844Y202775D02*X84044D01*
X82444Y194375D02*Y191175D01*
X80844Y192775D02*X84044D01*
X82444Y184375D02*Y181175D01*
X80844Y182775D02*X84044D01*
X82444Y174375D02*Y171175D01*
X80844Y172775D02*X84044D01*
X82444Y164375D02*Y161175D01*
X80844Y162775D02*X84044D01*
X82444Y154375D02*Y151175D01*
X80844Y152775D02*X84044D01*
X82444Y144375D02*Y141175D01*
X80844Y142775D02*X84044D01*
X82444Y134375D02*Y131175D01*
X80844Y132775D02*X84044D01*
X112444Y134375D02*Y131175D01*
X110844Y132775D02*X114044D01*
X112444Y144375D02*Y141175D01*
X110844Y142775D02*X114044D01*
X112444Y154375D02*Y151175D01*
X110844Y152775D02*X114044D01*
X112444Y164375D02*Y161175D01*
X110844Y162775D02*X114044D01*
X112444Y174375D02*Y171175D01*
X110844Y172775D02*X114044D01*
X112444Y184375D02*Y181175D01*
X110844Y182775D02*X114044D01*
X112444Y194375D02*Y191175D01*
X110844Y192775D02*X114044D01*
X112444Y204375D02*Y201175D01*
X110844Y202775D02*X114044D01*
X15000Y382850D02*Y379650D01*
X13400Y381250D02*X16600D01*
X135000Y383500D02*X136500Y380500D01*
X138000Y383500D01*
X136500Y380500D02*Y377500D01*
X139800Y380800D02*X142050D01*
X139800Y377500D02*X142800D01*
X139800Y383500D02*Y377500D01*
Y383500D02*X142800D01*
X147600D02*X148350Y382750D01*
X145350Y383500D02*X147600D01*
X144600Y382750D02*X145350Y383500D01*
X144600Y382750D02*Y381250D01*
X145350Y380500D01*
X147600D01*
X148350Y379750D01*
Y378250D01*
X147600Y377500D02*X148350Y378250D01*
X145350Y377500D02*X147600D01*
X144600Y378250D02*X145350Y377500D01*
X98000Y382300D02*X99200Y383500D01*
Y377500D01*
X98000D02*X100250D01*
X104300Y383500D02*X105050Y382750D01*
X102800Y383500D02*X104300D01*
X102050Y382750D02*X102800Y383500D01*
X102050Y382750D02*Y378250D01*
X102800Y377500D01*
X104300Y380800D02*X105050Y380050D01*
X102050Y380800D02*X104300D01*
X102800Y377500D02*X104300D01*
X105050Y378250D01*
Y380050D02*Y378250D01*
X45000D02*X45750Y377500D01*
X45000Y382750D02*Y378250D01*
Y382750D02*X45750Y383500D01*
X47250D01*
X48000Y382750D01*
Y378250D01*
X47250Y377500D02*X48000Y378250D01*
X45750Y377500D02*X47250D01*
X45000Y379000D02*X48000Y382000D01*
X49800Y377500D02*X50550D01*
X52350Y378250D02*X53100Y377500D01*
X52350Y382750D02*Y378250D01*
Y382750D02*X53100Y383500D01*
X54600D01*
X55350Y382750D01*
Y378250D01*
X54600Y377500D02*X55350Y378250D01*
X53100Y377500D02*X54600D01*
X52350Y379000D02*X55350Y382000D01*
X57150Y382750D02*X57900Y383500D01*
X60150D01*
X60900Y382750D01*
Y381250D01*
X57150Y377500D02*X60900Y381250D01*
X57150Y377500D02*X60900D01*
X62700Y378250D02*X63450Y377500D01*
X62700Y379450D02*Y378250D01*
Y379450D02*X63750Y380500D01*
X64650D01*
X65700Y379450D01*
Y378250D01*
X64950Y377500D02*X65700Y378250D01*
X63450Y377500D02*X64950D01*
X62700Y381550D02*X63750Y380500D01*
X62700Y382750D02*Y381550D01*
Y382750D02*X63450Y383500D01*
X64950D01*
X65700Y382750D01*
Y381550D01*
X64650Y380500D02*X65700Y381550D01*
X139444Y241775D02*Y240175D01*
Y241775D02*X140831Y242575D01*
X139444Y241775D02*X138057Y242575D01*
X120444Y255775D02*Y254175D01*
Y255775D02*X121831Y256575D01*
X120444Y255775D02*X119057Y256575D01*
X194444Y204775D02*Y203175D01*
Y204775D02*X195831Y205575D01*
X194444Y204775D02*X193057Y205575D01*
X200444Y184775D02*Y183175D01*
Y184775D02*X201831Y185575D01*
X200444Y184775D02*X199057Y185575D01*
X196444Y243775D02*Y242175D01*
Y243775D02*X197831Y244575D01*
X196444Y243775D02*X195057Y244575D01*
X123444Y240775D02*Y239175D01*
Y240775D02*X124831Y241575D01*
X123444Y240775D02*X122057Y241575D01*
X119444Y235775D02*Y234175D01*
Y235775D02*X120831Y236575D01*
X119444Y235775D02*X118057Y236575D01*
X130444Y283775D02*Y282175D01*
Y283775D02*X131831Y284575D01*
X130444Y283775D02*X129057Y284575D01*
X136444Y278775D02*Y277175D01*
Y278775D02*X137831Y279575D01*
X136444Y278775D02*X135057Y279575D01*
X117444Y281775D02*Y280175D01*
Y281775D02*X118831Y282575D01*
X117444Y281775D02*X116057Y282575D01*
X65444Y245775D02*Y244175D01*
Y245775D02*X66831Y246575D01*
X65444Y245775D02*X64057Y246575D01*
X49444Y245775D02*Y244175D01*
Y245775D02*X50831Y246575D01*
X49444Y245775D02*X48057Y246575D01*
X57444Y245775D02*Y244175D01*
Y245775D02*X58831Y246575D01*
X57444Y245775D02*X56057Y246575D01*
X73444Y245775D02*Y244175D01*
Y245775D02*X74831Y246575D01*
X73444Y245775D02*X72057Y246575D01*
X106444Y235775D02*Y234175D01*
Y235775D02*X107831Y236575D01*
X106444Y235775D02*X105057Y236575D01*
X90444Y235775D02*Y234175D01*
Y235775D02*X91831Y236575D01*
X90444Y235775D02*X89057Y236575D01*
X73444Y268775D02*Y267175D01*
Y268775D02*X74831Y269575D01*
X73444Y268775D02*X72057Y269575D01*
X89444Y279775D02*Y278175D01*
Y279775D02*X90831Y280575D01*
X89444Y279775D02*X88057Y280575D01*
X96444Y279775D02*Y278175D01*
Y279775D02*X97831Y280575D01*
X96444Y279775D02*X95057Y280575D01*
X103444Y279775D02*Y278175D01*
Y279775D02*X104831Y280575D01*
X103444Y279775D02*X102057Y280575D01*
X82444Y235775D02*Y234175D01*
Y235775D02*X83831Y236575D01*
X82444Y235775D02*X81057Y236575D01*
X99444Y235775D02*Y234175D01*
Y235775D02*X100831Y236575D01*
X99444Y235775D02*X98057Y236575D01*
X106444Y264775D02*Y263175D01*
Y264775D02*X107831Y265575D01*
X106444Y264775D02*X105057Y265575D01*
X100444Y264775D02*Y263175D01*
Y264775D02*X101831Y265575D01*
X100444Y264775D02*X99057Y265575D01*
X94444Y264775D02*Y263175D01*
Y264775D02*X95831Y265575D01*
X94444Y264775D02*X93057Y265575D01*
X87444Y264775D02*Y263175D01*
Y264775D02*X88831Y265575D01*
X87444Y264775D02*X86057Y265575D01*
X15000Y396250D02*Y394650D01*
Y396250D02*X16387Y397050D01*
X15000Y396250D02*X13613Y397050D01*
X135000Y398500D02*X136500Y395500D01*
X138000Y398500D01*
X136500Y395500D02*Y392500D01*
X139800Y395800D02*X142050D01*
X139800Y392500D02*X142800D01*
X139800Y398500D02*Y392500D01*
Y398500D02*X142800D01*
X147600D02*X148350Y397750D01*
X145350Y398500D02*X147600D01*
X144600Y397750D02*X145350Y398500D01*
X144600Y397750D02*Y396250D01*
X145350Y395500D01*
X147600D01*
X148350Y394750D01*
Y393250D01*
X147600Y392500D02*X148350Y393250D01*
X145350Y392500D02*X147600D01*
X144600Y393250D02*X145350Y392500D01*
X98000Y397750D02*X98750Y398500D01*
X101000D01*
X101750Y397750D01*
Y396250D01*
X98000Y392500D02*X101750Y396250D01*
X98000Y392500D02*X101750D01*
X105800Y398500D02*X106550Y397750D01*
X104300Y398500D02*X105800D01*
X103550Y397750D02*X104300Y398500D01*
X103550Y397750D02*Y393250D01*
X104300Y392500D01*
X105800Y395800D02*X106550Y395050D01*
X103550Y395800D02*X105800D01*
X104300Y392500D02*X105800D01*
X106550Y393250D01*
Y395050D02*Y393250D01*
X45000D02*X45750Y392500D01*
X45000Y397750D02*Y393250D01*
Y397750D02*X45750Y398500D01*
X47250D01*
X48000Y397750D01*
Y393250D01*
X47250Y392500D02*X48000Y393250D01*
X45750Y392500D02*X47250D01*
X45000Y394000D02*X48000Y397000D01*
X49800Y392500D02*X50550D01*
X52350Y393250D02*X53100Y392500D01*
X52350Y397750D02*Y393250D01*
Y397750D02*X53100Y398500D01*
X54600D01*
X55350Y397750D01*
Y393250D01*
X54600Y392500D02*X55350Y393250D01*
X53100Y392500D02*X54600D01*
X52350Y394000D02*X55350Y397000D01*
X57150Y397750D02*X57900Y398500D01*
X60150D01*
X60900Y397750D01*
Y396250D01*
X57150Y392500D02*X60900Y396250D01*
X57150Y392500D02*X60900D01*
X62700Y393250D02*X63450Y392500D01*
X62700Y397750D02*Y393250D01*
Y397750D02*X63450Y398500D01*
X64950D01*
X65700Y397750D01*
Y393250D01*
X64950Y392500D02*X65700Y393250D01*
X63450Y392500D02*X64950D01*
X62700Y394000D02*X65700Y397000D01*
X3000Y413500D02*X3750Y412750D01*
X750Y413500D02*X3000D01*
X0Y412750D02*X750Y413500D01*
X0Y412750D02*Y411250D01*
X750Y410500D01*
X3000D01*
X3750Y409750D01*
Y408250D01*
X3000Y407500D02*X3750Y408250D01*
X750Y407500D02*X3000D01*
X0Y408250D02*X750Y407500D01*
X5550Y410500D02*Y408250D01*
X6300Y407500D01*
X8550Y410500D02*Y406000D01*
X7800Y405250D02*X8550Y406000D01*
X6300Y405250D02*X7800D01*
X5550Y406000D02*X6300Y405250D01*
Y407500D02*X7800D01*
X8550Y408250D01*
X11100Y409750D02*Y407500D01*
Y409750D02*X11850Y410500D01*
X12600D01*
X13350Y409750D01*
Y407500D01*
Y409750D02*X14100Y410500D01*
X14850D01*
X15600Y409750D01*
Y407500D01*
X10350Y410500D02*X11100Y409750D01*
X17400Y413500D02*Y407500D01*
Y408250D02*X18150Y407500D01*
X19650D01*
X20400Y408250D01*
Y409750D02*Y408250D01*
X19650Y410500D02*X20400Y409750D01*
X18150Y410500D02*X19650D01*
X17400Y409750D02*X18150Y410500D01*
X22200Y409750D02*Y408250D01*
Y409750D02*X22950Y410500D01*
X24450D01*
X25200Y409750D01*
Y408250D01*
X24450Y407500D02*X25200Y408250D01*
X22950Y407500D02*X24450D01*
X22200Y408250D02*X22950Y407500D01*
X27000Y413500D02*Y408250D01*
X27750Y407500D01*
X0Y404250D02*X29250D01*
X41750Y413500D02*Y407500D01*
X43700Y413500D02*X44750Y412450D01*
Y408550D01*
X43700Y407500D02*X44750Y408550D01*
X41000Y407500D02*X43700D01*
X41000Y413500D02*X43700D01*
G54D192*X46550Y412000D02*Y411850D01*
G54D191*Y409750D02*Y407500D01*
X50300Y410500D02*X51050Y409750D01*
X48800Y410500D02*X50300D01*
X48050Y409750D02*X48800Y410500D01*
X48050Y409750D02*Y408250D01*
X48800Y407500D01*
X51050Y410500D02*Y408250D01*
X51800Y407500D01*
X48800D02*X50300D01*
X51050Y408250D01*
X54350Y409750D02*Y407500D01*
Y409750D02*X55100Y410500D01*
X55850D01*
X56600Y409750D01*
Y407500D01*
Y409750D02*X57350Y410500D01*
X58100D01*
X58850Y409750D01*
Y407500D01*
X53600Y410500D02*X54350Y409750D01*
X60650Y407500D02*X61400D01*
X65900Y408250D02*X66650Y407500D01*
X65900Y412750D02*X66650Y413500D01*
X65900Y412750D02*Y408250D01*
X68450Y413500D02*X69950D01*
X69200D02*Y407500D01*
X68450D02*X69950D01*
X72500Y409750D02*Y407500D01*
Y409750D02*X73250Y410500D01*
X74000D01*
X74750Y409750D01*
Y407500D01*
X71750Y410500D02*X72500Y409750D01*
X77300Y410500D02*X79550D01*
X76550Y409750D02*X77300Y410500D01*
X76550Y409750D02*Y408250D01*
X77300Y407500D01*
X79550D01*
X81350Y413500D02*Y407500D01*
Y409750D02*X82100Y410500D01*
X83600D01*
X84350Y409750D01*
Y407500D01*
X86150Y413500D02*X86900Y412750D01*
Y408250D01*
X86150Y407500D02*X86900Y408250D01*
X41000Y404250D02*X88700D01*
X96050Y407500D02*X98000D01*
X95000Y408550D02*X96050Y407500D01*
X95000Y412450D02*Y408550D01*
Y412450D02*X96050Y413500D01*
X98000D01*
X99800Y409750D02*Y408250D01*
Y409750D02*X100550Y410500D01*
X102050D01*
X102800Y409750D01*
Y408250D01*
X102050Y407500D02*X102800Y408250D01*
X100550Y407500D02*X102050D01*
X99800Y408250D02*X100550Y407500D01*
X104600Y410500D02*Y408250D01*
X105350Y407500D01*
X106850D01*
X107600Y408250D01*
Y410500D02*Y408250D01*
X110150Y409750D02*Y407500D01*
Y409750D02*X110900Y410500D01*
X111650D01*
X112400Y409750D01*
Y407500D01*
X109400Y410500D02*X110150Y409750D01*
X114950Y413500D02*Y408250D01*
X115700Y407500D01*
X114200Y411250D02*X115700D01*
X95000Y404250D02*X117200D01*
X130750Y413500D02*Y407500D01*
X130000Y413500D02*X133000D01*
X133750Y412750D01*
Y411250D01*
X133000Y410500D02*X133750Y411250D01*
X130750Y410500D02*X133000D01*
X135550Y413500D02*Y408250D01*
X136300Y407500D01*
X140050Y410500D02*X140800Y409750D01*
X138550Y410500D02*X140050D01*
X137800Y409750D02*X138550Y410500D01*
X137800Y409750D02*Y408250D01*
X138550Y407500D01*
X140800Y410500D02*Y408250D01*
X141550Y407500D01*
X138550D02*X140050D01*
X140800Y408250D01*
X144100Y413500D02*Y408250D01*
X144850Y407500D01*
X143350Y411250D02*X144850D01*
X147100Y407500D02*X149350D01*
X146350Y408250D02*X147100Y407500D01*
X146350Y409750D02*Y408250D01*
Y409750D02*X147100Y410500D01*
X148600D01*
X149350Y409750D01*
X146350Y409000D02*X149350D01*
Y409750D02*Y409000D01*
X154150Y413500D02*Y407500D01*
X153400D02*X154150Y408250D01*
X151900Y407500D02*X153400D01*
X151150Y408250D02*X151900Y407500D01*
X151150Y409750D02*Y408250D01*
Y409750D02*X151900Y410500D01*
X153400D01*
X154150Y409750D01*
X157450Y410500D02*Y409750D01*
Y408250D02*Y407500D01*
X155950Y412750D02*Y412000D01*
Y412750D02*X156700Y413500D01*
X158200D01*
X158950Y412750D01*
Y412000D01*
X157450Y410500D02*X158950Y412000D01*
X130000Y404250D02*X160750D01*
X0Y428500D02*X3000D01*
X1500D02*Y422500D01*
X4800Y428500D02*Y422500D01*
Y424750D02*X5550Y425500D01*
X7050D01*
X7800Y424750D01*
Y422500D01*
X10350D02*X12600D01*
X9600Y423250D02*X10350Y422500D01*
X9600Y424750D02*Y423250D01*
Y424750D02*X10350Y425500D01*
X11850D01*
X12600Y424750D01*
X9600Y424000D02*X12600D01*
Y424750D02*Y424000D01*
X15150Y424750D02*Y422500D01*
Y424750D02*X15900Y425500D01*
X17400D01*
X14400D02*X15150Y424750D01*
X19950Y422500D02*X22200D01*
X19200Y423250D02*X19950Y422500D01*
X19200Y424750D02*Y423250D01*
Y424750D02*X19950Y425500D01*
X21450D01*
X22200Y424750D01*
X19200Y424000D02*X22200D01*
Y424750D02*Y424000D01*
X28950Y425500D02*X29700Y424750D01*
X27450Y425500D02*X28950D01*
X26700Y424750D02*X27450Y425500D01*
X26700Y424750D02*Y423250D01*
X27450Y422500D01*
X29700Y425500D02*Y423250D01*
X30450Y422500D01*
X27450D02*X28950D01*
X29700Y423250D01*
X33000Y424750D02*Y422500D01*
Y424750D02*X33750Y425500D01*
X35250D01*
X32250D02*X33000Y424750D01*
X37800Y422500D02*X40050D01*
X37050Y423250D02*X37800Y422500D01*
X37050Y424750D02*Y423250D01*
Y424750D02*X37800Y425500D01*
X39300D01*
X40050Y424750D01*
X37050Y424000D02*X40050D01*
Y424750D02*Y424000D01*
X44550Y428500D02*X47550D01*
X44550D02*Y425500D01*
X45300Y426250D01*
X46800D01*
X47550Y425500D01*
Y423250D01*
X46800Y422500D02*X47550Y423250D01*
X45300Y422500D02*X46800D01*
X44550Y423250D02*X45300Y422500D01*
X55050Y428500D02*Y422500D01*
X54300D02*X55050Y423250D01*
X52800Y422500D02*X54300D01*
X52050Y423250D02*X52800Y422500D01*
X52050Y424750D02*Y423250D01*
Y424750D02*X52800Y425500D01*
X54300D01*
X55050Y424750D01*
G54D192*X56850Y427000D02*Y426850D01*
G54D191*Y424750D02*Y422500D01*
X59100Y427750D02*Y422500D01*
Y427750D02*X59850Y428500D01*
X60600D01*
X58350Y425500D02*X59850D01*
X62850Y427750D02*Y422500D01*
Y427750D02*X63600Y428500D01*
X64350D01*
X62100Y425500D02*X63600D01*
X66600Y422500D02*X68850D01*
X65850Y423250D02*X66600Y422500D01*
X65850Y424750D02*Y423250D01*
Y424750D02*X66600Y425500D01*
X68100D01*
X68850Y424750D01*
X65850Y424000D02*X68850D01*
Y424750D02*Y424000D01*
X71400Y424750D02*Y422500D01*
Y424750D02*X72150Y425500D01*
X73650D01*
X70650D02*X71400Y424750D01*
X76200Y422500D02*X78450D01*
X75450Y423250D02*X76200Y422500D01*
X75450Y424750D02*Y423250D01*
Y424750D02*X76200Y425500D01*
X77700D01*
X78450Y424750D01*
X75450Y424000D02*X78450D01*
Y424750D02*Y424000D01*
X81000Y424750D02*Y422500D01*
Y424750D02*X81750Y425500D01*
X82500D01*
X83250Y424750D01*
Y422500D01*
X80250Y425500D02*X81000Y424750D01*
X85800Y428500D02*Y423250D01*
X86550Y422500D01*
X85050Y426250D02*X86550D01*
X93750Y428500D02*Y422500D01*
X93000D02*X93750Y423250D01*
X91500Y422500D02*X93000D01*
X90750Y423250D02*X91500Y422500D01*
X90750Y424750D02*Y423250D01*
Y424750D02*X91500Y425500D01*
X93000D01*
X93750Y424750D01*
X96300D02*Y422500D01*
Y424750D02*X97050Y425500D01*
X98550D01*
X95550D02*X96300Y424750D01*
G54D192*X100350Y427000D02*Y426850D01*
G54D191*Y424750D02*Y422500D01*
X101850Y428500D02*Y423250D01*
X102600Y422500D01*
X104100Y428500D02*Y423250D01*
X104850Y422500D01*
X109800D02*X112050D01*
X112800Y423250D01*
X112050Y424000D02*X112800Y423250D01*
X109800Y424000D02*X112050D01*
X109050Y424750D02*X109800Y424000D01*
X109050Y424750D02*X109800Y425500D01*
X112050D01*
X112800Y424750D01*
X109050Y423250D02*X109800Y422500D01*
G54D192*X114600Y427000D02*Y426850D01*
G54D191*Y424750D02*Y422500D01*
X116100Y425500D02*X119100D01*
X116100Y422500D02*X119100Y425500D01*
X116100Y422500D02*X119100D01*
X121650D02*X123900D01*
X120900Y423250D02*X121650Y422500D01*
X120900Y424750D02*Y423250D01*
Y424750D02*X121650Y425500D01*
X123150D01*
X123900Y424750D01*
X120900Y424000D02*X123900D01*
Y424750D02*Y424000D01*
X126450Y422500D02*X128700D01*
X129450Y423250D01*
X128700Y424000D02*X129450Y423250D01*
X126450Y424000D02*X128700D01*
X125700Y424750D02*X126450Y424000D01*
X125700Y424750D02*X126450Y425500D01*
X128700D01*
X129450Y424750D01*
X125700Y423250D02*X126450Y422500D01*
X133950Y425500D02*Y423250D01*
X134700Y422500D01*
X136200D01*
X136950Y423250D01*
Y425500D02*Y423250D01*
X139500Y422500D02*X141750D01*
X142500Y423250D01*
X141750Y424000D02*X142500Y423250D01*
X139500Y424000D02*X141750D01*
X138750Y424750D02*X139500Y424000D01*
X138750Y424750D02*X139500Y425500D01*
X141750D01*
X142500Y424750D01*
X138750Y423250D02*X139500Y422500D01*
X145050D02*X147300D01*
X144300Y423250D02*X145050Y422500D01*
X144300Y424750D02*Y423250D01*
Y424750D02*X145050Y425500D01*
X146550D01*
X147300Y424750D01*
X144300Y424000D02*X147300D01*
Y424750D02*Y424000D01*
X152100Y428500D02*Y422500D01*
X151350D02*X152100Y423250D01*
X149850Y422500D02*X151350D01*
X149100Y423250D02*X149850Y422500D01*
X149100Y424750D02*Y423250D01*
Y424750D02*X149850Y425500D01*
X151350D01*
X152100Y424750D01*
G54D192*X156600Y427000D02*Y426850D01*
G54D191*Y424750D02*Y422500D01*
X158850Y424750D02*Y422500D01*
Y424750D02*X159600Y425500D01*
X160350D01*
X161100Y424750D01*
Y422500D01*
X158100Y425500D02*X158850Y424750D01*
X166350Y428500D02*Y423250D01*
X167100Y422500D01*
X165600Y426250D02*X167100D01*
X168600Y428500D02*Y422500D01*
Y424750D02*X169350Y425500D01*
X170850D01*
X171600Y424750D01*
Y422500D01*
G54D192*X173400Y427000D02*Y426850D01*
G54D191*Y424750D02*Y422500D01*
X175650D02*X177900D01*
X178650Y423250D01*
X177900Y424000D02*X178650Y423250D01*
X175650Y424000D02*X177900D01*
X174900Y424750D02*X175650Y424000D01*
X174900Y424750D02*X175650Y425500D01*
X177900D01*
X178650Y424750D01*
X174900Y423250D02*X175650Y422500D01*
X183150Y428500D02*Y423250D01*
X183900Y422500D01*
X187650Y425500D02*X188400Y424750D01*
X186150Y425500D02*X187650D01*
X185400Y424750D02*X186150Y425500D01*
X185400Y424750D02*Y423250D01*
X186150Y422500D01*
X188400Y425500D02*Y423250D01*
X189150Y422500D01*
X186150D02*X187650D01*
X188400Y423250D01*
X190950Y425500D02*Y423250D01*
X191700Y422500D01*
X193950Y425500D02*Y421000D01*
X193200Y420250D02*X193950Y421000D01*
X191700Y420250D02*X193200D01*
X190950Y421000D02*X191700Y420250D01*
Y422500D02*X193200D01*
X193950Y423250D01*
X195750Y424750D02*Y423250D01*
Y424750D02*X196500Y425500D01*
X198000D01*
X198750Y424750D01*
Y423250D01*
X198000Y422500D02*X198750Y423250D01*
X196500Y422500D02*X198000D01*
X195750Y423250D02*X196500Y422500D01*
X200550Y425500D02*Y423250D01*
X201300Y422500D01*
X202800D01*
X203550Y423250D01*
Y425500D02*Y423250D01*
X206100Y428500D02*Y423250D01*
X206850Y422500D01*
X205350Y426250D02*X206850D01*
X208350Y421000D02*X209850Y422500D01*
X214350Y428500D02*X217350D01*
X214350D02*Y425500D01*
X215100Y426250D01*
X216600D01*
X217350Y425500D01*
Y423250D01*
X216600Y422500D02*X217350Y423250D01*
X215100Y422500D02*X216600D01*
X214350Y423250D02*X215100Y422500D01*
X219150Y428500D02*X222150D01*
X219150D02*Y425500D01*
X219900Y426250D01*
X221400D01*
X222150Y425500D01*
Y423250D01*
X221400Y422500D02*X222150Y423250D01*
X219900Y422500D02*X221400D01*
X219150Y423250D02*X219900Y422500D01*
X226650Y428500D02*Y422500D01*
Y424750D02*X227400Y425500D01*
X228900D01*
X229650Y424750D01*
Y422500D01*
X231450Y424750D02*Y423250D01*
Y424750D02*X232200Y425500D01*
X233700D01*
X234450Y424750D01*
Y423250D01*
X233700Y422500D02*X234450Y423250D01*
X232200Y422500D02*X233700D01*
X231450Y423250D02*X232200Y422500D01*
X236250Y428500D02*Y423250D01*
X237000Y422500D01*
X239250D02*X241500D01*
X238500Y423250D02*X239250Y422500D01*
X238500Y424750D02*Y423250D01*
Y424750D02*X239250Y425500D01*
X240750D01*
X241500Y424750D01*
X238500Y424000D02*X241500D01*
Y424750D02*Y424000D01*
X244050Y422500D02*X246300D01*
X247050Y423250D01*
X246300Y424000D02*X247050Y423250D01*
X244050Y424000D02*X246300D01*
X243300Y424750D02*X244050Y424000D01*
X243300Y424750D02*X244050Y425500D01*
X246300D01*
X247050Y424750D01*
X243300Y423250D02*X244050Y422500D01*
X252300Y428500D02*Y423250D01*
X253050Y422500D01*
X251550Y426250D02*X253050D01*
X254550Y424750D02*Y423250D01*
Y424750D02*X255300Y425500D01*
X256800D01*
X257550Y424750D01*
Y423250D01*
X256800Y422500D02*X257550Y423250D01*
X255300Y422500D02*X256800D01*
X254550Y423250D02*X255300Y422500D01*
X260100Y428500D02*Y423250D01*
X260850Y422500D01*
X259350Y426250D02*X260850D01*
X264600Y425500D02*X265350Y424750D01*
X263100Y425500D02*X264600D01*
X262350Y424750D02*X263100Y425500D01*
X262350Y424750D02*Y423250D01*
X263100Y422500D01*
X265350Y425500D02*Y423250D01*
X266100Y422500D01*
X263100D02*X264600D01*
X265350Y423250D01*
X267900Y428500D02*Y423250D01*
X268650Y422500D01*
G54D193*X248444Y130775D02*Y244775D01*
X157444Y251775D02*X241444D01*
X146444Y283775D02*Y262775D01*
X15444Y119775D02*X237444D01*
X4444Y276775D02*Y130775D01*
X75444Y294775D02*X22444D01*
X101444Y320775D02*X110444D01*
X237444Y119775D02*G75*G03X248444Y130775I0J11000D01*G01*
X241444Y251775D02*G75*G02X248444Y244775I0J-7000D01*G01*
X83444Y302775D02*G75*G02X75444Y294775I-8000J0D01*G01*
X101444Y320775D02*G75*G03X83444Y302775I0J-18000D01*G01*
X146444Y262775D02*G75*G03X157444Y251775I11000J0D01*G01*
X135444Y294775D02*G75*G02X146444Y283775I0J-11000D01*G01*
X4444Y130775D02*G75*G03X15444Y119775I11000J0D01*G01*
X22444Y294775D02*G75*G03X4444Y276775I0J-18000D01*G01*
X135444Y294775D02*G75*G02X127444Y302775I0J8000D01*G01*
X109444Y320775D02*G75*G02X127444Y302775I0J-18000D01*G01*
G54D191*X101175Y-9500D02*X104175D01*
X104925Y-8750D01*
Y-6950D02*Y-8750D01*
X104175Y-6200D02*X104925Y-6950D01*
X101925Y-6200D02*X104175D01*
X101925Y-3500D02*Y-9500D01*
X101175Y-3500D02*X104175D01*
X104925Y-4250D01*
Y-5450D01*
X104175Y-6200D02*X104925Y-5450D01*
X106725Y-7250D02*Y-8750D01*
Y-7250D02*X107475Y-6500D01*
X108975D01*
X109725Y-7250D01*
Y-8750D01*
X108975Y-9500D02*X109725Y-8750D01*
X107475Y-9500D02*X108975D01*
X106725Y-8750D02*X107475Y-9500D01*
X113775Y-6500D02*X114525Y-7250D01*
X112275Y-6500D02*X113775D01*
X111525Y-7250D02*X112275Y-6500D01*
X111525Y-7250D02*Y-8750D01*
X112275Y-9500D01*
X114525Y-6500D02*Y-8750D01*
X115275Y-9500D01*
X112275D02*X113775D01*
X114525Y-8750D01*
X117825Y-7250D02*Y-9500D01*
Y-7250D02*X118575Y-6500D01*
X120075D01*
X117075D02*X117825Y-7250D01*
X124875Y-3500D02*Y-9500D01*
X124125D02*X124875Y-8750D01*
X122625Y-9500D02*X124125D01*
X121875Y-8750D02*X122625Y-9500D01*
X121875Y-7250D02*Y-8750D01*
Y-7250D02*X122625Y-6500D01*
X124125D01*
X124875Y-7250D01*
X129375D02*Y-8750D01*
Y-7250D02*X130125Y-6500D01*
X131625D01*
X132375Y-7250D01*
Y-8750D01*
X131625Y-9500D02*X132375Y-8750D01*
X130125Y-9500D02*X131625D01*
X129375Y-8750D02*X130125Y-9500D01*
X134175Y-6500D02*Y-8750D01*
X134925Y-9500D01*
X136425D01*
X137175Y-8750D01*
Y-6500D02*Y-8750D01*
X139725Y-3500D02*Y-8750D01*
X140475Y-9500D01*
X138975Y-5750D02*X140475D01*
X141975Y-3500D02*Y-8750D01*
X142725Y-9500D01*
G54D192*X144225Y-5000D02*Y-5150D01*
G54D191*Y-7250D02*Y-9500D01*
X146475Y-7250D02*Y-9500D01*
Y-7250D02*X147225Y-6500D01*
X147975D01*
X148725Y-7250D01*
Y-9500D01*
X145725Y-6500D02*X146475Y-7250D01*
X151275Y-9500D02*X153525D01*
X150525Y-8750D02*X151275Y-9500D01*
X150525Y-7250D02*Y-8750D01*
Y-7250D02*X151275Y-6500D01*
X152775D01*
X153525Y-7250D01*
X150525Y-8000D02*X153525D01*
Y-7250D02*Y-8000D01*
G54D192*X158025Y-5000D02*Y-5150D01*
G54D191*Y-7250D02*Y-9500D01*
X160275D02*X162525D01*
X163275Y-8750D01*
X162525Y-8000D02*X163275Y-8750D01*
X160275Y-8000D02*X162525D01*
X159525Y-7250D02*X160275Y-8000D01*
X159525Y-7250D02*X160275Y-6500D01*
X162525D01*
X163275Y-7250D01*
X159525Y-8750D02*X160275Y-9500D01*
X168525Y-3500D02*Y-8750D01*
X169275Y-9500D01*
X167775Y-5750D02*X169275D01*
X170775Y-3500D02*Y-9500D01*
Y-7250D02*X171525Y-6500D01*
X173025D01*
X173775Y-7250D01*
Y-9500D01*
X176325D02*X178575D01*
X175575Y-8750D02*X176325Y-9500D01*
X175575Y-7250D02*Y-8750D01*
Y-7250D02*X176325Y-6500D01*
X177825D01*
X178575Y-7250D01*
X175575Y-8000D02*X178575D01*
Y-7250D02*Y-8000D01*
X183825Y-6500D02*X186075D01*
X183075Y-7250D02*X183825Y-6500D01*
X183075Y-7250D02*Y-8750D01*
X183825Y-9500D01*
X186075D01*
X188625D02*X190875D01*
X187875Y-8750D02*X188625Y-9500D01*
X187875Y-7250D02*Y-8750D01*
Y-7250D02*X188625Y-6500D01*
X190125D01*
X190875Y-7250D01*
X187875Y-8000D02*X190875D01*
Y-7250D02*Y-8000D01*
X193425Y-7250D02*Y-9500D01*
Y-7250D02*X194175Y-6500D01*
X194925D01*
X195675Y-7250D01*
Y-9500D01*
X192675Y-6500D02*X193425Y-7250D01*
X198225Y-3500D02*Y-8750D01*
X198975Y-9500D01*
X197475Y-5750D02*X198975D01*
X201225Y-9500D02*X203475D01*
X200475Y-8750D02*X201225Y-9500D01*
X200475Y-7250D02*Y-8750D01*
Y-7250D02*X201225Y-6500D01*
X202725D01*
X203475Y-7250D01*
X200475Y-8000D02*X203475D01*
Y-7250D02*Y-8000D01*
X206025Y-7250D02*Y-9500D01*
Y-7250D02*X206775Y-6500D01*
X208275D01*
X205275D02*X206025Y-7250D01*
X210075Y-3500D02*Y-8750D01*
X210825Y-9500D01*
G54D192*X212325Y-5000D02*Y-5150D01*
G54D191*Y-7250D02*Y-9500D01*
X214575Y-7250D02*Y-9500D01*
Y-7250D02*X215325Y-6500D01*
X216075D01*
X216825Y-7250D01*
Y-9500D01*
X213825Y-6500D02*X214575Y-7250D01*
X219375Y-9500D02*X221625D01*
X218625Y-8750D02*X219375Y-9500D01*
X218625Y-7250D02*Y-8750D01*
Y-7250D02*X219375Y-6500D01*
X220875D01*
X221625Y-7250D01*
X218625Y-8000D02*X221625D01*
Y-7250D02*Y-8000D01*
X226125Y-7250D02*Y-8750D01*
Y-7250D02*X226875Y-6500D01*
X228375D01*
X229125Y-7250D01*
Y-8750D01*
X228375Y-9500D02*X229125Y-8750D01*
X226875Y-9500D02*X228375D01*
X226125Y-8750D02*X226875Y-9500D01*
X231675Y-4250D02*Y-9500D01*
Y-4250D02*X232425Y-3500D01*
X233175D01*
X230925Y-6500D02*X232425D01*
X238125Y-3500D02*Y-8750D01*
X238875Y-9500D01*
X237375Y-5750D02*X238875D01*
X240375Y-3500D02*Y-9500D01*
Y-7250D02*X241125Y-6500D01*
X242625D01*
X243375Y-7250D01*
Y-9500D01*
G54D192*X245175Y-5000D02*Y-5150D01*
G54D191*Y-7250D02*Y-9500D01*
X247425D02*X249675D01*
X250425Y-8750D01*
X249675Y-8000D02*X250425Y-8750D01*
X247425Y-8000D02*X249675D01*
X246675Y-7250D02*X247425Y-8000D01*
X246675Y-7250D02*X247425Y-6500D01*
X249675D01*
X250425Y-7250D01*
X246675Y-8750D02*X247425Y-9500D01*
X255675Y-7250D02*Y-11750D01*
X254925Y-6500D02*X255675Y-7250D01*
X256425Y-6500D01*
X257925D01*
X258675Y-7250D01*
Y-8750D01*
X257925Y-9500D02*X258675Y-8750D01*
X256425Y-9500D02*X257925D01*
X255675Y-8750D02*X256425Y-9500D01*
X262725Y-6500D02*X263475Y-7250D01*
X261225Y-6500D02*X262725D01*
X260475Y-7250D02*X261225Y-6500D01*
X260475Y-7250D02*Y-8750D01*
X261225Y-9500D01*
X263475Y-6500D02*Y-8750D01*
X264225Y-9500D01*
X261225D02*X262725D01*
X263475Y-8750D01*
X266775Y-3500D02*Y-8750D01*
X267525Y-9500D01*
X266025Y-5750D02*X267525D01*
X269025Y-3500D02*Y-9500D01*
Y-7250D02*X269775Y-6500D01*
X271275D01*
X272025Y-7250D01*
Y-9500D01*
X200750Y353500D02*Y347500D01*
X202700Y353500D02*X203750Y352450D01*
Y348550D01*
X202700Y347500D02*X203750Y348550D01*
X200000Y347500D02*X202700D01*
X200000Y353500D02*X202700D01*
X207800Y350500D02*X208550Y349750D01*
X206300Y350500D02*X207800D01*
X205550Y349750D02*X206300Y350500D01*
X205550Y349750D02*Y348250D01*
X206300Y347500D01*
X208550Y350500D02*Y348250D01*
X209300Y347500D01*
X206300D02*X207800D01*
X208550Y348250D01*
X211850Y353500D02*Y348250D01*
X212600Y347500D01*
X211100Y351250D02*X212600D01*
X214850Y347500D02*X217100D01*
X214100Y348250D02*X214850Y347500D01*
X214100Y349750D02*Y348250D01*
Y349750D02*X214850Y350500D01*
X216350D01*
X217100Y349750D01*
X214100Y349000D02*X217100D01*
Y349750D02*Y349000D01*
X218900Y351250D02*X219650D01*
X218900Y349750D02*X219650D01*
X224150Y353500D02*Y347500D01*
Y353500D02*X226400Y350500D01*
X228650Y353500D01*
Y347500D01*
X230450Y349750D02*Y348250D01*
Y349750D02*X231200Y350500D01*
X232700D01*
X233450Y349750D01*
Y348250D01*
X232700Y347500D02*X233450Y348250D01*
X231200Y347500D02*X232700D01*
X230450Y348250D02*X231200Y347500D01*
X236000Y349750D02*Y347500D01*
Y349750D02*X236750Y350500D01*
X237500D01*
X238250Y349750D01*
Y347500D01*
X235250Y350500D02*X236000Y349750D01*
X245750Y353500D02*X246500Y352750D01*
X243500Y353500D02*X245750D01*
X242750Y352750D02*X243500Y353500D01*
X242750Y352750D02*Y351250D01*
X243500Y350500D01*
X245750D01*
X246500Y349750D01*
Y348250D01*
X245750Y347500D02*X246500Y348250D01*
X243500Y347500D02*X245750D01*
X242750Y348250D02*X243500Y347500D01*
X249050D02*X251300D01*
X248300Y348250D02*X249050Y347500D01*
X248300Y349750D02*Y348250D01*
Y349750D02*X249050Y350500D01*
X250550D01*
X251300Y349750D01*
X248300Y349000D02*X251300D01*
Y349750D02*Y349000D01*
X253850Y349750D02*Y345250D01*
X253100Y350500D02*X253850Y349750D01*
X254600Y350500D01*
X256100D01*
X256850Y349750D01*
Y348250D01*
X256100Y347500D02*X256850Y348250D01*
X254600Y347500D02*X256100D01*
X253850Y348250D02*X254600Y347500D01*
X261350Y352300D02*X262550Y353500D01*
Y347500D01*
X261350D02*X263600D01*
X265400Y353500D02*X268400D01*
X265400D02*Y350500D01*
X266150Y351250D01*
X267650D01*
X268400Y350500D01*
Y348250D01*
X267650Y347500D02*X268400Y348250D01*
X266150Y347500D02*X267650D01*
X265400Y348250D02*X266150Y347500D01*
X272900Y352750D02*X273650Y353500D01*
X275900D01*
X276650Y352750D01*
Y351250D01*
X272900Y347500D02*X276650Y351250D01*
X272900Y347500D02*X276650D01*
X278450Y352750D02*X279200Y353500D01*
X281450D01*
X282200Y352750D01*
Y351250D01*
X278450Y347500D02*X282200Y351250D01*
X278450Y347500D02*X282200D01*
X284000Y351250D02*X284750D01*
X284000Y349750D02*X284750D01*
X286550Y352300D02*X287750Y353500D01*
Y347500D01*
X286550D02*X288800D01*
X290600Y348250D02*X291350Y347500D01*
X290600Y352750D02*Y348250D01*
Y352750D02*X291350Y353500D01*
X292850D01*
X293600Y352750D01*
Y348250D01*
X292850Y347500D02*X293600Y348250D01*
X291350Y347500D02*X292850D01*
X290600Y349000D02*X293600Y352000D01*
X295400Y351250D02*X296150D01*
X295400Y349750D02*X296150D01*
X297950Y352750D02*X298700Y353500D01*
X300950D01*
X301700Y352750D01*
Y351250D01*
X297950Y347500D02*X301700Y351250D01*
X297950Y347500D02*X301700D01*
X305750Y353500D02*X306500Y352750D01*
X304250Y353500D02*X305750D01*
X303500Y352750D02*X304250Y353500D01*
X303500Y352750D02*Y348250D01*
X304250Y347500D01*
X305750Y350800D02*X306500Y350050D01*
X303500Y350800D02*X305750D01*
X304250Y347500D02*X305750D01*
X306500Y348250D01*
Y350050D02*Y348250D01*
X311000Y352750D02*X311750Y353500D01*
X314000D01*
X314750Y352750D01*
Y351250D01*
X311000Y347500D02*X314750Y351250D01*
X311000Y347500D02*X314750D01*
X316550Y348250D02*X317300Y347500D01*
X316550Y352750D02*Y348250D01*
Y352750D02*X317300Y353500D01*
X318800D01*
X319550Y352750D01*
Y348250D01*
X318800Y347500D02*X319550Y348250D01*
X317300Y347500D02*X318800D01*
X316550Y349000D02*X319550Y352000D01*
X321350Y352300D02*X322550Y353500D01*
Y347500D01*
X321350D02*X323600D01*
X325400Y349750D02*X328400Y353500D01*
X325400Y349750D02*X329150D01*
X328400Y353500D02*Y347500D01*
X333650Y353500D02*Y348250D01*
X334400Y347500D01*
X335900D01*
X336650Y348250D01*
Y353500D02*Y348250D01*
X338450Y353500D02*X341450D01*
X339950D02*Y347500D01*
X344300D02*X346250D01*
X343250Y348550D02*X344300Y347500D01*
X343250Y352450D02*Y348550D01*
Y352450D02*X344300Y353500D01*
X346250D01*
X200000Y367000D02*Y362500D01*
Y367000D02*X201050Y368500D01*
X202700D01*
X203750Y367000D01*
Y362500D01*
X200000Y365500D02*X203750D01*
X205550D02*Y363250D01*
X206300Y362500D01*
X207800D01*
X208550Y363250D01*
Y365500D02*Y363250D01*
X211100Y368500D02*Y363250D01*
X211850Y362500D01*
X210350Y366250D02*X211850D01*
X213350Y368500D02*Y362500D01*
Y364750D02*X214100Y365500D01*
X215600D01*
X216350Y364750D01*
Y362500D01*
X218150Y364750D02*Y363250D01*
Y364750D02*X218900Y365500D01*
X220400D01*
X221150Y364750D01*
Y363250D01*
X220400Y362500D02*X221150Y363250D01*
X218900Y362500D02*X220400D01*
X218150Y363250D02*X218900Y362500D01*
X223700Y364750D02*Y362500D01*
Y364750D02*X224450Y365500D01*
X225950D01*
X222950D02*X223700Y364750D01*
X227750Y366250D02*X228500D01*
X227750Y364750D02*X228500D01*
X200000Y383500D02*X203000D01*
X201500D02*Y377500D01*
G54D192*X204800Y382000D02*Y381850D01*
G54D191*Y379750D02*Y377500D01*
X207050Y383500D02*Y378250D01*
X207800Y377500D01*
X206300Y381250D02*X207800D01*
X209300Y383500D02*Y378250D01*
X210050Y377500D01*
X212300D02*X214550D01*
X211550Y378250D02*X212300Y377500D01*
X211550Y379750D02*Y378250D01*
Y379750D02*X212300Y380500D01*
X213800D01*
X214550Y379750D01*
X211550Y379000D02*X214550D01*
Y379750D02*Y379000D01*
X216350Y381250D02*X217100D01*
X216350Y379750D02*X217100D01*
X221600Y378250D02*X222350Y377500D01*
X221600Y382750D02*X222350Y383500D01*
X221600Y382750D02*Y378250D01*
X224150Y380500D02*Y378250D01*
X224900Y377500D01*
X226400D01*
X227150Y378250D01*
Y380500D02*Y378250D01*
X229700Y379750D02*Y377500D01*
Y379750D02*X230450Y380500D01*
X231200D01*
X231950Y379750D01*
Y377500D01*
X228950Y380500D02*X229700Y379750D01*
X233750Y383500D02*Y377500D01*
Y379750D02*X236000Y377500D01*
X233750Y379750D02*X235250Y381250D01*
X238550Y379750D02*Y377500D01*
Y379750D02*X239300Y380500D01*
X240050D01*
X240800Y379750D01*
Y377500D01*
X237800Y380500D02*X238550Y379750D01*
X242600D02*Y378250D01*
Y379750D02*X243350Y380500D01*
X244850D01*
X245600Y379750D01*
Y378250D01*
X244850Y377500D02*X245600Y378250D01*
X243350Y377500D02*X244850D01*
X242600Y378250D02*X243350Y377500D01*
X247400Y380500D02*Y378250D01*
X248150Y377500D01*
X248900D01*
X249650Y378250D01*
Y380500D02*Y378250D01*
X250400Y377500D01*
X251150D01*
X251900Y378250D01*
Y380500D02*Y378250D01*
X254450Y379750D02*Y377500D01*
Y379750D02*X255200Y380500D01*
X255950D01*
X256700Y379750D01*
Y377500D01*
X253700Y380500D02*X254450Y379750D01*
X258500Y383500D02*X259250Y382750D01*
Y378250D01*
X258500Y377500D02*X259250Y378250D01*
X263750Y380500D02*X266750D01*
X271250Y383500D02*Y377500D01*
Y383500D02*X274250D01*
X271250Y380800D02*X273500D01*
X278300Y380500D02*X279050Y379750D01*
X276800Y380500D02*X278300D01*
X276050Y379750D02*X276800Y380500D01*
X276050Y379750D02*Y378250D01*
X276800Y377500D01*
X279050Y380500D02*Y378250D01*
X279800Y377500D01*
X276800D02*X278300D01*
X279050Y378250D01*
X281600Y383500D02*Y377500D01*
Y378250D02*X282350Y377500D01*
X283850D01*
X284600Y378250D01*
Y379750D02*Y378250D01*
X283850Y380500D02*X284600Y379750D01*
X282350Y380500D02*X283850D01*
X281600Y379750D02*X282350Y380500D01*
X287150Y379750D02*Y377500D01*
Y379750D02*X287900Y380500D01*
X289400D01*
X286400D02*X287150Y379750D01*
G54D192*X291200Y382000D02*Y381850D01*
G54D191*Y379750D02*Y377500D01*
X293450Y380500D02*X295700D01*
X292700Y379750D02*X293450Y380500D01*
X292700Y379750D02*Y378250D01*
X293450Y377500D01*
X295700D01*
X299750Y380500D02*X300500Y379750D01*
X298250Y380500D02*X299750D01*
X297500Y379750D02*X298250Y380500D01*
X297500Y379750D02*Y378250D01*
X298250Y377500D01*
X300500Y380500D02*Y378250D01*
X301250Y377500D01*
X298250D02*X299750D01*
X300500Y378250D01*
X303800Y383500D02*Y378250D01*
X304550Y377500D01*
X303050Y381250D02*X304550D01*
G54D192*X306050Y382000D02*Y381850D01*
G54D191*Y379750D02*Y377500D01*
X307550Y379750D02*Y378250D01*
Y379750D02*X308300Y380500D01*
X309800D01*
X310550Y379750D01*
Y378250D01*
X309800Y377500D02*X310550Y378250D01*
X308300Y377500D02*X309800D01*
X307550Y378250D02*X308300Y377500D01*
X313100Y379750D02*Y377500D01*
Y379750D02*X313850Y380500D01*
X314600D01*
X315350Y379750D01*
Y377500D01*
X312350Y380500D02*X313100Y379750D01*
X320600Y383500D02*Y377500D01*
X322550Y383500D02*X323600Y382450D01*
Y378550D01*
X322550Y377500D02*X323600Y378550D01*
X319850Y377500D02*X322550D01*
X319850Y383500D02*X322550D01*
X326150Y379750D02*Y377500D01*
Y379750D02*X326900Y380500D01*
X328400D01*
X325400D02*X326150Y379750D01*
X332450Y380500D02*X333200Y379750D01*
X330950Y380500D02*X332450D01*
X330200Y379750D02*X330950Y380500D01*
X330200Y379750D02*Y378250D01*
X330950Y377500D01*
X333200Y380500D02*Y378250D01*
X333950Y377500D01*
X330950D02*X332450D01*
X333200Y378250D01*
X335750Y380500D02*Y378250D01*
X336500Y377500D01*
X337250D01*
X338000Y378250D01*
Y380500D02*Y378250D01*
X338750Y377500D01*
X339500D01*
X340250Y378250D01*
Y380500D02*Y378250D01*
G54D192*X342050Y382000D02*Y381850D01*
G54D191*Y379750D02*Y377500D01*
X344300Y379750D02*Y377500D01*
Y379750D02*X345050Y380500D01*
X345800D01*
X346550Y379750D01*
Y377500D01*
X343550Y380500D02*X344300Y379750D01*
X350600Y380500D02*X351350Y379750D01*
X349100Y380500D02*X350600D01*
X348350Y379750D02*X349100Y380500D01*
X348350Y379750D02*Y378250D01*
X349100Y377500D01*
X350600D01*
X351350Y378250D01*
X348350Y376000D02*X349100Y375250D01*
X350600D01*
X351350Y376000D01*
Y380500D02*Y376000D01*
M02*
