G04 start of page 8 for group -4079 idx -4079 *
G04 Title: (unknown), topsilk *
G04 Creator: pcb 20110918 *
G04 CreationDate: Mon Sep 15 22:10:26 2014 UTC *
G04 For: fosse *
G04 Format: Gerber/RS-274X *
G04 PCB-Dimensions: 375000 325000 *
G04 PCB-Coordinate-Origin: lower left *
%MOIN*%
%FSLAX25Y25*%
%LNTOPSILK*%
%ADD184C,0.0150*%
%ADD183C,0.0100*%
G54D183*X218000Y236000D02*Y234000D01*
X218500Y233500D01*
X219700D01*
X220200Y234000D02*X219700Y233500D01*
X220200Y235500D02*Y234000D01*
X218000Y235500D02*X222000D01*
Y236000D02*Y234000D01*
X221500Y233500D01*
X220700D02*X221500D01*
X220200Y234000D02*X220700Y233500D01*
X218500Y232300D02*X219500D01*
X220000Y231800D01*
Y230800D01*
X219500Y230300D01*
X218500D02*X219500D01*
X218000Y230800D02*X218500Y230300D01*
X218000Y231800D02*Y230800D01*
X218500Y232300D02*X218000Y231800D01*
X220000Y227600D02*X219500Y227100D01*
X220000Y228600D02*Y227600D01*
X219500Y229100D02*X220000Y228600D01*
X218500Y229100D02*X219500D01*
X218500D02*X218000Y228600D01*
X218500Y227100D02*X220000D01*
X218500D02*X218000Y226600D01*
Y228600D02*Y227600D01*
X218500Y227100D01*
X218000Y224900D02*X219500D01*
X220000Y224400D01*
Y223400D01*
Y225400D02*X219500Y224900D01*
X218000Y220200D02*X222000D01*
X218000Y220700D02*X218500Y220200D01*
X218000Y221700D02*Y220700D01*
X218500Y222200D02*X218000Y221700D01*
X218500Y222200D02*X219500D01*
X220000Y221700D01*
Y220700D01*
X219500Y220200D01*
X227000Y236000D02*X231000D01*
X229000Y234500D01*
X231000Y233000D01*
X227000D02*X231000D01*
X229900Y231800D02*X230000D01*
X227000D02*X228500D01*
X229000Y230300D02*Y228800D01*
X228500Y230800D02*X229000Y230300D01*
X227500Y230800D02*X228500D01*
X227500D02*X227000Y230300D01*
Y228800D01*
Y227600D02*Y227100D01*
X10444Y243975D02*X11944D01*
X10444Y241775D02*X12444D01*
X10444Y245775D02*Y241775D01*
Y245775D02*X12444D01*
X15144Y243775D02*X15644Y243275D01*
X14144Y243775D02*X15144D01*
X13644Y243275D02*X14144Y243775D01*
X13644Y243275D02*Y242275D01*
X14144Y241775D01*
X15644Y243775D02*Y242275D01*
X16144Y241775D01*
X14144D02*X15144D01*
X15644Y242275D01*
X17844Y245775D02*Y242275D01*
X18344Y241775D01*
X17344Y244275D02*X18344D01*
X19344Y243275D02*Y242275D01*
Y243275D02*X19844Y243775D01*
X20844D01*
X21344Y243275D01*
Y242275D01*
X20844Y241775D02*X21344Y242275D01*
X19844Y241775D02*X20844D01*
X19344Y242275D02*X19844Y241775D01*
X23044Y243275D02*Y241775D01*
Y243275D02*X23544Y243775D01*
X24044D01*
X24544Y243275D01*
Y241775D01*
X22544Y243775D02*X23044Y243275D01*
X28044Y245775D02*Y241775D01*
X27544Y245775D02*X29544D01*
X30044Y245275D01*
Y244275D01*
X29544Y243775D02*X30044Y244275D01*
X28044Y243775D02*X29544D01*
X31744Y241775D02*X33244D01*
X31244Y242275D02*X31744Y241775D01*
X31244Y243275D02*Y242275D01*
Y243275D02*X31744Y243775D01*
X32744D01*
X33244Y243275D01*
X31244Y242775D02*X33244D01*
Y243275D02*Y242775D01*
X35944Y243775D02*X36444Y243275D01*
X34944Y243775D02*X35944D01*
X34444Y243275D02*X34944Y243775D01*
X34444Y243275D02*Y242275D01*
X34944Y241775D01*
X36444Y243775D02*Y242275D01*
X36944Y241775D01*
X34944D02*X35944D01*
X36444Y242275D01*
X38144Y245775D02*Y241775D01*
Y242275D02*X38644Y241775D01*
X39644D01*
X40144Y242275D01*
Y243275D02*Y242275D01*
X39644Y243775D02*X40144Y243275D01*
X38644Y243775D02*X39644D01*
X38144Y243275D02*X38644Y243775D01*
X41344Y243275D02*Y242275D01*
Y243275D02*X41844Y243775D01*
X42844D01*
X43344Y243275D01*
Y242275D01*
X42844Y241775D02*X43344Y242275D01*
X41844Y241775D02*X42844D01*
X41344Y242275D02*X41844Y241775D01*
X46544Y245775D02*Y241775D01*
X46044D02*X46544Y242275D01*
X45044Y241775D02*X46044D01*
X44544Y242275D02*X45044Y241775D01*
X44544Y243275D02*Y242275D01*
Y243275D02*X45044Y243775D01*
X46044D01*
X46544Y243275D01*
X47744Y243775D02*Y242275D01*
X48244Y241775D01*
X49744Y243775D02*Y240775D01*
X49244Y240275D02*X49744Y240775D01*
X48244Y240275D02*X49244D01*
X47744Y240775D02*X48244Y240275D01*
Y241775D02*X49244D01*
X49744Y242275D01*
X52744Y245775D02*Y241775D01*
X54744D01*
X57444Y243775D02*X57944Y243275D01*
X56444Y243775D02*X57444D01*
X55944Y243275D02*X56444Y243775D01*
X55944Y243275D02*Y242275D01*
X56444Y241775D01*
X57944Y243775D02*Y242275D01*
X58444Y241775D01*
X56444D02*X57444D01*
X57944Y242275D01*
X59644Y245775D02*Y241775D01*
Y242275D02*X60144Y241775D01*
X61144D01*
X61644Y242275D01*
Y243275D02*Y242275D01*
X61144Y243775D02*X61644Y243275D01*
X60144Y243775D02*X61144D01*
X59644Y243275D02*X60144Y243775D01*
X10444Y233775D02*X12444D01*
X12944Y234275D01*
Y235475D02*Y234275D01*
X12444Y235975D02*X12944Y235475D01*
X10944Y235975D02*X12444D01*
X10944Y237775D02*Y233775D01*
X10444Y237775D02*X12444D01*
X12944Y237275D01*
Y236475D01*
X12444Y235975D02*X12944Y236475D01*
X14144Y235775D02*Y234275D01*
X14644Y233775D01*
X16144Y235775D02*Y232775D01*
X15644Y232275D02*X16144Y232775D01*
X14644Y232275D02*X15644D01*
X14144Y232775D02*X14644Y232275D01*
Y233775D02*X15644D01*
X16144Y234275D01*
X19144Y235975D02*X20644D01*
X19144Y233775D02*X21144D01*
X19144Y237775D02*Y233775D01*
Y237775D02*X21144D01*
X22344Y235775D02*X23344Y233775D01*
X24344Y235775D02*X23344Y233775D01*
X27044Y235775D02*X27544Y235275D01*
X26044Y235775D02*X27044D01*
X25544Y235275D02*X26044Y235775D01*
X25544Y235275D02*Y234275D01*
X26044Y233775D01*
X27544Y235775D02*Y234275D01*
X28044Y233775D01*
X26044D02*X27044D01*
X27544Y234275D01*
X29744Y235275D02*Y233775D01*
Y235275D02*X30244Y235775D01*
X30744D01*
X31244Y235275D01*
Y233775D01*
X29244Y235775D02*X29744Y235275D01*
X34244Y237775D02*Y233775D01*
Y237775D02*X36244D01*
X34244Y235975D02*X35744D01*
X37444Y235275D02*Y234275D01*
Y235275D02*X37944Y235775D01*
X38944D01*
X39444Y235275D01*
Y234275D01*
X38944Y233775D02*X39444Y234275D01*
X37944Y233775D02*X38944D01*
X37444Y234275D02*X37944Y233775D01*
X41144D02*X42644D01*
X43144Y234275D01*
X42644Y234775D02*X43144Y234275D01*
X41144Y234775D02*X42644D01*
X40644Y235275D02*X41144Y234775D01*
X40644Y235275D02*X41144Y235775D01*
X42644D01*
X43144Y235275D01*
X40644Y234275D02*X41144Y233775D01*
X44844D02*X46344D01*
X46844Y234275D01*
X46344Y234775D02*X46844Y234275D01*
X44844Y234775D02*X46344D01*
X44344Y235275D02*X44844Y234775D01*
X44344Y235275D02*X44844Y235775D01*
X46344D01*
X46844Y235275D01*
X44344Y234275D02*X44844Y233775D01*
X10444Y253775D02*Y249775D01*
Y253775D02*X12444D01*
X10444Y251975D02*X11944D01*
X13644Y251275D02*Y250275D01*
Y251275D02*X14144Y251775D01*
X15144D01*
X15644Y251275D01*
Y250275D01*
X15144Y249775D02*X15644Y250275D01*
X14144Y249775D02*X15144D01*
X13644Y250275D02*X14144Y249775D01*
X17344Y251275D02*Y249775D01*
Y251275D02*X17844Y251775D01*
X18844D01*
X16844D02*X17344Y251275D01*
X22344Y253775D02*Y250275D01*
X22844Y249775D01*
X21844Y252275D02*X22844D01*
X23844Y253775D02*Y249775D01*
Y251275D02*X24344Y251775D01*
X25344D01*
X25844Y251275D01*
Y249775D01*
X27544D02*X29044D01*
X27044Y250275D02*X27544Y249775D01*
X27044Y251275D02*Y250275D01*
Y251275D02*X27544Y251775D01*
X28544D01*
X29044Y251275D01*
X27044Y250775D02*X29044D01*
Y251275D02*Y250775D01*
X32044Y253775D02*Y250275D01*
X32544Y249775D01*
X33544D01*
X34044Y250275D01*
Y253775D02*Y250275D01*
X35244Y253775D02*X37244D01*
X36244D02*Y249775D01*
X38944Y253775D02*Y249775D01*
X40244Y253775D02*X40944Y253075D01*
Y250475D01*
X40244Y249775D02*X40944Y250475D01*
X38444Y249775D02*X40244D01*
X38444Y253775D02*X40244D01*
X42144Y250275D02*X45144Y253275D01*
X46344Y251975D02*X47844D01*
X46344Y249775D02*X48344D01*
X46344Y253775D02*Y249775D01*
Y253775D02*X48344D01*
X50044D02*Y249775D01*
X49544Y253775D02*X51544D01*
X52044Y253275D01*
Y252275D01*
X51544Y251775D02*X52044Y252275D01*
X50044Y251775D02*X51544D01*
X53244Y253775D02*Y249775D01*
X55244D01*
X58244Y253775D02*X59244D01*
X58744D02*Y249775D01*
X58244D02*X59244D01*
X60944Y251275D02*Y249775D01*
Y251275D02*X61444Y251775D01*
X61944D01*
X62444Y251275D01*
Y249775D01*
Y251275D02*X62944Y251775D01*
X63444D01*
X63944Y251275D01*
Y249775D01*
X60444Y251775D02*X60944Y251275D01*
X65644D02*Y248275D01*
X65144Y251775D02*X65644Y251275D01*
X66144Y251775D01*
X67144D01*
X67644Y251275D01*
Y250275D01*
X67144Y249775D02*X67644Y250275D01*
X66144Y249775D02*X67144D01*
X65644Y250275D02*X66144Y249775D01*
X68844Y253775D02*Y250275D01*
X69344Y249775D01*
X71844Y251775D02*X72344Y251275D01*
X70844Y251775D02*X71844D01*
X70344Y251275D02*X70844Y251775D01*
X70344Y251275D02*Y250275D01*
X70844Y249775D01*
X72344Y251775D02*Y250275D01*
X72844Y249775D01*
X70844D02*X71844D01*
X72344Y250275D01*
X74544Y251275D02*Y249775D01*
Y251275D02*X75044Y251775D01*
X75544D01*
X76044Y251275D01*
Y249775D01*
X74044Y251775D02*X74544Y251275D01*
X77744Y253775D02*Y250275D01*
X78244Y249775D01*
X77244Y252275D02*X78244D01*
X81544Y253775D02*Y249775D01*
X81044Y253775D02*X83044D01*
X83544Y253275D01*
Y252275D01*
X83044Y251775D02*X83544Y252275D01*
X81544Y251775D02*X83044D01*
X85244Y251275D02*Y249775D01*
Y251275D02*X85744Y251775D01*
X86744D01*
X84744D02*X85244Y251275D01*
X87944D02*Y250275D01*
Y251275D02*X88444Y251775D01*
X89444D01*
X89944Y251275D01*
Y250275D01*
X89444Y249775D02*X89944Y250275D01*
X88444Y249775D02*X89444D01*
X87944Y250275D02*X88444Y249775D01*
X91644Y251775D02*X93144D01*
X91144Y251275D02*X91644Y251775D01*
X91144Y251275D02*Y250275D01*
X91644Y249775D01*
X93144D01*
X94844D02*X96344D01*
X94344Y250275D02*X94844Y249775D01*
X94344Y251275D02*Y250275D01*
Y251275D02*X94844Y251775D01*
X95844D01*
X96344Y251275D01*
X94344Y250775D02*X96344D01*
Y251275D02*Y250775D01*
X98044Y249775D02*X99544D01*
X100044Y250275D01*
X99544Y250775D02*X100044Y250275D01*
X98044Y250775D02*X99544D01*
X97544Y251275D02*X98044Y250775D01*
X97544Y251275D02*X98044Y251775D01*
X99544D01*
X100044Y251275D01*
X97544Y250275D02*X98044Y249775D01*
X101744D02*X103244D01*
X103744Y250275D01*
X103244Y250775D02*X103744Y250275D01*
X101744Y250775D02*X103244D01*
X101244Y251275D02*X101744Y250775D01*
X101244Y251275D02*X101744Y251775D01*
X103244D01*
X103744Y251275D01*
X101244Y250275D02*X101744Y249775D01*
X104944Y251275D02*Y250275D01*
Y251275D02*X105444Y251775D01*
X106444D01*
X106944Y251275D01*
Y250275D01*
X106444Y249775D02*X106944Y250275D01*
X105444Y249775D02*X106444D01*
X104944Y250275D02*X105444Y249775D01*
X108644Y251275D02*Y249775D01*
Y251275D02*X109144Y251775D01*
X110144D01*
X108144D02*X108644Y251275D01*
X10944Y261775D02*Y257775D01*
X12244Y261775D02*X12944Y261075D01*
Y258475D01*
X12244Y257775D02*X12944Y258475D01*
X10444Y257775D02*X12244D01*
X10444Y261775D02*X12244D01*
X14144Y259775D02*Y258275D01*
X14644Y257775D01*
X15644D01*
X16144Y258275D01*
Y259775D02*Y258275D01*
X17844Y259275D02*Y257775D01*
Y259275D02*X18344Y259775D01*
X18844D01*
X19344Y259275D01*
Y257775D01*
Y259275D02*X19844Y259775D01*
X20344D01*
X20844Y259275D01*
Y257775D01*
X17344Y259775D02*X17844Y259275D01*
X22544D02*Y257775D01*
Y259275D02*X23044Y259775D01*
X23544D01*
X24044Y259275D01*
Y257775D01*
Y259275D02*X24544Y259775D01*
X25044D01*
X25544Y259275D01*
Y257775D01*
X22044Y259775D02*X22544Y259275D01*
X26744Y259775D02*Y258275D01*
X27244Y257775D01*
X28744Y259775D02*Y256775D01*
X28244Y256275D02*X28744Y256775D01*
X27244Y256275D02*X28244D01*
X26744Y256775D02*X27244Y256275D01*
Y257775D02*X28244D01*
X28744Y258275D01*
X31744Y261775D02*Y257775D01*
X33744D01*
X34944Y259275D02*Y258275D01*
Y259275D02*X35444Y259775D01*
X36444D01*
X36944Y259275D01*
Y258275D01*
X36444Y257775D02*X36944Y258275D01*
X35444Y257775D02*X36444D01*
X34944Y258275D02*X35444Y257775D01*
X39644Y259775D02*X40144Y259275D01*
X38644Y259775D02*X39644D01*
X38144Y259275D02*X38644Y259775D01*
X38144Y259275D02*Y258275D01*
X38644Y257775D01*
X40144Y259775D02*Y258275D01*
X40644Y257775D01*
X38644D02*X39644D01*
X40144Y258275D01*
X43844Y261775D02*Y257775D01*
X43344D02*X43844Y258275D01*
X42344Y257775D02*X43344D01*
X41844Y258275D02*X42344Y257775D01*
X41844Y259275D02*Y258275D01*
Y259275D02*X42344Y259775D01*
X43344D01*
X43844Y259275D01*
X46844Y258275D02*X47344Y257775D01*
X46844Y261275D02*Y260275D01*
Y261275D02*X47344Y261775D01*
X46844Y259275D02*X48344Y260775D01*
X47344Y257775D02*X47844D01*
X48844Y258775D01*
X46844Y260275D02*X49344Y257775D01*
X47344Y261775D02*X47844D01*
X48344Y261275D01*
Y260775D01*
X46844Y259275D02*Y258275D01*
X52344Y261775D02*Y257775D01*
Y261775D02*X53844Y259775D01*
X55344Y261775D01*
Y257775D01*
X56544Y260775D02*Y260675D01*
Y259275D02*Y257775D01*
X58044Y259775D02*X59544D01*
X57544Y259275D02*X58044Y259775D01*
X57544Y259275D02*Y258275D01*
X58044Y257775D01*
X59544D01*
X61244Y259275D02*Y257775D01*
Y259275D02*X61744Y259775D01*
X62744D01*
X60744D02*X61244Y259275D01*
X63944D02*Y258275D01*
Y259275D02*X64444Y259775D01*
X65444D01*
X65944Y259275D01*
Y258275D01*
X65444Y257775D02*X65944Y258275D01*
X64444Y257775D02*X65444D01*
X63944Y258275D02*X64444Y257775D01*
X67644Y259275D02*Y256275D01*
X67144Y259775D02*X67644Y259275D01*
X68144Y259775D01*
X69144D01*
X69644Y259275D01*
Y258275D01*
X69144Y257775D02*X69644Y258275D01*
X68144Y257775D02*X69144D01*
X67644Y258275D02*X68144Y257775D01*
X70844Y261775D02*Y257775D01*
Y259275D02*X71344Y259775D01*
X72344D01*
X72844Y259275D01*
Y257775D01*
X74044Y259275D02*Y258275D01*
Y259275D02*X74544Y259775D01*
X75544D01*
X76044Y259275D01*
Y258275D01*
X75544Y257775D02*X76044Y258275D01*
X74544Y257775D02*X75544D01*
X74044Y258275D02*X74544Y257775D01*
X77744Y259275D02*Y257775D01*
Y259275D02*X78244Y259775D01*
X78744D01*
X79244Y259275D01*
Y257775D01*
X77244Y259775D02*X77744Y259275D01*
X80944Y257775D02*X82444D01*
X80444Y258275D02*X80944Y257775D01*
X80444Y259275D02*Y258275D01*
Y259275D02*X80944Y259775D01*
X81944D01*
X82444Y259275D01*
X80444Y258775D02*X82444D01*
Y259275D02*Y258775D01*
X85444Y261775D02*X87444D01*
X86444D02*Y257775D01*
X89144D02*X90644D01*
X88644Y258275D02*X89144Y257775D01*
X88644Y259275D02*Y258275D01*
Y259275D02*X89144Y259775D01*
X90144D01*
X90644Y259275D01*
X88644Y258775D02*X90644D01*
Y259275D02*Y258775D01*
X92344Y257775D02*X93844D01*
X94344Y258275D01*
X93844Y258775D02*X94344Y258275D01*
X92344Y258775D02*X93844D01*
X91844Y259275D02*X92344Y258775D01*
X91844Y259275D02*X92344Y259775D01*
X93844D01*
X94344Y259275D01*
X91844Y258275D02*X92344Y257775D01*
X96044Y261775D02*Y258275D01*
X96544Y257775D01*
X95544Y260275D02*X96544D01*
X99344Y261775D02*Y257775D01*
Y261775D02*X101344D01*
X99344Y259975D02*X100844D01*
X102544Y260775D02*Y260675D01*
Y259275D02*Y257775D01*
X103544Y259775D02*X105544Y257775D01*
X103544D02*X105544Y259775D01*
X107244Y261775D02*Y258275D01*
X107744Y257775D01*
X106744Y260275D02*X107744D01*
X108744Y259775D02*Y258275D01*
X109244Y257775D01*
X110244D01*
X110744Y258275D01*
Y259775D02*Y258275D01*
X112444Y259275D02*Y257775D01*
Y259275D02*X112944Y259775D01*
X113944D01*
X111944D02*X112444Y259275D01*
X115644Y257775D02*X117144D01*
X115144Y258275D02*X115644Y257775D01*
X115144Y259275D02*Y258275D01*
Y259275D02*X115644Y259775D01*
X116644D01*
X117144Y259275D01*
X115144Y258775D02*X117144D01*
Y259275D02*Y258775D01*
X239000Y203000D02*X242000D01*
X243000Y202300D01*
Y201200D01*
X242000Y200500D01*
X239000D02*X242000D01*
X241000Y203000D02*Y200500D01*
X239500Y199300D02*X241000D01*
X239500D02*X239000Y198800D01*
Y197800D01*
X239500Y197300D01*
X241000D01*
X239000Y194100D02*X243000D01*
X239000Y194600D02*X239500Y194100D01*
X239000Y195600D02*Y194600D01*
X239500Y196100D02*X239000Y195600D01*
X239500Y196100D02*X240500D01*
X241000Y195600D01*
Y194600D01*
X240500Y194100D01*
X241900Y192900D02*X242000D01*
X239000D02*X240500D01*
X239500Y191900D02*X240500D01*
X241000Y191400D01*
Y190400D01*
X240500Y189900D01*
X239500D02*X240500D01*
X239000Y190400D02*X239500Y189900D01*
X239000Y191400D02*Y190400D01*
X239500Y191900D02*X239000Y191400D01*
Y186900D02*X243000D01*
X239000D02*Y184900D01*
Y183200D02*Y181700D01*
X239500Y183700D02*X239000Y183200D01*
X239500Y183700D02*X240500D01*
X241000Y183200D01*
Y182200D01*
X240500Y181700D01*
X240000Y183700D02*Y181700D01*
X240500D01*
X239000Y180000D02*X242500D01*
X243000Y179500D01*
Y179000D01*
X241000Y180500D02*Y179500D01*
X239500Y177500D02*X243000D01*
X239500D02*X239000Y177000D01*
X241500Y178000D02*Y177000D01*
X122487Y231582D02*X140400D01*
Y219968D01*
X122487D01*
Y231582D01*
X123507Y168562D02*X141420D01*
Y156948D01*
X123507D02*X141420D01*
X123507Y168562D02*Y156948D01*
Y148562D02*X141420D01*
Y136948D01*
X123507D02*X141420D01*
X123507Y148562D02*Y136948D01*
Y208562D02*X141420D01*
Y196948D01*
X123507D02*X141420D01*
X123507Y208562D02*Y196948D01*
Y188562D02*X141420D01*
Y176948D01*
X123507D02*X141420D01*
X123507Y188562D02*Y176948D01*
X43487Y208582D02*X61400D01*
Y196968D01*
X43487D02*X61400D01*
X43487Y208582D02*Y196968D01*
X43507Y188562D02*X61420D01*
Y176948D01*
X43507D02*X61420D01*
X43507Y188562D02*Y176948D01*
X43487Y168582D02*X61400D01*
Y156968D01*
X43487D02*X61400D01*
X43487Y168582D02*Y156968D01*
Y148582D02*X61400D01*
Y136968D01*
X43487D02*X61400D01*
X43487Y148582D02*Y136968D01*
X77444Y207775D02*Y127775D01*
X117444D01*
Y207775D02*Y127775D01*
X77444Y207775D02*X92444D01*
X102444D02*X117444D01*
X92444D02*G75*G03X102444Y207775I5000J0D01*G01*
X13507Y208562D02*X31420D01*
Y196948D01*
X13507D02*X31420D01*
X13507Y208562D02*Y196948D01*
X13487Y188582D02*X31400D01*
Y176968D01*
X13487D02*X31400D01*
X13487Y188582D02*Y176968D01*
X13507Y168562D02*X31420D01*
Y156948D01*
X13507D02*X31420D01*
X13507Y168562D02*Y156948D01*
X13487Y138582D02*X31400D01*
Y126968D01*
X13487D02*X31400D01*
X13487Y138582D02*Y126968D01*
X187487Y220582D02*X205400D01*
Y208968D01*
X187487D01*
Y220582D01*
Y200582D02*X205400D01*
Y188968D01*
X187487D01*
Y200582D01*
G54D184*X214444Y151775D02*X216444Y149775D01*
X232444D01*
X234444Y151775D01*
Y240775D01*
X232444Y242775D01*
X216444D01*
X214444Y240775D01*
Y151775D02*Y240775D01*
Y209775D02*X234444D01*
Y169775D02*X214444D01*
X234444Y209775D02*Y169775D01*
X214444Y209775D02*Y169775D01*
X224444Y199775D02*X234444D01*
X224444Y209775D02*Y199775D01*
G54D183*X187487Y240582D02*X205400D01*
Y228968D01*
X187487D01*
Y240582D01*
X215487Y139582D02*X233400D01*
Y127968D01*
X215487D01*
Y139582D01*
X187487D02*X205400D01*
Y127968D01*
X187487D01*
Y139582D01*
Y180582D02*X205400D01*
Y168968D01*
X187487D01*
Y180582D01*
Y160582D02*X205400D01*
Y148968D01*
X187487D01*
Y160582D01*
X153487Y231582D02*X171400D01*
Y219968D01*
X153487D01*
Y231582D01*
Y188582D02*X171400D01*
Y176968D01*
X153487D02*X171400D01*
X153487Y188582D02*Y176968D01*
X153507Y168562D02*X171420D01*
Y156948D01*
X153507D02*X171420D01*
X153507Y168562D02*Y156948D01*
Y138562D02*X171420D01*
Y126948D01*
X153507D02*X171420D01*
X153507Y138562D02*Y126948D01*
X153487Y208582D02*X171400D01*
Y196968D01*
X153487D02*X171400D01*
X153487Y208582D02*Y196968D01*
X120720Y174767D02*X122720D01*
X121720D02*Y170767D01*
X124420Y174767D02*Y170767D01*
X123920Y174767D02*X125920D01*
X126420Y174267D01*
Y173267D01*
X125920Y172767D02*X126420Y173267D01*
X124420Y172767D02*X125920D01*
X127620Y170767D02*X129620D01*
X131520D02*X132820D01*
X130820Y171467D02*X131520Y170767D01*
X130820Y174067D02*Y171467D01*
Y174067D02*X131520Y174767D01*
X132820D01*
X134020D02*Y170767D01*
X136520Y174767D02*Y170767D01*
X134020Y172767D02*X136520D01*
X137720Y172267D02*X139720Y174767D01*
X137720Y172267D02*X140220D01*
X139720Y174767D02*Y170767D01*
X141920Y174767D02*Y170767D01*
X141420Y174767D02*X143420D01*
X143920Y174267D01*
Y173267D01*
X143420Y172767D02*X143920Y173267D01*
X141920Y172767D02*X143420D01*
X120720Y154767D02*X122720D01*
X121720D02*Y150767D01*
X124420Y154767D02*Y150767D01*
X123920Y154767D02*X125920D01*
X126420Y154267D01*
Y153267D01*
X125920Y152767D02*X126420Y153267D01*
X124420Y152767D02*X125920D01*
X127620Y150767D02*X129620D01*
X131520D02*X132820D01*
X130820Y151467D02*X131520Y150767D01*
X130820Y154067D02*Y151467D01*
Y154067D02*X131520Y154767D01*
X132820D01*
X134020D02*Y150767D01*
X136520Y154767D02*Y150767D01*
X134020Y152767D02*X136520D01*
X137720Y154267D02*X138220Y154767D01*
X139720D01*
X140220Y154267D01*
Y153267D01*
X137720Y150767D02*X140220Y153267D01*
X137720Y150767D02*X140220D01*
X141920Y154767D02*Y150767D01*
X141420Y154767D02*X143420D01*
X143920Y154267D01*
Y153267D01*
X143420Y152767D02*X143920Y153267D01*
X141920Y152767D02*X143420D01*
X121720Y214767D02*X123720D01*
X122720D02*Y210767D01*
X125420Y214767D02*Y210767D01*
X124920Y214767D02*X126920D01*
X127420Y214267D01*
Y213267D01*
X126920Y212767D02*X127420Y213267D01*
X125420Y212767D02*X126920D01*
X128620Y210767D02*X130620D01*
X132520D02*X133820D01*
X131820Y211467D02*X132520Y210767D01*
X131820Y214067D02*Y211467D01*
Y214067D02*X132520Y214767D01*
X133820D01*
X135020D02*Y210767D01*
X137520Y214767D02*Y210767D01*
X135020Y212767D02*X137520D01*
X138720Y211267D02*X139220Y210767D01*
X138720Y212067D02*Y211267D01*
Y212067D02*X139420Y212767D01*
X140020D01*
X140720Y212067D01*
Y211267D01*
X140220Y210767D02*X140720Y211267D01*
X139220Y210767D02*X140220D01*
X138720Y213467D02*X139420Y212767D01*
X138720Y214267D02*Y213467D01*
Y214267D02*X139220Y214767D01*
X140220D01*
X140720Y214267D01*
Y213467D01*
X140020Y212767D02*X140720Y213467D01*
X142420Y214767D02*Y210767D01*
X141920Y214767D02*X143920D01*
X144420Y214267D01*
Y213267D01*
X143920Y212767D02*X144420Y213267D01*
X142420Y212767D02*X143920D01*
X121720Y194767D02*X123720D01*
X122720D02*Y190767D01*
X125420Y194767D02*Y190767D01*
X124920Y194767D02*X126920D01*
X127420Y194267D01*
Y193267D01*
X126920Y192767D02*X127420Y193267D01*
X125420Y192767D02*X126920D01*
X128620Y190767D02*X130620D01*
X132520D02*X133820D01*
X131820Y191467D02*X132520Y190767D01*
X131820Y194067D02*Y191467D01*
Y194067D02*X132520Y194767D01*
X133820D01*
X135020D02*Y190767D01*
X137520Y194767D02*Y190767D01*
X135020Y192767D02*X137520D01*
X140220Y194767D02*X140720Y194267D01*
X139220Y194767D02*X140220D01*
X138720Y194267D02*X139220Y194767D01*
X138720Y194267D02*Y191267D01*
X139220Y190767D01*
X140220Y192967D02*X140720Y192467D01*
X138720Y192967D02*X140220D01*
X139220Y190767D02*X140220D01*
X140720Y191267D01*
Y192467D02*Y191267D01*
X142420Y194767D02*Y190767D01*
X141920Y194767D02*X143920D01*
X144420Y194267D01*
Y193267D01*
X143920Y192767D02*X144420Y193267D01*
X142420Y192767D02*X143920D01*
X40700Y214787D02*X42700D01*
X41700D02*Y210787D01*
X44400Y214787D02*Y210787D01*
X43900Y214787D02*X45900D01*
X46400Y214287D01*
Y213287D01*
X45900Y212787D02*X46400Y213287D01*
X44400Y212787D02*X45900D01*
X47600Y210787D02*X49600D01*
X51500D02*X52800D01*
X50800Y211487D02*X51500Y210787D01*
X50800Y214087D02*Y211487D01*
Y214087D02*X51500Y214787D01*
X52800D01*
X54000D02*Y210787D01*
X56500Y214787D02*Y210787D01*
X54000Y212787D02*X56500D01*
X57700Y211287D02*X58200Y210787D01*
X57700Y212087D02*Y211287D01*
Y212087D02*X58400Y212787D01*
X59000D01*
X59700Y212087D01*
Y211287D01*
X59200Y210787D02*X59700Y211287D01*
X58200Y210787D02*X59200D01*
X57700Y213487D02*X58400Y212787D01*
X57700Y214287D02*Y213487D01*
Y214287D02*X58200Y214787D01*
X59200D01*
X59700Y214287D01*
Y213487D01*
X59000Y212787D02*X59700Y213487D01*
X60900Y214787D02*Y210787D01*
Y214787D02*X63400Y210787D01*
Y214787D02*Y210787D01*
X40720Y194767D02*X42720D01*
X41720D02*Y190767D01*
X44420Y194767D02*Y190767D01*
X43920Y194767D02*X45920D01*
X46420Y194267D01*
Y193267D01*
X45920Y192767D02*X46420Y193267D01*
X44420Y192767D02*X45920D01*
X47620Y190767D02*X49620D01*
X51520D02*X52820D01*
X50820Y191467D02*X51520Y190767D01*
X50820Y194067D02*Y191467D01*
Y194067D02*X51520Y194767D01*
X52820D01*
X54020D02*Y190767D01*
X56520Y194767D02*Y190767D01*
X54020Y192767D02*X56520D01*
X59220Y194767D02*X59720Y194267D01*
X58220Y194767D02*X59220D01*
X57720Y194267D02*X58220Y194767D01*
X57720Y194267D02*Y191267D01*
X58220Y190767D01*
X59220Y192967D02*X59720Y192467D01*
X57720Y192967D02*X59220D01*
X58220Y190767D02*X59220D01*
X59720Y191267D01*
Y192467D02*Y191267D01*
X60920Y194767D02*Y190767D01*
Y194767D02*X63420Y190767D01*
Y194767D02*Y190767D01*
X40700Y174787D02*X42700D01*
X41700D02*Y170787D01*
X44400Y174787D02*Y170787D01*
X43900Y174787D02*X45900D01*
X46400Y174287D01*
Y173287D01*
X45900Y172787D02*X46400Y173287D01*
X44400Y172787D02*X45900D01*
X47600Y170787D02*X49600D01*
X51500D02*X52800D01*
X50800Y171487D02*X51500Y170787D01*
X50800Y174087D02*Y171487D01*
Y174087D02*X51500Y174787D01*
X52800D01*
X54000D02*Y170787D01*
X56500Y174787D02*Y170787D01*
X54000Y172787D02*X56500D01*
X57700Y172287D02*X59700Y174787D01*
X57700Y172287D02*X60200D01*
X59700Y174787D02*Y170787D01*
X61400Y174787D02*Y170787D01*
Y174787D02*X63900Y170787D01*
Y174787D02*Y170787D01*
X40700Y154787D02*X42700D01*
X41700D02*Y150787D01*
X44400Y154787D02*Y150787D01*
X43900Y154787D02*X45900D01*
X46400Y154287D01*
Y153287D01*
X45900Y152787D02*X46400Y153287D01*
X44400Y152787D02*X45900D01*
X47600Y150787D02*X49600D01*
X51500D02*X52800D01*
X50800Y151487D02*X51500Y150787D01*
X50800Y154087D02*Y151487D01*
Y154087D02*X51500Y154787D01*
X52800D01*
X54000D02*Y150787D01*
X56500Y154787D02*Y150787D01*
X54000Y152787D02*X56500D01*
X57700Y154287D02*X58200Y154787D01*
X59700D01*
X60200Y154287D01*
Y153287D01*
X57700Y150787D02*X60200Y153287D01*
X57700Y150787D02*X60200D01*
X61400Y154787D02*Y150787D01*
Y154787D02*X63900Y150787D01*
Y154787D02*Y150787D01*
X75444Y207775D02*Y205775D01*
X74944Y205275D01*
X73944D02*X74944D01*
X73444Y205775D02*X73944Y205275D01*
X73444Y207275D02*Y205775D01*
X71444Y207275D02*X75444D01*
X73444Y206475D02*X71444Y205275D01*
Y203575D02*X75444D01*
Y204075D02*Y202075D01*
X74944Y201575D01*
X73944D02*X74944D01*
X73444Y202075D02*X73944Y201575D01*
X73444Y203575D02*Y202075D01*
X74644Y200375D02*X75444Y199575D01*
X71444D02*X75444D01*
X71444Y200375D02*Y198875D01*
X10720Y214767D02*X12720D01*
X11720D02*Y210767D01*
X14420Y214767D02*Y210767D01*
X13920Y214767D02*X15920D01*
X16420Y214267D01*
Y213267D01*
X15920Y212767D02*X16420Y213267D01*
X14420Y212767D02*X15920D01*
X17620Y210767D02*X19620D01*
X21520D02*X22820D01*
X20820Y211467D02*X21520Y210767D01*
X20820Y214067D02*Y211467D01*
Y214067D02*X21520Y214767D01*
X22820D01*
X24020D02*Y210767D01*
X26520Y214767D02*Y210767D01*
X24020Y212767D02*X26520D01*
X28220Y210767D02*X30220Y214767D01*
X27720D02*X30220D01*
X31420D02*Y210767D01*
Y214767D02*X33920Y210767D01*
Y214767D02*Y210767D01*
X10700Y194787D02*X12700D01*
X11700D02*Y190787D01*
X14400Y194787D02*Y190787D01*
X13900Y194787D02*X15900D01*
X16400Y194287D01*
Y193287D01*
X15900Y192787D02*X16400Y193287D01*
X14400Y192787D02*X15900D01*
X17600Y190787D02*X19600D01*
X21500D02*X22800D01*
X20800Y191487D02*X21500Y190787D01*
X20800Y194087D02*Y191487D01*
Y194087D02*X21500Y194787D01*
X22800D01*
X24000D02*Y190787D01*
X26500Y194787D02*Y190787D01*
X24000Y192787D02*X26500D01*
X27700Y194787D02*X29700D01*
X27700D02*Y192787D01*
X28200Y193287D01*
X29200D01*
X29700Y192787D01*
Y191287D01*
X29200Y190787D02*X29700Y191287D01*
X28200Y190787D02*X29200D01*
X27700Y191287D02*X28200Y190787D01*
X30900Y194787D02*Y190787D01*
Y194787D02*X33400Y190787D01*
Y194787D02*Y190787D01*
X10720Y174767D02*X12720D01*
X11720D02*Y170767D01*
X14420Y174767D02*Y170767D01*
X13920Y174767D02*X15920D01*
X16420Y174267D01*
Y173267D01*
X15920Y172767D02*X16420Y173267D01*
X14420Y172767D02*X15920D01*
X17620Y170767D02*X19620D01*
X21520D02*X22820D01*
X20820Y171467D02*X21520Y170767D01*
X20820Y174067D02*Y171467D01*
Y174067D02*X21520Y174767D01*
X22820D01*
X24020D02*Y170767D01*
X26520Y174767D02*Y170767D01*
X24020Y172767D02*X26520D01*
X27720Y174267D02*X28220Y174767D01*
X29220D01*
X29720Y174267D01*
X29220Y170767D02*X29720Y171267D01*
X28220Y170767D02*X29220D01*
X27720Y171267D02*X28220Y170767D01*
Y172967D02*X29220D01*
X29720Y174267D02*Y173467D01*
Y172467D02*Y171267D01*
Y172467D02*X29220Y172967D01*
X29720Y173467D02*X29220Y172967D01*
X30920Y174767D02*Y170767D01*
Y174767D02*X33420Y170767D01*
Y174767D02*Y170767D01*
X10700Y144787D02*X12700D01*
X11700D02*Y140787D01*
X14400Y144787D02*Y140787D01*
X13900Y144787D02*X15900D01*
X16400Y144287D01*
Y143287D01*
X15900Y142787D02*X16400Y143287D01*
X14400Y142787D02*X15900D01*
X17600Y140787D02*X19600D01*
X21500D02*X22800D01*
X20800Y141487D02*X21500Y140787D01*
X20800Y144087D02*Y141487D01*
Y144087D02*X21500Y144787D01*
X22800D01*
X24000D02*Y140787D01*
X26500Y144787D02*Y140787D01*
X24000Y142787D02*X26500D01*
X27700Y143987D02*X28500Y144787D01*
Y140787D01*
X27700D02*X29200D01*
X30400Y144787D02*Y140787D01*
Y144787D02*X32900Y140787D01*
Y144787D02*Y140787D01*
X116700Y237787D02*X118700D01*
X117700D02*Y233787D01*
X120400Y237787D02*Y233787D01*
X119900Y237787D02*X121900D01*
X122400Y237287D01*
Y236287D01*
X121900Y235787D02*X122400Y236287D01*
X120400Y235787D02*X121900D01*
X124300Y233787D02*X125600D01*
X123600Y234487D02*X124300Y233787D01*
X123600Y237087D02*Y234487D01*
Y237087D02*X124300Y237787D01*
X125600D01*
X126800D02*Y233787D01*
X129300Y237787D02*Y233787D01*
X126800Y235787D02*X129300D01*
X130500Y236787D02*Y233787D01*
Y236787D02*X131200Y237787D01*
X132300D01*
X133000Y236787D01*
Y233787D01*
X130500Y235787D02*X133000D01*
X136200Y237787D02*X136700Y237287D01*
X134700Y237787D02*X136200D01*
X134200Y237287D02*X134700Y237787D01*
X134200Y237287D02*Y236287D01*
X134700Y235787D01*
X136200D01*
X136700Y235287D01*
Y234287D01*
X136200Y233787D02*X136700Y234287D01*
X134700Y233787D02*X136200D01*
X134200Y234287D02*X134700Y233787D01*
X139900Y237787D02*X140400Y237287D01*
X138400Y237787D02*X139900D01*
X137900Y237287D02*X138400Y237787D01*
X137900Y237287D02*Y236287D01*
X138400Y235787D01*
X139900D01*
X140400Y235287D01*
Y234287D01*
X139900Y233787D02*X140400Y234287D01*
X138400Y233787D02*X139900D01*
X137900Y234287D02*X138400Y233787D01*
X141600Y237787D02*X142600D01*
X142100D02*Y233787D01*
X141600D02*X142600D01*
X145800Y237787D02*X146300Y237287D01*
X144300Y237787D02*X145800D01*
X143800Y237287D02*X144300Y237787D01*
X143800Y237287D02*Y236287D01*
X144300Y235787D01*
X145800D01*
X146300Y235287D01*
Y234287D01*
X145800Y233787D02*X146300Y234287D01*
X144300Y233787D02*X145800D01*
X143800Y234287D02*X144300Y233787D01*
X107856Y303575D02*X107931Y303500D01*
X107631Y303575D02*X107856D01*
X107556Y303500D02*X107631Y303575D01*
X107556Y303500D02*Y303350D01*
X107631Y303275D01*
X107856D01*
X107931Y303200D01*
Y303050D01*
X107856Y302975D02*X107931Y303050D01*
X107631Y302975D02*X107856D01*
X107556Y303050D02*X107631Y302975D01*
X108216D02*X108411D01*
X108111Y303080D02*X108216Y302975D01*
X108111Y303470D02*Y303080D01*
Y303470D02*X108216Y303575D01*
X108411D01*
X108591D02*X108891D01*
X108966Y303500D01*
Y303350D01*
X108891Y303275D02*X108966Y303350D01*
X108666Y303275D02*X108891D01*
X108666Y303575D02*Y302975D01*
X108786Y303275D02*X108966Y302975D01*
X109146Y303305D02*X109371D01*
X109146Y302975D02*X109446D01*
X109146Y303575D02*Y302975D01*
Y303575D02*X109446D01*
X109626D02*Y303275D01*
X109701Y302975D01*
X109851Y303275D01*
X110001Y302975D01*
X110076Y303275D01*
Y303575D02*Y303275D01*
X110256Y303200D02*X110556Y303575D01*
X110256Y303200D02*X110631D01*
X110556Y303575D02*Y302975D01*
X110811Y303275D02*X111111D01*
X111291Y303200D02*X111591Y303575D01*
X111291Y303200D02*X111666D01*
X111591Y303575D02*Y302975D01*
X111846Y303050D02*X111921Y302975D01*
X111846Y303500D02*Y303050D01*
Y303500D02*X111921Y303575D01*
X112071D01*
X112146Y303500D01*
Y303050D01*
X112071Y302975D02*X112146Y303050D01*
X111921Y302975D02*X112071D01*
X111846Y303125D02*X112146Y303425D01*
X112326Y302975D02*X112626D01*
X112806Y303500D02*X112881Y303575D01*
X113031D01*
X113106Y303500D01*
X113031Y302975D02*X113106Y303050D01*
X112881Y302975D02*X113031D01*
X112806Y303050D02*X112881Y302975D01*
Y303305D02*X113031D01*
X113106Y303500D02*Y303380D01*
Y303230D02*Y303050D01*
Y303230D02*X113031Y303305D01*
X113106Y303380D02*X113031Y303305D01*
X188700Y226787D02*X190700D01*
X189700D02*Y222787D01*
X192400Y226787D02*Y222787D01*
X191900Y226787D02*X193900D01*
X194400Y226287D01*
Y225287D01*
X193900Y224787D02*X194400Y225287D01*
X192400Y224787D02*X193900D01*
X195600Y226287D02*X196100Y226787D01*
X197100D01*
X197600Y226287D01*
X197100Y222787D02*X197600Y223287D01*
X196100Y222787D02*X197100D01*
X195600Y223287D02*X196100Y222787D01*
Y224987D02*X197100D01*
X197600Y226287D02*Y225487D01*
Y224487D02*Y223287D01*
Y224487D02*X197100Y224987D01*
X197600Y225487D02*X197100Y224987D01*
X198800Y226787D02*X199800Y222787D01*
X200800Y226787D01*
X202000Y226287D02*X202500Y226787D01*
X203500D01*
X204000Y226287D01*
X203500Y222787D02*X204000Y223287D01*
X202500Y222787D02*X203500D01*
X202000Y223287D02*X202500Y222787D01*
Y224987D02*X203500D01*
X204000Y226287D02*Y225487D01*
Y224487D02*Y223287D01*
Y224487D02*X203500Y224987D01*
X204000Y225487D02*X203500Y224987D01*
X184700Y206787D02*X186700D01*
X185700D02*Y202787D01*
X188400Y206787D02*Y202787D01*
X187900Y206787D02*X189900D01*
X190400Y206287D01*
Y205287D01*
X189900Y204787D02*X190400Y205287D01*
X188400Y204787D02*X189900D01*
X191600Y206787D02*Y202787D01*
Y206787D02*X193100Y204787D01*
X194600Y206787D01*
Y202787D01*
X195800Y206787D02*X196800D01*
X196300D02*Y202787D01*
X195800D02*X196800D01*
X198700D02*X200000D01*
X198000Y203487D02*X198700Y202787D01*
X198000Y206087D02*Y203487D01*
Y206087D02*X198700Y206787D01*
X200000D01*
X201200Y204987D02*X202700D01*
X201200Y202787D02*X203200D01*
X201200Y206787D02*Y202787D01*
Y206787D02*X203200D01*
X204400D02*Y202787D01*
Y206787D02*X206900Y202787D01*
Y206787D02*Y202787D01*
X188700Y246787D02*X190700D01*
X189700D02*Y242787D01*
X192400Y246787D02*Y242787D01*
X191900Y246787D02*X193900D01*
X194400Y246287D01*
Y245287D01*
X193900Y244787D02*X194400Y245287D01*
X192400Y244787D02*X193900D01*
X197600Y246787D02*X198100Y246287D01*
X196100Y246787D02*X197600D01*
X195600Y246287D02*X196100Y246787D01*
X195600Y246287D02*Y245287D01*
X196100Y244787D01*
X197600D01*
X198100Y244287D01*
Y243287D01*
X197600Y242787D02*X198100Y243287D01*
X196100Y242787D02*X197600D01*
X195600Y243287D02*X196100Y242787D01*
X200000D02*X201300D01*
X199300Y243487D02*X200000Y242787D01*
X199300Y246087D02*Y243487D01*
Y246087D02*X200000Y246787D01*
X201300D01*
X202500D02*Y242787D01*
Y244787D02*X204500Y246787D01*
X202500Y244787D02*X204500Y242787D01*
X187700Y145787D02*X189700D01*
X188700D02*Y141787D01*
X191400Y145787D02*Y141787D01*
X190900Y145787D02*X192900D01*
X193400Y145287D01*
Y144287D01*
X192900Y143787D02*X193400Y144287D01*
X191400Y143787D02*X192900D01*
X196600Y145787D02*X197100Y145287D01*
X195100Y145787D02*X196600D01*
X194600Y145287D02*X195100Y145787D01*
X194600Y145287D02*Y142287D01*
X195100Y141787D01*
X196600D01*
X197100Y142287D01*
Y143287D02*Y142287D01*
X196600Y143787D02*X197100Y143287D01*
X195600Y143787D02*X196600D01*
X198300Y145787D02*Y141787D01*
Y145787D02*X200800Y141787D01*
Y145787D02*Y141787D01*
X202500Y145787D02*Y141787D01*
X203800Y145787D02*X204500Y145087D01*
Y142487D01*
X203800Y141787D02*X204500Y142487D01*
X202000Y141787D02*X203800D01*
X202000Y145787D02*X203800D01*
X184700Y186787D02*X186700D01*
X185700D02*Y182787D01*
X188400Y186787D02*Y182787D01*
X187900Y186787D02*X189900D01*
X190400Y186287D01*
Y185287D01*
X189900Y184787D02*X190400Y185287D01*
X188400Y184787D02*X189900D01*
X191600Y186787D02*X192600D01*
X192100D02*Y182787D01*
X191600D02*X192600D01*
X193800Y186287D02*X194300Y186787D01*
X195800D01*
X196300Y186287D01*
Y185287D01*
X193800Y182787D02*X196300Y185287D01*
X193800Y182787D02*X196300D01*
X199500Y186787D02*X200000Y186287D01*
X198000Y186787D02*X199500D01*
X197500Y186287D02*X198000Y186787D01*
X197500Y186287D02*Y185287D01*
X198000Y184787D01*
X199500D01*
X200000Y184287D01*
Y183287D01*
X199500Y182787D02*X200000Y183287D01*
X198000Y182787D02*X199500D01*
X197500Y183287D02*X198000Y182787D01*
X203200Y186787D02*X203700Y186287D01*
X201700Y186787D02*X203200D01*
X201200Y186287D02*X201700Y186787D01*
X201200Y186287D02*Y185287D01*
X201700Y184787D01*
X203200D01*
X203700Y184287D01*
Y183287D01*
X203200Y182787D02*X203700Y183287D01*
X201700Y182787D02*X203200D01*
X201200Y183287D02*X201700Y182787D01*
X205400Y186787D02*Y182787D01*
X206700Y186787D02*X207400Y186087D01*
Y183487D01*
X206700Y182787D02*X207400Y183487D01*
X204900Y182787D02*X206700D01*
X204900Y186787D02*X206700D01*
X184700Y166787D02*X186700D01*
X185700D02*Y162787D01*
X188400Y166787D02*Y162787D01*
X187900Y166787D02*X189900D01*
X190400Y166287D01*
Y165287D01*
X189900Y164787D02*X190400Y165287D01*
X188400Y164787D02*X189900D01*
X191600Y166787D02*X192600D01*
X192100D02*Y162787D01*
X191600D02*X192600D01*
X193800Y166287D02*X194300Y166787D01*
X195800D01*
X196300Y166287D01*
Y165287D01*
X193800Y162787D02*X196300Y165287D01*
X193800Y162787D02*X196300D01*
X199500Y166787D02*X200000Y166287D01*
X198000Y166787D02*X199500D01*
X197500Y166287D02*X198000Y166787D01*
X197500Y166287D02*Y165287D01*
X198000Y164787D01*
X199500D01*
X200000Y164287D01*
Y163287D01*
X199500Y162787D02*X200000Y163287D01*
X198000Y162787D02*X199500D01*
X197500Y163287D02*X198000Y162787D01*
X201200Y166787D02*Y164787D01*
X201700Y162787D01*
X202700Y164787D01*
X203700Y162787D01*
X204200Y164787D01*
Y166787D02*Y164787D01*
X207400Y166787D02*X207900Y166287D01*
X205900Y166787D02*X207400D01*
X205400Y166287D02*X205900Y166787D01*
X205400Y166287D02*Y165287D01*
X205900Y164787D01*
X207400D01*
X207900Y164287D01*
Y163287D01*
X207400Y162787D02*X207900Y163287D01*
X205900Y162787D02*X207400D01*
X205400Y163287D02*X205900Y162787D01*
X216700Y145787D02*X218700D01*
X217700D02*Y141787D01*
X220400Y145787D02*Y141787D01*
X219900Y145787D02*X221900D01*
X222400Y145287D01*
Y144287D01*
X221900Y143787D02*X222400Y144287D01*
X220400Y143787D02*X221900D01*
X223600Y144987D02*X224400Y145787D01*
Y141787D01*
X223600D02*X225100D01*
X226300Y145787D02*X227300Y141787D01*
X228300Y145787D01*
X229500Y142287D02*X230000Y141787D01*
X229500Y143087D02*Y142287D01*
Y143087D02*X230200Y143787D01*
X230800D01*
X231500Y143087D01*
Y142287D01*
X231000Y141787D02*X231500Y142287D01*
X230000Y141787D02*X231000D01*
X229500Y144487D02*X230200Y143787D01*
X229500Y145287D02*Y144487D01*
Y145287D02*X230000Y145787D01*
X231000D01*
X231500Y145287D01*
Y144487D01*
X230800Y143787D02*X231500Y144487D01*
X149700Y237787D02*X151700D01*
X150700D02*Y233787D01*
X153400Y237787D02*Y233787D01*
X152900Y237787D02*X154900D01*
X155400Y237287D01*
Y236287D01*
X154900Y235787D02*X155400Y236287D01*
X153400Y235787D02*X154900D01*
X156600Y237787D02*Y233787D01*
Y237787D02*X159100Y233787D01*
Y237787D02*Y233787D01*
X160300Y237787D02*X162300D01*
X162800Y237287D01*
Y236287D01*
X162300Y235787D02*X162800Y236287D01*
X160800Y235787D02*X162300D01*
X160800Y237787D02*Y233787D01*
X161600Y235787D02*X162800Y233787D01*
X164000Y235987D02*X165500D01*
X164000Y233787D02*X166000D01*
X164000Y237787D02*Y233787D01*
Y237787D02*X166000D01*
X169200D02*X169700Y237287D01*
X167700Y237787D02*X169200D01*
X167200Y237287D02*X167700Y237787D01*
X167200Y237287D02*Y236287D01*
X167700Y235787D01*
X169200D01*
X169700Y235287D01*
Y234287D01*
X169200Y233787D02*X169700Y234287D01*
X167700Y233787D02*X169200D01*
X167200Y234287D02*X167700Y233787D01*
X170900Y235987D02*X172400D01*
X170900Y233787D02*X172900D01*
X170900Y237787D02*Y233787D01*
Y237787D02*X172900D01*
X174100D02*X176100D01*
X175100D02*Y233787D01*
X151700Y194787D02*X153700D01*
X152700D02*Y190787D01*
X155400Y194787D02*Y190787D01*
X154900Y194787D02*X156900D01*
X157400Y194287D01*
Y193287D01*
X156900Y192787D02*X157400Y193287D01*
X155400Y192787D02*X156900D01*
X158600Y190787D02*X160600D01*
X162500D02*X163800D01*
X161800Y191487D02*X162500Y190787D01*
X161800Y194087D02*Y191487D01*
Y194087D02*X162500Y194787D01*
X163800D01*
X165000D02*Y190787D01*
X167500Y194787D02*Y190787D01*
X165000Y192787D02*X167500D01*
X168700Y194787D02*X170700D01*
X168700D02*Y192787D01*
X169200Y193287D01*
X170200D01*
X170700Y192787D01*
Y191287D01*
X170200Y190787D02*X170700Y191287D01*
X169200Y190787D02*X170200D01*
X168700Y191287D02*X169200Y190787D01*
X172400Y194787D02*Y190787D01*
X171900Y194787D02*X173900D01*
X174400Y194287D01*
Y193287D01*
X173900Y192787D02*X174400Y193287D01*
X172400Y192787D02*X173900D01*
X150720Y174767D02*X152720D01*
X151720D02*Y170767D01*
X154420Y174767D02*Y170767D01*
X153920Y174767D02*X155920D01*
X156420Y174267D01*
Y173267D01*
X155920Y172767D02*X156420Y173267D01*
X154420Y172767D02*X155920D01*
X157620Y170767D02*X159620D01*
X161520D02*X162820D01*
X160820Y171467D02*X161520Y170767D01*
X160820Y174067D02*Y171467D01*
Y174067D02*X161520Y174767D01*
X162820D01*
X164020D02*Y170767D01*
X166520Y174767D02*Y170767D01*
X164020Y172767D02*X166520D01*
X167720Y174267D02*X168220Y174767D01*
X169220D01*
X169720Y174267D01*
X169220Y170767D02*X169720Y171267D01*
X168220Y170767D02*X169220D01*
X167720Y171267D02*X168220Y170767D01*
Y172967D02*X169220D01*
X169720Y174267D02*Y173467D01*
Y172467D02*Y171267D01*
Y172467D02*X169220Y172967D01*
X169720Y173467D02*X169220Y172967D01*
X171420Y174767D02*Y170767D01*
X170920Y174767D02*X172920D01*
X173420Y174267D01*
Y173267D01*
X172920Y172767D02*X173420Y173267D01*
X171420Y172767D02*X172920D01*
X151720Y144767D02*X153720D01*
X152720D02*Y140767D01*
X155420Y144767D02*Y140767D01*
X154920Y144767D02*X156920D01*
X157420Y144267D01*
Y143267D01*
X156920Y142767D02*X157420Y143267D01*
X155420Y142767D02*X156920D01*
X158620Y140767D02*X160620D01*
X162520D02*X163820D01*
X161820Y141467D02*X162520Y140767D01*
X161820Y144067D02*Y141467D01*
Y144067D02*X162520Y144767D01*
X163820D01*
X165020D02*Y140767D01*
X167520Y144767D02*Y140767D01*
X165020Y142767D02*X167520D01*
X168720Y143967D02*X169520Y144767D01*
Y140767D01*
X168720D02*X170220D01*
X171920Y144767D02*Y140767D01*
X171420Y144767D02*X173420D01*
X173920Y144267D01*
Y143267D01*
X173420Y142767D02*X173920Y143267D01*
X171920Y142767D02*X173420D01*
X150700Y214787D02*X152700D01*
X151700D02*Y210787D01*
X154400Y214787D02*Y210787D01*
X153900Y214787D02*X155900D01*
X156400Y214287D01*
Y213287D01*
X155900Y212787D02*X156400Y213287D01*
X154400Y212787D02*X155900D01*
X157600Y210787D02*X159600D01*
X161500D02*X162800D01*
X160800Y211487D02*X161500Y210787D01*
X160800Y214087D02*Y211487D01*
Y214087D02*X161500Y214787D01*
X162800D01*
X164000D02*Y210787D01*
X166500Y214787D02*Y210787D01*
X164000Y212787D02*X166500D01*
X168200Y210787D02*X170200Y214787D01*
X167700D02*X170200D01*
X171900D02*Y210787D01*
X171400Y214787D02*X173400D01*
X173900Y214287D01*
Y213287D01*
X173400Y212787D02*X173900Y213287D01*
X171900Y212787D02*X173400D01*
X212144Y243775D02*X213444D01*
X211444Y244475D02*X212144Y243775D01*
X211444Y247075D02*Y244475D01*
Y247075D02*X212144Y247775D01*
X213444D01*
X214644Y247275D02*Y244275D01*
Y247275D02*X215144Y247775D01*
X216144D01*
X216644Y247275D01*
Y244275D01*
X216144Y243775D02*X216644Y244275D01*
X215144Y243775D02*X216144D01*
X214644Y244275D02*X215144Y243775D01*
X217844Y247775D02*Y243775D01*
Y247775D02*X220344Y243775D01*
Y247775D02*Y243775D01*
X221544Y247775D02*Y243775D01*
Y247775D02*X224044Y243775D01*
Y247775D02*Y243775D01*
X225244Y246975D02*X226044Y247775D01*
Y243775D01*
X225244D02*X226744D01*
X227944Y246975D02*X228744Y247775D01*
Y243775D01*
X227944D02*X229444D01*
X230644Y244275D02*X231144Y243775D01*
X230644Y247275D02*Y244275D01*
Y247275D02*X231144Y247775D01*
X232144D01*
X232644Y247275D01*
Y244275D01*
X232144Y243775D02*X232644Y244275D01*
X231144Y243775D02*X232144D01*
X230644Y244775D02*X232644Y246775D01*
X233844Y247275D02*X234344Y247775D01*
X235344D01*
X235844Y247275D01*
X235344Y243775D02*X235844Y244275D01*
X234344Y243775D02*X235344D01*
X233844Y244275D02*X234344Y243775D01*
Y245975D02*X235344D01*
X235844Y247275D02*Y246475D01*
Y245475D02*Y244275D01*
Y245475D02*X235344Y245975D01*
X235844Y246475D02*X235344Y245975D01*
M02*
