G04 start of page 11 for group -4014 idx -4014 *
G04 Title: (unknown), bottompaste *
G04 Creator: pcb 20110918 *
G04 CreationDate: Tue Sep 16 15:41:33 2014 UTC *
G04 For: fosse *
G04 Format: Gerber/RS-274X *
G04 PCB-Dimensions: 375000 325000 *
G04 PCB-Coordinate-Origin: lower left *
%MOIN*%
%FSLAX25Y25*%
%LNBOTTOMPASTE*%
%ADD67R,0.0197X0.0197*%
%ADD66R,0.0197X0.0197*%
%ADD65R,0.0197X0.0197*%
G54D65*X108999Y273584D02*Y269960D01*
G54D66*X105849Y273583D02*Y269961D01*
X102700Y273583D02*Y269961D01*
G54D67*X99551Y273583D02*Y269960D01*
X96401Y273583D02*Y269960D01*
G54D66*X93251Y273583D02*Y269961D01*
G54D67*X90102Y273583D02*Y269960D01*
X86952Y273583D02*Y269960D01*
G54D66*X131046Y273583D02*Y269961D01*
X127897Y273583D02*Y269961D01*
G54D67*X124748Y273583D02*Y269960D01*
X121598Y273583D02*Y269960D01*
G54D66*X118448Y273583D02*Y269961D01*
G54D67*X115299Y273583D02*Y269960D01*
X112149Y273583D02*Y269960D01*
X108960Y250473D02*Y246850D01*
X105810Y250473D02*Y246850D01*
G54D66*X102660Y250473D02*Y246851D01*
G54D65*X99511Y250474D02*Y246850D01*
G54D66*X96361Y250473D02*Y246851D01*
X93212Y250473D02*Y246851D01*
G54D65*X90062Y250474D02*Y246850D01*
G54D66*X86912Y250473D02*Y246851D01*
G54D67*X131007Y250473D02*Y246850D01*
G54D66*X127857Y250473D02*Y246851D01*
G54D65*X124708Y250474D02*Y246850D01*
G54D66*X121558Y250473D02*Y246851D01*
X118409Y250473D02*Y246851D01*
G54D65*X115259Y250474D02*Y246850D01*
G54D66*X112109Y250473D02*Y246851D01*
M02*
