G04 start of page 10 for group -4015 idx -4015 *
G04 Title: (unknown), toppaste *
G04 Creator: pcb 20110918 *
G04 CreationDate: Mon Sep 15 22:10:26 2014 UTC *
G04 For: fosse *
G04 Format: Gerber/RS-274X *
G04 PCB-Dimensions: 375000 325000 *
G04 PCB-Coordinate-Origin: lower left *
%MOIN*%
%FSLAX25Y25*%
%LNTOPPASTE*%
%ADD186R,0.0807X0.0807*%
G54D186*X193294Y133775D02*X199593D01*
X193294Y214775D02*X199593D01*
X193294Y194775D02*X199593D01*
X193294Y174775D02*X199593D01*
X193294Y154775D02*X199593D01*
X193294Y234775D02*X199593D01*
X128294Y225775D02*X134593D01*
X159294D02*X165593D01*
X49294Y202775D02*X55593D01*
X19314Y202755D02*X25613D01*
X49314Y182755D02*X55613D01*
X19294Y182775D02*X25593D01*
X49294Y162775D02*X55593D01*
X19314Y162755D02*X25613D01*
X49294Y142775D02*X55593D01*
X19294Y132775D02*X25593D01*
X159294Y182775D02*X165593D01*
X129314Y162755D02*X135613D01*
X159314D02*X165613D01*
X129314Y142755D02*X135613D01*
X159314Y132755D02*X165613D01*
X129314Y202755D02*X135613D01*
X159294Y202775D02*X165593D01*
X129314Y182755D02*X135613D01*
X221294Y133775D02*X227593D01*
M02*
