G04 start of page 9 for group -4078 idx -4078 *
G04 Title: (unknown), bottomsilk *
G04 Creator: pcb 20110918 *
G04 CreationDate: Tue Sep 16 15:41:33 2014 UTC *
G04 For: fosse *
G04 Format: Gerber/RS-274X *
G04 PCB-Dimensions: 375000 325000 *
G04 PCB-Coordinate-Origin: lower left *
%MOIN*%
%FSLAX25Y25*%
%LNBOTTOMSILK*%
%ADD63C,0.0100*%
G54D63*X78567Y252598D02*X82897Y248268D01*
X135495D01*
X139826Y252598D01*
Y271732D01*
X78567D01*
X78566Y252598D01*
X80259Y269843D02*X137739D01*
X137740Y254330D01*
X133803Y250393D02*X84197D01*
X80260Y254330D02*X80259Y269843D01*
X80260Y254330D02*X84197Y250393D01*
X137740Y254330D02*X133803Y250393D01*
X86699Y245000D02*X87999D01*
X85999Y244300D02*X86699Y245000D01*
X85999Y241700D02*Y244300D01*
Y241700D02*X86699Y241000D01*
X87999D01*
X89199Y241500D02*Y244500D01*
Y241500D02*X89699Y241000D01*
X90699D01*
X91199Y241500D01*
Y244500D01*
X90699Y245000D02*X91199Y244500D01*
X89699Y245000D02*X90699D01*
X89199Y244500D02*X89699Y245000D01*
X92399Y241000D02*Y245000D01*
Y241000D02*X94899Y245000D01*
Y241000D02*Y245000D01*
X96099Y241000D02*Y245000D01*
Y241000D02*X98599Y245000D01*
Y241000D02*Y245000D01*
X99799Y241800D02*X100599Y241000D01*
Y245000D01*
X99799D02*X101299D01*
X102499Y244500D02*X102999Y245000D01*
X102499Y241500D02*Y244500D01*
Y241500D02*X102999Y241000D01*
X103999D01*
X104499Y241500D01*
Y244500D01*
X103999Y245000D02*X104499Y244500D01*
X102999Y245000D02*X103999D01*
X102499Y244000D02*X104499Y242000D01*
X105699Y244500D02*X106199Y245000D01*
X105699Y241500D02*Y244500D01*
Y241500D02*X106199Y241000D01*
X107199D01*
X107699Y241500D01*
Y244500D01*
X107199Y245000D02*X107699Y244500D01*
X106199Y245000D02*X107199D01*
X105699Y244000D02*X107699Y242000D01*
X108899Y244500D02*X109399Y245000D01*
X108899Y241500D02*Y244500D01*
Y241500D02*X109399Y241000D01*
X110399D01*
X110899Y241500D01*
Y244500D01*
X110399Y245000D02*X110899Y244500D01*
X109399Y245000D02*X110399D01*
X108899Y244000D02*X110899Y242000D01*
M02*
