G04 start of page 11 for group -4014 idx -4014 *
G04 Title: (unknown), bottompaste *
G04 Creator: pcb 20110918 *
G04 CreationDate: Mon Sep 15 22:10:26 2014 UTC *
G04 For: fosse *
G04 Format: Gerber/RS-274X *
G04 PCB-Dimensions: 375000 325000 *
G04 PCB-Coordinate-Origin: lower left *
%MOIN*%
%FSLAX25Y25*%
%LNBOTTOMPASTE*%
%ADD189R,0.0197X0.0197*%
%ADD188R,0.0197X0.0197*%
%ADD187R,0.0197X0.0197*%
G54D187*X108999Y273584D02*Y269960D01*
G54D188*X105849Y273583D02*Y269961D01*
X102700Y273583D02*Y269961D01*
G54D189*X99551Y273583D02*Y269960D01*
X96401Y273583D02*Y269960D01*
G54D188*X93251Y273583D02*Y269961D01*
G54D189*X90102Y273583D02*Y269960D01*
X86952Y273583D02*Y269960D01*
G54D188*X131046Y273583D02*Y269961D01*
X127897Y273583D02*Y269961D01*
G54D189*X124748Y273583D02*Y269960D01*
X121598Y273583D02*Y269960D01*
G54D188*X118448Y273583D02*Y269961D01*
G54D189*X115299Y273583D02*Y269960D01*
X112149Y273583D02*Y269960D01*
X108960Y250473D02*Y246850D01*
X105810Y250473D02*Y246850D01*
G54D188*X102660Y250473D02*Y246851D01*
G54D187*X99511Y250474D02*Y246850D01*
G54D188*X96361Y250473D02*Y246851D01*
X93212Y250473D02*Y246851D01*
G54D187*X90062Y250474D02*Y246850D01*
G54D188*X86912Y250473D02*Y246851D01*
G54D189*X131007Y250473D02*Y246850D01*
G54D188*X127857Y250473D02*Y246851D01*
G54D187*X124708Y250474D02*Y246850D01*
G54D188*X121558Y250473D02*Y246851D01*
X118409Y250473D02*Y246851D01*
G54D187*X115259Y250474D02*Y246850D01*
G54D188*X112109Y250473D02*Y246851D01*
M02*
