G04 start of page 7 for group -4062 idx -4062 *
G04 Title: (unknown), soldermask *
G04 Creator: pcb 20110918 *
G04 CreationDate: Tue Sep 16 16:31:17 2014 UTC *
G04 For: fosse *
G04 Format: Gerber/RS-274X *
G04 PCB-Dimensions: 348000 372000 *
G04 PCB-Coordinate-Origin: lower left *
%MOIN*%
%FSLAX25Y25*%
%LNBOTTOMMASK*%
%ADD50C,0.0651*%
%ADD49C,0.2760*%
%ADD48C,0.0660*%
%ADD47C,0.0001*%
G54D47*G36*
X107700Y205300D02*Y198700D01*
X114300D01*
Y205300D01*
X107700D01*
G37*
G54D48*X101000Y202000D03*
X111000Y212000D03*
X101000D03*
X111000Y222000D03*
X101000D03*
X111000Y232000D03*
X101000D03*
X144000Y174000D03*
G54D49*X170000Y87500D03*
X30000Y349000D03*
G54D47*G36*
X23200Y314800D02*Y308200D01*
X29800D01*
Y314800D01*
X23200D01*
G37*
G54D48*X26500Y321500D03*
G54D49*X170000Y349000D03*
G54D47*G36*
X140700Y167300D02*Y160700D01*
X147300D01*
Y167300D01*
X140700D01*
G37*
G36*
X75700D02*Y160700D01*
X82300D01*
Y167300D01*
X75700D01*
G37*
G54D48*X79000Y174000D03*
X64000Y171500D03*
Y181500D03*
Y191500D03*
Y201500D03*
Y211500D03*
Y221500D03*
X111000Y242000D03*
Y252000D03*
Y262000D03*
Y272000D03*
Y282000D03*
Y292000D03*
X101000Y242000D03*
Y252000D03*
Y262000D03*
Y272000D03*
Y282000D03*
Y292000D03*
G54D50*X48126Y242630D03*
G54D49*X30000Y87500D03*
G54D50*X48126Y250504D03*
X56000D03*
X48126Y258378D03*
X56000D03*
Y242630D03*
X48126Y266252D03*
X56000D03*
X48126Y274126D03*
X56000D03*
X48126Y282000D03*
X56000D03*
X48126Y289874D03*
X56000D03*
G54D47*G36*
X63200Y314800D02*Y308200D01*
X69800D01*
Y314800D01*
X63200D01*
G37*
G54D48*X66500Y321500D03*
G54D47*G36*
X43200Y314800D02*Y308200D01*
X49800D01*
Y314800D01*
X43200D01*
G37*
G54D48*X46500Y321500D03*
M02*
