M48
INCH
T41C0.035
T40C0.035
T39C0.042
T38C0.129
T37C0.038
T36C0.040
%
T41
X015000Y024700
X003300Y021750
X003800Y022700
X007550Y026700
X008600Y023700
T40
X004813Y024263
X004813Y025050
X005600Y025050
X004813Y025838
X005600Y025838
X005600Y024263
X004813Y026625
X005600Y026625
X004813Y027413
X005600Y027413
X004813Y028200
X005600Y028200
X004813Y028987
X005600Y028987
T37
X014400Y017400
X002650Y031150
X002650Y032150
X014400Y016400
X007900Y016400
X007900Y017400
X006650Y031150
X006650Y032150
X004650Y031150
X004650Y032150
T36
X011100Y020200
X010100Y020200
X011100Y021200
X010100Y021200
X011100Y022200
X010100Y022200
X011100Y023200
X010100Y023200
X011100Y024200
X011100Y025200
X011100Y026200
X011100Y027200
X011100Y028200
X011100Y029200
X010100Y024200
X010100Y025200
X010100Y026200
X010100Y027200
X010100Y028200
X010100Y029200
T39
X006400Y017150
X006400Y018150
X006400Y019150
X006400Y020150
X006400Y021150
X006400Y022150
T38
X017000Y008750
X003000Y034900
X017000Y034900
X003000Y008750
M30
