G04 start of page 7 for group -4062 idx -4062 *
G04 Title: (unknown), soldermask *
G04 Creator: pcb 20110918 *
G04 CreationDate: Tue Sep 16 15:41:33 2014 UTC *
G04 For: fosse *
G04 Format: Gerber/RS-274X *
G04 PCB-Dimensions: 375000 325000 *
G04 PCB-Coordinate-Origin: lower left *
%MOIN*%
%FSLAX25Y25*%
%LNBOTTOMMASK*%
%ADD60R,0.0297X0.0297*%
%ADD59R,0.0297X0.0297*%
%ADD58R,0.0297X0.0297*%
%ADD57C,0.0554*%
%ADD56C,0.2760*%
%ADD55C,0.0660*%
%ADD54C,0.0001*%
G54D54*G36*
X79144Y206075D02*Y199475D01*
X85744D01*
Y206075D01*
X79144D01*
G37*
G54D55*X82444Y192775D03*
Y182775D03*
Y172775D03*
Y162775D03*
Y152775D03*
Y142775D03*
Y132775D03*
X112444D03*
Y142775D03*
Y152775D03*
Y162775D03*
Y172775D03*
Y182775D03*
Y192775D03*
Y202775D03*
X229444Y184775D03*
Y174775D03*
X219444D03*
Y184775D03*
G54D54*G36*
X226144Y208075D02*Y201475D01*
X232744D01*
Y208075D01*
X226144D01*
G37*
G54D55*X229444Y194775D03*
X219444D03*
Y204775D03*
G54D56*X109000Y303000D03*
G54D57*X82424Y267795D03*
X135574D03*
G54D58*X99551Y273583D02*Y269960D01*
X96401Y273583D02*Y269960D01*
G54D59*X93251Y273583D02*Y269961D01*
G54D58*X90102Y273583D02*Y269960D01*
X86952Y273583D02*Y269960D01*
G54D60*X108999Y273584D02*Y269960D01*
G54D59*X105849Y273583D02*Y269961D01*
X102700Y273583D02*Y269961D01*
X131046Y273583D02*Y269961D01*
X127897Y273583D02*Y269961D01*
G54D58*X124748Y273583D02*Y269960D01*
X121598Y273583D02*Y269960D01*
G54D59*X118448Y273583D02*Y269961D01*
G54D58*X115299Y273583D02*Y269960D01*
X112149Y273583D02*Y269960D01*
X108960Y250473D02*Y246850D01*
X105810Y250473D02*Y246850D01*
G54D59*X102660Y250473D02*Y246851D01*
X112109Y250473D02*Y246851D01*
G54D60*X99511Y250474D02*Y246850D01*
G54D59*X96361Y250473D02*Y246851D01*
X93212Y250473D02*Y246851D01*
G54D60*X90062Y250474D02*Y246850D01*
G54D59*X86912Y250473D02*Y246851D01*
G54D58*X131007Y250473D02*Y246850D01*
G54D59*X127857Y250473D02*Y246851D01*
G54D60*X124708Y250474D02*Y246850D01*
G54D59*X121558Y250473D02*Y246851D01*
X118409Y250473D02*Y246851D01*
G54D60*X115259Y250474D02*Y246850D01*
M02*
