G04 start of page 3 for group 5 idx 5 *
G04 Title: (unknown), bottom *
G04 Creator: pcb 20110918 *
G04 CreationDate: Thu Aug 28 18:43:41 2014 UTC *
G04 For: fosse *
G04 Format: Gerber/RS-274X *
G04 PCB-Dimensions: 348000 372000 *
G04 PCB-Coordinate-Origin: lower left *
%MOIN*%
%FSLAX25Y25*%
%LNBOTTOM*%
%ADD44C,0.0354*%
%ADD43C,0.0420*%
%ADD42C,0.1285*%
%ADD41C,0.0380*%
%ADD40C,0.0350*%
%ADD39C,0.0200*%
%ADD38C,0.0360*%
%ADD37C,0.0591*%
%ADD36C,0.2700*%
%ADD35C,0.0001*%
%ADD34C,0.0600*%
%ADD33C,0.0100*%
%ADD32C,0.0250*%
%ADD31C,0.0400*%
G54D31*X26000Y320500D02*X23000D01*
X19500Y317000D01*
Y174000D01*
G54D32*X26000Y257500D02*Y224500D01*
Y257500D02*Y213500D01*
G54D31*X29500Y93000D02*Y119000D01*
X78500Y173000D02*X81000D01*
X92500Y161500D01*
X126000D01*
X19500Y174000D02*X31000Y162500D01*
X66000D01*
X76500Y173000D01*
X78000D01*
X43500Y133000D02*X83000D01*
X59000Y107000D02*X81000D01*
X90000Y98000D01*
Y84500D01*
X92000Y82500D01*
X154500D01*
X83000Y133000D02*X90000Y140000D01*
Y147500D01*
X95000Y152500D01*
G54D32*X145500Y259000D02*X163000Y276500D01*
X110500Y261000D02*X134500D01*
X149500Y246000D01*
X75000Y266000D02*X105500D01*
X110500Y261000D01*
G54D31*X37000Y331500D02*X282500D01*
G54D32*X47626Y249504D02*X46004D01*
X42000Y245500D01*
X47626Y257378D02*X46878D01*
X37500Y248000D01*
X47626Y265252D02*X45752D01*
X31000Y250500D01*
X47626Y273126D02*X41626D01*
X26000Y257500D01*
G54D31*Y320500D02*X37000Y331500D01*
G54D32*X37500Y248000D02*Y232500D01*
X42000Y245500D02*Y230000D01*
X37500Y233000D02*Y226000D01*
G54D31*X29500Y119000D02*X43500Y133000D01*
G54D32*X31000Y250500D02*Y218000D01*
X42000Y230000D02*X51500Y220500D01*
X26000Y213500D02*X29000Y210500D01*
X89000D01*
X31000Y218000D02*X32500Y216500D01*
X51500Y220500D02*X88500D01*
X94000Y226000D01*
X105500D01*
X110500Y231000D01*
X89000Y210500D02*X94500Y216000D01*
X105500D01*
X110500Y221000D01*
X85500Y236000D02*X105500D01*
X110500Y241000D01*
G54D31*X126000Y161500D02*X137500Y173000D01*
X143500D01*
X95000Y152500D02*X168500D01*
X191000Y175000D01*
X99500Y133000D02*X229000D01*
X266000Y170000D01*
X194500Y163000D02*X218000D01*
X320000Y209500D02*Y238000D01*
X319500Y238500D01*
Y254500D01*
X332000Y267000D01*
G54D33*X312500Y260000D02*X305000D01*
X293000Y272000D01*
G54D31*X332000Y267000D02*Y279000D01*
X312000Y299000D01*
X226500D01*
X211000Y314500D01*
Y323000D01*
G54D33*X291000Y264000D02*X246000D01*
X226000Y284000D01*
X286500Y251500D02*X240000D01*
X219500Y272000D01*
G54D31*X282500Y331500D02*X291000Y323000D01*
G54D34*X110500Y241000D03*
G54D35*G36*
X315500Y271000D02*Y265000D01*
X321500D01*
Y271000D01*
X315500D01*
G37*
G54D34*X318500Y278000D03*
G54D35*G36*
X208000Y326000D02*Y320000D01*
X214000D01*
Y326000D01*
X208000D01*
G37*
G54D34*X221000Y323000D03*
X231000D03*
X241000D03*
G54D36*X327000Y349000D03*
G54D34*X251000Y323000D03*
X261000D03*
G54D35*G36*
X288000Y316000D02*Y310000D01*
X294000D01*
Y316000D01*
X288000D01*
G37*
G54D34*X291000Y323000D03*
G54D35*G36*
X280500Y168500D02*Y162500D01*
X286500D01*
Y168500D01*
X280500D01*
G37*
G54D34*X283500Y175500D03*
X110500Y221000D03*
X100500D03*
X110500Y231000D03*
X100500D03*
Y241000D03*
X110500Y251000D03*
Y261000D03*
Y271000D03*
Y281000D03*
Y291000D03*
X100500Y251000D03*
Y261000D03*
Y271000D03*
Y281000D03*
Y291000D03*
G54D35*G36*
X107500Y204000D02*Y198000D01*
X113500D01*
Y204000D01*
X107500D01*
G37*
G54D34*X100500Y201000D03*
X110500Y211000D03*
X100500D03*
G54D35*G36*
X140500Y166000D02*Y160000D01*
X146500D01*
Y166000D01*
X140500D01*
G37*
G54D34*X143500Y173000D03*
G54D35*G36*
X75500Y166000D02*Y160000D01*
X81500D01*
Y166000D01*
X75500D01*
G37*
G54D34*X78500Y173000D03*
X63500Y170500D03*
Y180500D03*
Y190500D03*
Y200500D03*
Y210500D03*
Y220500D03*
G54D37*X47626Y241630D03*
Y249504D03*
X55500Y241630D03*
Y249504D03*
X47626Y257378D03*
X55500D03*
X47626Y265252D03*
Y273126D03*
Y281000D03*
X55500Y265252D03*
Y273126D03*
Y281000D03*
Y288874D03*
G54D35*G36*
X63000Y313500D02*Y307500D01*
X69000D01*
Y313500D01*
X63000D01*
G37*
G54D34*X66000Y320500D03*
G54D37*X47626Y288874D03*
G54D35*G36*
X43000Y313500D02*Y307500D01*
X49000D01*
Y313500D01*
X43000D01*
G37*
G54D34*X46000Y320500D03*
G54D35*G36*
X23000Y313500D02*Y307500D01*
X29000D01*
Y313500D01*
X23000D01*
G37*
G54D34*X26000Y320500D03*
G54D36*X30000Y349000D03*
G54D35*G36*
X76500Y96000D02*Y90000D01*
X82500D01*
Y96000D01*
X76500D01*
G37*
G36*
Y146000D02*Y140000D01*
X82500D01*
Y146000D01*
X76500D01*
G37*
G54D34*X69500Y93000D03*
X59500D03*
X49500D03*
X39500D03*
X29500D03*
X19500D03*
G54D36*X30000Y71000D03*
G54D34*X69500Y143000D03*
X59500D03*
X49500D03*
X39500D03*
X29500D03*
X19500D03*
G54D35*G36*
X96500Y96000D02*Y90000D01*
X102500D01*
Y96000D01*
X96500D01*
G37*
G54D36*X327000Y71000D03*
G54D34*X99500Y103000D03*
Y113000D03*
Y123000D03*
Y133000D03*
Y143000D03*
G54D38*X226000Y284000D03*
X219500Y272000D03*
G54D34*X218000Y163000D03*
G54D38*X320000Y209500D03*
X319500Y238500D03*
X291000Y264000D03*
X312500Y260000D03*
X293000Y272000D03*
X286500Y251500D03*
G54D34*X266000Y170000D03*
X145500Y259000D03*
X75000Y266000D03*
X163000Y276500D03*
X191000Y175000D03*
X194500Y163000D03*
X149500Y246000D03*
X32500Y216500D03*
X37500Y226000D03*
X85500Y236000D03*
X59000Y107000D03*
X154500Y82500D03*
G54D39*G54D40*G54D39*G54D40*G54D31*G54D41*G54D42*G54D41*G54D31*G54D41*G54D43*G54D44*G54D41*G54D44*G54D41*G54D42*G54D41*G54D42*G54D41*G54D42*G54D41*M02*
