G04 start of page 2 for group 0 idx 0 *
G04 Title: (unknown), top *
G04 Creator: pcb 20110918 *
G04 CreationDate: Thu Aug 28 18:40:48 2014 UTC *
G04 For: fosse *
G04 Format: Gerber/RS-274X *
G04 PCB-Dimensions: 348000 372000 *
G04 PCB-Coordinate-Origin: lower left *
%MOIN*%
%FSLAX25Y25*%
%LNTOP*%
%ADD23C,0.0354*%
%ADD22C,0.0420*%
%ADD21C,0.1285*%
%ADD20C,0.0380*%
%ADD19C,0.0350*%
%ADD18R,0.0807X0.0807*%
%ADD17C,0.0591*%
%ADD16C,0.2700*%
%ADD15C,0.0600*%
%ADD14C,0.0001*%
%ADD13C,0.0250*%
%ADD12C,0.0400*%
%ADD11C,0.0100*%
G54D11*X111500Y211500D02*X111000Y212000D01*
G54D12*X93000Y204000D02*X101000Y212000D01*
Y202000D02*X120500D01*
X129000Y193500D01*
Y171000D01*
X136000Y164000D01*
X144000D01*
G54D13*X111000Y212000D02*X142500D01*
X143500Y211000D01*
X144000Y174000D02*X168500D01*
G54D12*X56000Y250504D02*Y282000D01*
X62500D01*
X66500Y286000D01*
Y311500D01*
X56000Y289874D02*Y302000D01*
X46500Y311500D01*
Y321500D02*X71500D01*
X101000Y292000D01*
Y295500D02*Y301500D01*
X104500Y305000D01*
X26500Y311500D02*Y308500D01*
X20000Y302000D01*
Y245000D01*
X22500Y242500D01*
X47996D01*
X48126Y242630D01*
G54D13*X71000Y262500D02*X75500Y267000D01*
G54D12*X101000Y212000D02*Y296000D01*
G54D13*X111000Y242000D02*X119540D01*
X111000Y222000D02*X115500D01*
G54D11*X149040Y271500D02*X149020Y271480D01*
G54D13*X147500Y254000D02*X171500D01*
X150000Y247000D02*Y237500D01*
X154500Y260000D02*X163500Y269000D01*
Y277500D02*X173250Y287250D01*
X163500Y269000D02*Y277500D01*
X119540Y242000D02*X149020Y271480D01*
X115500Y222000D02*X147500Y254000D01*
X111000Y232000D02*X118000D01*
X146000Y260000D01*
G54D12*X104500Y305000D02*X149000D01*
G54D13*X150000Y237500D02*X149000Y236500D01*
X146000Y260000D02*X154500D01*
X38000Y227000D02*X30000D01*
X23500Y220500D01*
X71000Y204500D02*Y262500D01*
X80500Y201500D02*Y231500D01*
X86000Y237000D01*
X37500Y201500D02*X68000D01*
X71000Y204500D01*
X32500Y191500D02*X70500D01*
G54D12*X64000Y171500D02*X71500Y164000D01*
X79000D01*
G54D13*X33000Y217500D02*Y206000D01*
X37500Y201500D01*
X23500Y220500D02*Y200500D01*
X32500Y191500D01*
G54D12*X64000Y181500D02*X81500D01*
X93000Y193000D01*
Y204000D01*
G54D13*X70500Y191500D02*X80500Y201500D01*
X63500Y182000D02*X64000Y181500D01*
G54D14*G36*
X108000Y205000D02*Y199000D01*
X114000D01*
Y205000D01*
X108000D01*
G37*
G54D15*X101000Y202000D03*
X111000Y212000D03*
X101000D03*
X111000Y222000D03*
X101000D03*
X111000Y232000D03*
X101000D03*
X144000Y174000D03*
G54D16*X170000Y87500D03*
X30000Y349000D03*
G54D14*G36*
X23500Y314500D02*Y308500D01*
X29500D01*
Y314500D01*
X23500D01*
G37*
G54D15*X26500Y321500D03*
G54D16*X170000Y349000D03*
G54D14*G36*
X141000Y167000D02*Y161000D01*
X147000D01*
Y167000D01*
X141000D01*
G37*
G36*
X76000D02*Y161000D01*
X82000D01*
Y167000D01*
X76000D01*
G37*
G54D15*X79000Y174000D03*
X64000Y171500D03*
Y181500D03*
Y191500D03*
Y201500D03*
Y211500D03*
Y221500D03*
X111000Y242000D03*
Y252000D03*
Y262000D03*
Y272000D03*
Y282000D03*
Y292000D03*
X101000Y242000D03*
Y252000D03*
Y262000D03*
Y272000D03*
Y282000D03*
Y292000D03*
G54D17*X48126Y242630D03*
G54D16*X30000Y87500D03*
G54D17*X48126Y250504D03*
X56000D03*
X48126Y258378D03*
X56000D03*
Y242630D03*
X48126Y266252D03*
X56000D03*
X48126Y274126D03*
X56000D03*
X48126Y282000D03*
X56000D03*
X48126Y289874D03*
X56000D03*
G54D14*G36*
X63500Y314500D02*Y308500D01*
X69500D01*
Y314500D01*
X63500D01*
G37*
G54D15*X66500Y321500D03*
G54D14*G36*
X43500Y314500D02*Y308500D01*
X49500D01*
Y314500D01*
X43500D01*
G37*
G54D15*X46500Y321500D03*
G54D18*X165350Y174000D02*X171649D01*
X140350Y211000D02*X146649D01*
X145850Y236500D02*X152149D01*
X168350Y254000D02*X174649D01*
X145870Y271480D02*X152169D01*
X168350Y289000D02*X174649D01*
X145850Y305000D02*X152149D01*
G54D15*X150000Y247000D03*
X33000Y217500D03*
X38000Y227000D03*
X75500Y267000D03*
X86000Y237000D03*
G54D19*G54D12*G54D20*G54D21*G54D20*G54D21*G54D20*G54D22*G54D12*G54D23*G54D21*G54D23*G54D20*M02*
